<?xml version="1.0" encoding="UTF-8" standalone="no"?>
<!-- Created with qrencode 4.1.1 (https://fukuchi.org/works/qrencode/index.html) -->

<svg
   width="48"
   height="48"
   viewBox="0 0 11.996743 11.996743"
   preserveAspectRatio="none"
   version="1.1"
   id="svg235"
   sodipodi:docname="qrcode.svg"
   inkscape:version="1.3.2 (091e20ef0f, 2023-11-25)"
   xmlns:inkscape="http://www.inkscape.org/namespaces/inkscape"
   xmlns:sodipodi="http://sodipodi.sourceforge.net/DTD/sodipodi-0.dtd"
   xmlns="http://www.w3.org/2000/svg"
   xmlns:svg="http://www.w3.org/2000/svg">
  <defs
     id="defs235" />
  <sodipodi:namedview
     id="namedview235"
     pagecolor="#ffffff"
     bordercolor="#666666"
     borderopacity="1.0"
     inkscape:showpageshadow="2"
     inkscape:pageopacity="0.0"
     inkscape:pagecheckerboard="0"
     inkscape:deskcolor="#d1d1d1"
     inkscape:document-units="cm"
     inkscape:zoom="6.6447477"
     inkscape:cx="23.928674"
     inkscape:cy="24.003921"
     inkscape:window-width="1920"
     inkscape:window-height="981"
     inkscape:window-x="0"
     inkscape:window-y="0"
     inkscape:window-maximized="1"
     inkscape:current-layer="QRcode" />
  <g
     id="QRcode"
     transform="translate(-8.5016287,-8.5016287)">
    <g
       id="Pattern"
       transform="matrix(0.57127346,0,0,0.57127346,8.5016287,8.5016287)">
      <rect
         x="0"
         y="0"
         width="1"
         height="1"
         fill="#000000"
         id="rect2" />
      <rect
         x="1"
         y="0"
         width="1"
         height="1"
         fill="#000000"
         id="rect3" />
      <rect
         x="2"
         y="0"
         width="1"
         height="1"
         fill="#000000"
         id="rect4" />
      <rect
         x="3"
         y="0"
         width="1"
         height="1"
         fill="#000000"
         id="rect5" />
      <rect
         x="4"
         y="0"
         width="1"
         height="1"
         fill="#000000"
         id="rect6" />
      <rect
         x="5"
         y="0"
         width="1"
         height="1"
         fill="#000000"
         id="rect7" />
      <rect
         x="6"
         y="0"
         width="1"
         height="1"
         fill="#000000"
         id="rect8" />
      <rect
         x="10"
         y="0"
         width="1"
         height="1"
         fill="#000000"
         id="rect9" />
      <rect
         x="12"
         y="0"
         width="1"
         height="1"
         fill="#000000"
         id="rect10" />
      <rect
         x="14"
         y="0"
         width="1"
         height="1"
         fill="#000000"
         id="rect11" />
      <rect
         x="15"
         y="0"
         width="1"
         height="1"
         fill="#000000"
         id="rect12" />
      <rect
         x="16"
         y="0"
         width="1"
         height="1"
         fill="#000000"
         id="rect13" />
      <rect
         x="17"
         y="0"
         width="1"
         height="1"
         fill="#000000"
         id="rect14" />
      <rect
         x="18"
         y="0"
         width="1"
         height="1"
         fill="#000000"
         id="rect15" />
      <rect
         x="19"
         y="0"
         width="1"
         height="1"
         fill="#000000"
         id="rect16" />
      <rect
         x="20"
         y="0"
         width="1"
         height="1"
         fill="#000000"
         id="rect17" />
      <rect
         x="0"
         y="1"
         width="1"
         height="1"
         fill="#000000"
         id="rect18" />
      <rect
         x="6"
         y="1"
         width="1"
         height="1"
         fill="#000000"
         id="rect19" />
      <rect
         x="8"
         y="1"
         width="1"
         height="1"
         fill="#000000"
         id="rect20" />
      <rect
         x="10"
         y="1"
         width="1"
         height="1"
         fill="#000000"
         id="rect21" />
      <rect
         x="12"
         y="1"
         width="1"
         height="1"
         fill="#000000"
         id="rect22" />
      <rect
         x="14"
         y="1"
         width="1"
         height="1"
         fill="#000000"
         id="rect23" />
      <rect
         x="20"
         y="1"
         width="1"
         height="1"
         fill="#000000"
         id="rect24" />
      <rect
         x="0"
         y="2"
         width="1"
         height="1"
         fill="#000000"
         id="rect25" />
      <rect
         x="2"
         y="2"
         width="1"
         height="1"
         fill="#000000"
         id="rect26" />
      <rect
         x="3"
         y="2"
         width="1"
         height="1"
         fill="#000000"
         id="rect27" />
      <rect
         x="4"
         y="2"
         width="1"
         height="1"
         fill="#000000"
         id="rect28" />
      <rect
         x="6"
         y="2"
         width="1"
         height="1"
         fill="#000000"
         id="rect29" />
      <rect
         x="8"
         y="2"
         width="1"
         height="1"
         fill="#000000"
         id="rect30" />
      <rect
         x="10"
         y="2"
         width="1"
         height="1"
         fill="#000000"
         id="rect31" />
      <rect
         x="11"
         y="2"
         width="1"
         height="1"
         fill="#000000"
         id="rect32" />
      <rect
         x="14"
         y="2"
         width="1"
         height="1"
         fill="#000000"
         id="rect33" />
      <rect
         x="16"
         y="2"
         width="1"
         height="1"
         fill="#000000"
         id="rect34" />
      <rect
         x="17"
         y="2"
         width="1"
         height="1"
         fill="#000000"
         id="rect35" />
      <rect
         x="18"
         y="2"
         width="1"
         height="1"
         fill="#000000"
         id="rect36" />
      <rect
         x="20"
         y="2"
         width="1"
         height="1"
         fill="#000000"
         id="rect37" />
      <rect
         x="0"
         y="3"
         width="1"
         height="1"
         fill="#000000"
         id="rect38" />
      <rect
         x="2"
         y="3"
         width="1"
         height="1"
         fill="#000000"
         id="rect39" />
      <rect
         x="3"
         y="3"
         width="1"
         height="1"
         fill="#000000"
         id="rect40" />
      <rect
         x="4"
         y="3"
         width="1"
         height="1"
         fill="#000000"
         id="rect41" />
      <rect
         x="6"
         y="3"
         width="1"
         height="1"
         fill="#000000"
         id="rect42" />
      <rect
         x="12"
         y="3"
         width="1"
         height="1"
         fill="#000000"
         id="rect43" />
      <rect
         x="14"
         y="3"
         width="1"
         height="1"
         fill="#000000"
         id="rect44" />
      <rect
         x="16"
         y="3"
         width="1"
         height="1"
         fill="#000000"
         id="rect45" />
      <rect
         x="17"
         y="3"
         width="1"
         height="1"
         fill="#000000"
         id="rect46" />
      <rect
         x="18"
         y="3"
         width="1"
         height="1"
         fill="#000000"
         id="rect47" />
      <rect
         x="20"
         y="3"
         width="1"
         height="1"
         fill="#000000"
         id="rect48" />
      <rect
         x="0"
         y="4"
         width="1"
         height="1"
         fill="#000000"
         id="rect49" />
      <rect
         x="2"
         y="4"
         width="1"
         height="1"
         fill="#000000"
         id="rect50" />
      <rect
         x="3"
         y="4"
         width="1"
         height="1"
         fill="#000000"
         id="rect51" />
      <rect
         x="4"
         y="4"
         width="1"
         height="1"
         fill="#000000"
         id="rect52" />
      <rect
         x="6"
         y="4"
         width="1"
         height="1"
         fill="#000000"
         id="rect53" />
      <rect
         x="8"
         y="4"
         width="1"
         height="1"
         fill="#000000"
         id="rect54" />
      <rect
         x="9"
         y="4"
         width="1"
         height="1"
         fill="#000000"
         id="rect55" />
      <rect
         x="10"
         y="4"
         width="1"
         height="1"
         fill="#000000"
         id="rect56" />
      <rect
         x="11"
         y="4"
         width="1"
         height="1"
         fill="#000000"
         id="rect57" />
      <rect
         x="12"
         y="4"
         width="1"
         height="1"
         fill="#000000"
         id="rect58" />
      <rect
         x="14"
         y="4"
         width="1"
         height="1"
         fill="#000000"
         id="rect59" />
      <rect
         x="16"
         y="4"
         width="1"
         height="1"
         fill="#000000"
         id="rect60" />
      <rect
         x="17"
         y="4"
         width="1"
         height="1"
         fill="#000000"
         id="rect61" />
      <rect
         x="18"
         y="4"
         width="1"
         height="1"
         fill="#000000"
         id="rect62" />
      <rect
         x="20"
         y="4"
         width="1"
         height="1"
         fill="#000000"
         id="rect63" />
      <rect
         x="0"
         y="5"
         width="1"
         height="1"
         fill="#000000"
         id="rect64" />
      <rect
         x="6"
         y="5"
         width="1"
         height="1"
         fill="#000000"
         id="rect65" />
      <rect
         x="8"
         y="5"
         width="1"
         height="1"
         fill="#000000"
         id="rect66" />
      <rect
         x="9"
         y="5"
         width="1"
         height="1"
         fill="#000000"
         id="rect67" />
      <rect
         x="10"
         y="5"
         width="1"
         height="1"
         fill="#000000"
         id="rect68" />
      <rect
         x="14"
         y="5"
         width="1"
         height="1"
         fill="#000000"
         id="rect69" />
      <rect
         x="20"
         y="5"
         width="1"
         height="1"
         fill="#000000"
         id="rect70" />
      <rect
         x="0"
         y="6"
         width="1"
         height="1"
         fill="#000000"
         id="rect71" />
      <rect
         x="1"
         y="6"
         width="1"
         height="1"
         fill="#000000"
         id="rect72" />
      <rect
         x="2"
         y="6"
         width="1"
         height="1"
         fill="#000000"
         id="rect73" />
      <rect
         x="3"
         y="6"
         width="1"
         height="1"
         fill="#000000"
         id="rect74" />
      <rect
         x="4"
         y="6"
         width="1"
         height="1"
         fill="#000000"
         id="rect75" />
      <rect
         x="5"
         y="6"
         width="1"
         height="1"
         fill="#000000"
         id="rect76" />
      <rect
         x="6"
         y="6"
         width="1"
         height="1"
         fill="#000000"
         id="rect77" />
      <rect
         x="8"
         y="6"
         width="1"
         height="1"
         fill="#000000"
         id="rect78" />
      <rect
         x="10"
         y="6"
         width="1"
         height="1"
         fill="#000000"
         id="rect79" />
      <rect
         x="12"
         y="6"
         width="1"
         height="1"
         fill="#000000"
         id="rect80" />
      <rect
         x="14"
         y="6"
         width="1"
         height="1"
         fill="#000000"
         id="rect81" />
      <rect
         x="15"
         y="6"
         width="1"
         height="1"
         fill="#000000"
         id="rect82" />
      <rect
         x="16"
         y="6"
         width="1"
         height="1"
         fill="#000000"
         id="rect83" />
      <rect
         x="17"
         y="6"
         width="1"
         height="1"
         fill="#000000"
         id="rect84" />
      <rect
         x="18"
         y="6"
         width="1"
         height="1"
         fill="#000000"
         id="rect85" />
      <rect
         x="19"
         y="6"
         width="1"
         height="1"
         fill="#000000"
         id="rect86" />
      <rect
         x="20"
         y="6"
         width="1"
         height="1"
         fill="#000000"
         id="rect87" />
      <rect
         x="8"
         y="7"
         width="1"
         height="1"
         fill="#000000"
         id="rect88" />
      <rect
         x="0"
         y="8"
         width="1"
         height="1"
         fill="#000000"
         id="rect89" />
      <rect
         x="1"
         y="8"
         width="1"
         height="1"
         fill="#000000"
         id="rect90" />
      <rect
         x="3"
         y="8"
         width="1"
         height="1"
         fill="#000000"
         id="rect91" />
      <rect
         x="6"
         y="8"
         width="1"
         height="1"
         fill="#000000"
         id="rect92" />
      <rect
         x="7"
         y="8"
         width="1"
         height="1"
         fill="#000000"
         id="rect93" />
      <rect
         x="10"
         y="8"
         width="1"
         height="1"
         fill="#000000"
         id="rect94" />
      <rect
         x="11"
         y="8"
         width="1"
         height="1"
         fill="#000000"
         id="rect95" />
      <rect
         x="12"
         y="8"
         width="1"
         height="1"
         fill="#000000"
         id="rect96" />
      <rect
         x="14"
         y="8"
         width="1"
         height="1"
         fill="#000000"
         id="rect97" />
      <rect
         x="15"
         y="8"
         width="1"
         height="1"
         fill="#000000"
         id="rect98" />
      <rect
         x="16"
         y="8"
         width="1"
         height="1"
         fill="#000000"
         id="rect99" />
      <rect
         x="18"
         y="8"
         width="1"
         height="1"
         fill="#000000"
         id="rect100" />
      <rect
         x="19"
         y="8"
         width="1"
         height="1"
         fill="#000000"
         id="rect101" />
      <rect
         x="0"
         y="9"
         width="1"
         height="1"
         fill="#000000"
         id="rect102" />
      <rect
         x="1"
         y="9"
         width="1"
         height="1"
         fill="#000000"
         id="rect103" />
      <rect
         x="2"
         y="9"
         width="1"
         height="1"
         fill="#000000"
         id="rect104" />
      <rect
         x="4"
         y="9"
         width="1"
         height="1"
         fill="#000000"
         id="rect105" />
      <rect
         x="5"
         y="9"
         width="1"
         height="1"
         fill="#000000"
         id="rect106" />
      <rect
         x="9"
         y="9"
         width="1"
         height="1"
         fill="#000000"
         id="rect107" />
      <rect
         x="11"
         y="9"
         width="1"
         height="1"
         fill="#000000"
         id="rect108" />
      <rect
         x="13"
         y="9"
         width="1"
         height="1"
         fill="#000000"
         id="rect109" />
      <rect
         x="16"
         y="9"
         width="1"
         height="1"
         fill="#000000"
         id="rect110" />
      <rect
         x="18"
         y="9"
         width="1"
         height="1"
         fill="#000000"
         id="rect111" />
      <rect
         x="19"
         y="9"
         width="1"
         height="1"
         fill="#000000"
         id="rect112" />
      <rect
         x="1"
         y="10"
         width="1"
         height="1"
         fill="#000000"
         id="rect113" />
      <rect
         x="3"
         y="10"
         width="1"
         height="1"
         fill="#000000"
         id="rect114" />
      <rect
         x="6"
         y="10"
         width="1"
         height="1"
         fill="#000000"
         id="rect115" />
      <rect
         x="8"
         y="10"
         width="1"
         height="1"
         fill="#000000"
         id="rect116" />
      <rect
         x="9"
         y="10"
         width="1"
         height="1"
         fill="#000000"
         id="rect117" />
      <rect
         x="10"
         y="10"
         width="1"
         height="1"
         fill="#000000"
         id="rect118" />
      <rect
         x="11"
         y="10"
         width="1"
         height="1"
         fill="#000000"
         id="rect119" />
      <rect
         x="13"
         y="10"
         width="1"
         height="1"
         fill="#000000"
         id="rect120" />
      <rect
         x="14"
         y="10"
         width="1"
         height="1"
         fill="#000000"
         id="rect121" />
      <rect
         x="15"
         y="10"
         width="1"
         height="1"
         fill="#000000"
         id="rect122" />
      <rect
         x="16"
         y="10"
         width="1"
         height="1"
         fill="#000000"
         id="rect123" />
      <rect
         x="17"
         y="10"
         width="1"
         height="1"
         fill="#000000"
         id="rect124" />
      <rect
         x="18"
         y="10"
         width="1"
         height="1"
         fill="#000000"
         id="rect125" />
      <rect
         x="20"
         y="10"
         width="1"
         height="1"
         fill="#000000"
         id="rect126" />
      <rect
         x="0"
         y="11"
         width="1"
         height="1"
         fill="#000000"
         id="rect127" />
      <rect
         x="3"
         y="11"
         width="1"
         height="1"
         fill="#000000"
         id="rect128" />
      <rect
         x="4"
         y="11"
         width="1"
         height="1"
         fill="#000000"
         id="rect129" />
      <rect
         x="7"
         y="11"
         width="1"
         height="1"
         fill="#000000"
         id="rect130" />
      <rect
         x="8"
         y="11"
         width="1"
         height="1"
         fill="#000000"
         id="rect131" />
      <rect
         x="12"
         y="11"
         width="1"
         height="1"
         fill="#000000"
         id="rect132" />
      <rect
         x="14"
         y="11"
         width="1"
         height="1"
         fill="#000000"
         id="rect133" />
      <rect
         x="16"
         y="11"
         width="1"
         height="1"
         fill="#000000"
         id="rect134" />
      <rect
         x="17"
         y="11"
         width="1"
         height="1"
         fill="#000000"
         id="rect135" />
      <rect
         x="19"
         y="11"
         width="1"
         height="1"
         fill="#000000"
         id="rect136" />
      <rect
         x="20"
         y="11"
         width="1"
         height="1"
         fill="#000000"
         id="rect137" />
      <rect
         x="0"
         y="12"
         width="1"
         height="1"
         fill="#000000"
         id="rect138" />
      <rect
         x="2"
         y="12"
         width="1"
         height="1"
         fill="#000000"
         id="rect139" />
      <rect
         x="3"
         y="12"
         width="1"
         height="1"
         fill="#000000"
         id="rect140" />
      <rect
         x="4"
         y="12"
         width="1"
         height="1"
         fill="#000000"
         id="rect141" />
      <rect
         x="6"
         y="12"
         width="1"
         height="1"
         fill="#000000"
         id="rect142" />
      <rect
         x="7"
         y="12"
         width="1"
         height="1"
         fill="#000000"
         id="rect143" />
      <rect
         x="8"
         y="12"
         width="1"
         height="1"
         fill="#000000"
         id="rect144" />
      <rect
         x="9"
         y="12"
         width="1"
         height="1"
         fill="#000000"
         id="rect145" />
      <rect
         x="11"
         y="12"
         width="1"
         height="1"
         fill="#000000"
         id="rect146" />
      <rect
         x="14"
         y="12"
         width="1"
         height="1"
         fill="#000000"
         id="rect147" />
      <rect
         x="18"
         y="12"
         width="1"
         height="1"
         fill="#000000"
         id="rect148" />
      <rect
         x="20"
         y="12"
         width="1"
         height="1"
         fill="#000000"
         id="rect149" />
      <rect
         x="8"
         y="13"
         width="1"
         height="1"
         fill="#000000"
         id="rect150" />
      <rect
         x="9"
         y="13"
         width="1"
         height="1"
         fill="#000000"
         id="rect151" />
      <rect
         x="10"
         y="13"
         width="1"
         height="1"
         fill="#000000"
         id="rect152" />
      <rect
         x="11"
         y="13"
         width="1"
         height="1"
         fill="#000000"
         id="rect153" />
      <rect
         x="13"
         y="13"
         width="1"
         height="1"
         fill="#000000"
         id="rect154" />
      <rect
         x="18"
         y="13"
         width="1"
         height="1"
         fill="#000000"
         id="rect155" />
      <rect
         x="19"
         y="13"
         width="1"
         height="1"
         fill="#000000"
         id="rect156" />
      <rect
         x="0"
         y="14"
         width="1"
         height="1"
         fill="#000000"
         id="rect157" />
      <rect
         x="1"
         y="14"
         width="1"
         height="1"
         fill="#000000"
         id="rect158" />
      <rect
         x="2"
         y="14"
         width="1"
         height="1"
         fill="#000000"
         id="rect159" />
      <rect
         x="3"
         y="14"
         width="1"
         height="1"
         fill="#000000"
         id="rect160" />
      <rect
         x="4"
         y="14"
         width="1"
         height="1"
         fill="#000000"
         id="rect161" />
      <rect
         x="5"
         y="14"
         width="1"
         height="1"
         fill="#000000"
         id="rect162" />
      <rect
         x="6"
         y="14"
         width="1"
         height="1"
         fill="#000000"
         id="rect163" />
      <rect
         x="8"
         y="14"
         width="1"
         height="1"
         fill="#000000"
         id="rect164" />
      <rect
         x="10"
         y="14"
         width="1"
         height="1"
         fill="#000000"
         id="rect165" />
      <rect
         x="11"
         y="14"
         width="1"
         height="1"
         fill="#000000"
         id="rect166" />
      <rect
         x="12"
         y="14"
         width="1"
         height="1"
         fill="#000000"
         id="rect167" />
      <rect
         x="14"
         y="14"
         width="1"
         height="1"
         fill="#000000"
         id="rect168" />
      <rect
         x="16"
         y="14"
         width="1"
         height="1"
         fill="#000000"
         id="rect169" />
      <rect
         x="19"
         y="14"
         width="1"
         height="1"
         fill="#000000"
         id="rect170" />
      <rect
         x="0"
         y="15"
         width="1"
         height="1"
         fill="#000000"
         id="rect171" />
      <rect
         x="6"
         y="15"
         width="1"
         height="1"
         fill="#000000"
         id="rect172" />
      <rect
         x="9"
         y="15"
         width="1"
         height="1"
         fill="#000000"
         id="rect173" />
      <rect
         x="10"
         y="15"
         width="1"
         height="1"
         fill="#000000"
         id="rect174" />
      <rect
         x="11"
         y="15"
         width="1"
         height="1"
         fill="#000000"
         id="rect175" />
      <rect
         x="14"
         y="15"
         width="1"
         height="1"
         fill="#000000"
         id="rect176" />
      <rect
         x="15"
         y="15"
         width="1"
         height="1"
         fill="#000000"
         id="rect177" />
      <rect
         x="0"
         y="16"
         width="1"
         height="1"
         fill="#000000"
         id="rect178" />
      <rect
         x="2"
         y="16"
         width="1"
         height="1"
         fill="#000000"
         id="rect179" />
      <rect
         x="3"
         y="16"
         width="1"
         height="1"
         fill="#000000"
         id="rect180" />
      <rect
         x="4"
         y="16"
         width="1"
         height="1"
         fill="#000000"
         id="rect181" />
      <rect
         x="6"
         y="16"
         width="1"
         height="1"
         fill="#000000"
         id="rect182" />
      <rect
         x="9"
         y="16"
         width="1"
         height="1"
         fill="#000000"
         id="rect183" />
      <rect
         x="12"
         y="16"
         width="1"
         height="1"
         fill="#000000"
         id="rect184" />
      <rect
         x="18"
         y="16"
         width="1"
         height="1"
         fill="#000000"
         id="rect185" />
      <rect
         x="20"
         y="16"
         width="1"
         height="1"
         fill="#000000"
         id="rect186" />
      <rect
         x="0"
         y="17"
         width="1"
         height="1"
         fill="#000000"
         id="rect187" />
      <rect
         x="2"
         y="17"
         width="1"
         height="1"
         fill="#000000"
         id="rect188" />
      <rect
         x="3"
         y="17"
         width="1"
         height="1"
         fill="#000000"
         id="rect189" />
      <rect
         x="4"
         y="17"
         width="1"
         height="1"
         fill="#000000"
         id="rect190" />
      <rect
         x="6"
         y="17"
         width="1"
         height="1"
         fill="#000000"
         id="rect191" />
      <rect
         x="8"
         y="17"
         width="1"
         height="1"
         fill="#000000"
         id="rect192" />
      <rect
         x="11"
         y="17"
         width="1"
         height="1"
         fill="#000000"
         id="rect193" />
      <rect
         x="13"
         y="17"
         width="1"
         height="1"
         fill="#000000"
         id="rect194" />
      <rect
         x="14"
         y="17"
         width="1"
         height="1"
         fill="#000000"
         id="rect195" />
      <rect
         x="15"
         y="17"
         width="1"
         height="1"
         fill="#000000"
         id="rect196" />
      <rect
         x="16"
         y="17"
         width="1"
         height="1"
         fill="#000000"
         id="rect197" />
      <rect
         x="17"
         y="17"
         width="1"
         height="1"
         fill="#000000"
         id="rect198" />
      <rect
         x="19"
         y="17"
         width="1"
         height="1"
         fill="#000000"
         id="rect199" />
      <rect
         x="20"
         y="17"
         width="1"
         height="1"
         fill="#000000"
         id="rect200" />
      <rect
         x="0"
         y="18"
         width="1"
         height="1"
         fill="#000000"
         id="rect201" />
      <rect
         x="2"
         y="18"
         width="1"
         height="1"
         fill="#000000"
         id="rect202" />
      <rect
         x="3"
         y="18"
         width="1"
         height="1"
         fill="#000000"
         id="rect203" />
      <rect
         x="4"
         y="18"
         width="1"
         height="1"
         fill="#000000"
         id="rect204" />
      <rect
         x="6"
         y="18"
         width="1"
         height="1"
         fill="#000000"
         id="rect205" />
      <rect
         x="9"
         y="18"
         width="1"
         height="1"
         fill="#000000"
         id="rect206" />
      <rect
         x="10"
         y="18"
         width="1"
         height="1"
         fill="#000000"
         id="rect207" />
      <rect
         x="11"
         y="18"
         width="1"
         height="1"
         fill="#000000"
         id="rect208" />
      <rect
         x="13"
         y="18"
         width="1"
         height="1"
         fill="#000000"
         id="rect209" />
      <rect
         x="14"
         y="18"
         width="1"
         height="1"
         fill="#000000"
         id="rect210" />
      <rect
         x="16"
         y="18"
         width="1"
         height="1"
         fill="#000000"
         id="rect211" />
      <rect
         x="18"
         y="18"
         width="1"
         height="1"
         fill="#000000"
         id="rect212" />
      <rect
         x="20"
         y="18"
         width="1"
         height="1"
         fill="#000000"
         id="rect213" />
      <rect
         x="0"
         y="19"
         width="1"
         height="1"
         fill="#000000"
         id="rect214" />
      <rect
         x="6"
         y="19"
         width="1"
         height="1"
         fill="#000000"
         id="rect215" />
      <rect
         x="8"
         y="19"
         width="1"
         height="1"
         fill="#000000"
         id="rect216" />
      <rect
         x="9"
         y="19"
         width="1"
         height="1"
         fill="#000000"
         id="rect217" />
      <rect
         x="11"
         y="19"
         width="1"
         height="1"
         fill="#000000"
         id="rect218" />
      <rect
         x="13"
         y="19"
         width="1"
         height="1"
         fill="#000000"
         id="rect219" />
      <rect
         x="0"
         y="20"
         width="1"
         height="1"
         fill="#000000"
         id="rect220" />
      <rect
         x="1"
         y="20"
         width="1"
         height="1"
         fill="#000000"
         id="rect221" />
      <rect
         x="2"
         y="20"
         width="1"
         height="1"
         fill="#000000"
         id="rect222" />
      <rect
         x="3"
         y="20"
         width="1"
         height="1"
         fill="#000000"
         id="rect223" />
      <rect
         x="4"
         y="20"
         width="1"
         height="1"
         fill="#000000"
         id="rect224" />
      <rect
         x="5"
         y="20"
         width="1"
         height="1"
         fill="#000000"
         id="rect225" />
      <rect
         x="6"
         y="20"
         width="1"
         height="1"
         fill="#000000"
         id="rect226" />
      <rect
         x="8"
         y="20"
         width="1"
         height="1"
         fill="#000000"
         id="rect227" />
      <rect
         x="9"
         y="20"
         width="1"
         height="1"
         fill="#000000"
         id="rect228" />
      <rect
         x="10"
         y="20"
         width="1"
         height="1"
         fill="#000000"
         id="rect229" />
      <rect
         x="11"
         y="20"
         width="1"
         height="1"
         fill="#000000"
         id="rect230" />
      <rect
         x="12"
         y="20"
         width="1"
         height="1"
         fill="#000000"
         id="rect231" />
      <rect
         x="13"
         y="20"
         width="1"
         height="1"
         fill="#000000"
         id="rect232" />
      <rect
         x="15"
         y="20"
         width="1"
         height="1"
         fill="#000000"
         id="rect233" />
      <rect
         x="18"
         y="20"
         width="1"
         height="1"
         fill="#000000"
         id="rect234" />
      <rect
         x="19"
         y="20"
         width="1"
         height="1"
         fill="#000000"
         id="rect235" />
    </g>
  </g>
</svg>
