;TYPE=PLATED
;Layer: PTH_Through_Via
;EasyEDA Pro v2.1.49.573a4102.674264, 2024-02-29 22:23:29
;Gerber Generator version 0.3
M48
METRIC,LZ,000.00000
;Hole size 1 = 0.30000 METRIC
T01C0.30000
;Hole size 2 = 0.30002 METRIC
T02C0.30002
%
G05
G90
T01
X00700000Y00900000
X-00412503Y00750006
X00774998Y00624999
X00499999Y00075000
X00537504Y-00862507
X00210000Y-00030000
X-00550000Y00650000
X00270000Y-00240000
X00025000Y-00925008
X-00574999Y00374999
X00030000Y00000000
X01500000Y00800000
X00612505Y00612505
X00420000Y00300000
X00725006Y-00800007
X00000000Y-00350000
X-00562505Y-00312503
X00949998Y00349999
X-00200000Y-00600000
X00025000Y00225000
X00050000Y-00200000
X01012508Y-00737506
X01150000Y00300000
X00700000Y-00100000
X00150000Y00900000
X01500000Y00900000
T02
X-00600000Y-00900000
X-00700000Y-00650000
X-00412503Y-00612505
X00499999Y-00474999
X00550000Y-00400000
X00774998Y00150000
X00250000Y-00500000
X-00100000Y-00549999
X-00799998Y-00150012
X-00750000Y00550000
M30