G04 Layer: DrillDrawingLayer*
G04 EasyEDA Pro v2.1.49.573a4102.674264, 2024-02-29 22:23:28*
G04 Gerber Generator version 0.3*
G04 Scale: 100 percent, Rotated: No, Reflected: No*
G04 Dimensions in millimeters*
G04 Leading zeros omitted, absolute positions, 3 integers and 5 decimals*
%FSLAX35Y35*%
%MOMM*%
%ADD10C,0.254*%
G75*


G04 Image Start*
G36*
G01X-1461465Y451968D02*
G01X-1461465Y448310D01*
G01X-1457808D01*
G01X-1425194D01*
G01Y415696D01*
G01X-1457808D01*
G01Y448310D01*
G01X-1461465D01*
G01Y412090D01*
G01X-1421587D01*
G01Y451968D01*
G37*
G36*
G01X-1461414Y-412039D02*
G01X-1461414Y-415696D01*
G01X-1457808D01*
G01X-1425194D01*
G01Y-448310D01*
G01X-1457808D01*
G01Y-415696D01*
G01X-1461414D01*
G01Y-451917D01*
G01X-1421536D01*
G01Y-412039D01*
G37*
G36*
G01X-1023468Y-412039D02*
G01X-1025500Y-412140D01*
G01X-1027481Y-412445D01*
G01X-1029411Y-412953D01*
G01X-1031240Y-413614D01*
G01X-1032967Y-414477D01*
G01X-1034644Y-415442D01*
G01X-1036168Y-416611D01*
G01X-1037590Y-417881D01*
G01X-1038860Y-419303D01*
G01X-1040028Y-420827D01*
G01X-1040994Y-422504D01*
G01X-1041857Y-424231D01*
G01X-1042518Y-426060D01*
G01X-1043026Y-427990D01*
G01X-1043330Y-429971D01*
G01X-1043432Y-432003D01*
G01X-1040079D01*
G01X-1040028Y-430276D01*
G01X-1039774Y-428650D01*
G01X-1039368Y-427076D01*
G01X-1038809Y-425501D01*
G01X-1038098Y-424078D01*
G01X-1037234Y-422707D01*
G01X-1036320Y-421437D01*
G01X-1035253Y-420268D01*
G01X-1034034Y-419151D01*
G01X-1032764Y-418236D01*
G01X-1031392Y-417373D01*
G01X-1029970Y-416662D01*
G01X-1028395Y-416103D01*
G01X-1026820Y-415696D01*
G01X-1025195Y-415442D01*
G01X-1023468Y-415392D01*
G01X-1021791Y-415442D01*
G01X-1020166Y-415696D01*
G01X-1018540Y-416103D01*
G01X-1017016Y-416662D01*
G01X-1015594Y-417373D01*
G01X-1014222Y-418236D01*
G01X-1012901Y-419151D01*
G01X-1011733Y-420268D01*
G01X-1010666Y-421437D01*
G01X-1009701Y-422707D01*
G01X-1008888Y-424078D01*
G01X-1008177Y-425501D01*
G01X-1007618Y-427076D01*
G01X-1007212Y-428650D01*
G01X-1006958Y-430276D01*
G01X-1006856Y-432003D01*
G01X-1006958Y-433680D01*
G01X-1007212Y-435356D01*
G01X-1007618Y-436931D01*
G01X-1008177Y-438455D01*
G01X-1008888Y-439877D01*
G01X-1009701Y-441249D01*
G01X-1010666Y-442570D01*
G01X-1011733Y-443738D01*
G01X-1012901Y-444805D01*
G01X-1014222Y-445770D01*
G01X-1015594Y-446583D01*
G01X-1017016Y-447294D01*
G01X-1018540Y-447853D01*
G01X-1020166Y-448259D01*
G01X-1021791Y-448513D01*
G01X-1023468Y-448615D01*
G01X-1025195Y-448513D01*
G01X-1026820Y-448259D01*
G01X-1028395Y-447853D01*
G01X-1029970Y-447294D01*
G01X-1031392Y-446583D01*
G01X-1032764Y-445770D01*
G01X-1034034Y-444805D01*
G01X-1035253Y-443738D01*
G01X-1036320Y-442570D01*
G01X-1037234Y-441249D01*
G01X-1038098Y-439877D01*
G01X-1038809Y-438455D01*
G01X-1039368Y-436931D01*
G01X-1039774Y-435356D01*
G01X-1040028Y-433680D01*
G01X-1040079Y-432003D01*
G01X-1043432D01*
G01X-1043330Y-434035D01*
G01X-1043026Y-436016D01*
G01X-1042518Y-437896D01*
G01X-1041857Y-439725D01*
G01X-1040994Y-441503D01*
G01X-1040028Y-443128D01*
G01X-1038860Y-444652D01*
G01X-1037590Y-446075D01*
G01X-1036168Y-447396D01*
G01X-1034644Y-448513D01*
G01X-1032967Y-449529D01*
G01X-1031240Y-450342D01*
G01X-1029411Y-451053D01*
G01X-1027481Y-451510D01*
G01X-1025500Y-451815D01*
G01X-1023468Y-451917D01*
G01X-1021436Y-451815D01*
G01X-1019454Y-451510D01*
G01X-1017575Y-451053D01*
G01X-1015746Y-450342D01*
G01X-1013968Y-449529D01*
G01X-1012342Y-448513D01*
G01X-1010818Y-447396D01*
G01X-1009396Y-446075D01*
G01X-1008075Y-444652D01*
G01X-1006958Y-443128D01*
G01X-1005942Y-441503D01*
G01X-1005129Y-439725D01*
G01X-1004418Y-437896D01*
G01X-1003960Y-436016D01*
G01X-1003656Y-434035D01*
G01X-1003554Y-432003D01*
G01X-1003656Y-429971D01*
G01X-1003960Y-427990D01*
G01X-1004418Y-426060D01*
G01X-1005129Y-424231D01*
G01X-1005942Y-422504D01*
G01X-1006958Y-420827D01*
G01X-1008075Y-419303D01*
G01X-1009396Y-417881D01*
G01X-1010818Y-416611D01*
G01X-1012342Y-415442D01*
G01X-1013968Y-414477D01*
G01X-1015746Y-413614D01*
G01X-1017575Y-412953D01*
G01X-1019454Y-412445D01*
G01X-1021436Y-412140D01*
G37*
G36*
G01X-1023518Y451968D02*
G01X-1025550Y451866D01*
G01X-1027532Y451561D01*
G01X-1029411Y451053D01*
G01X-1031240Y450393D01*
G01X-1033018Y449529D01*
G01X-1034644Y448564D01*
G01X-1036168Y447396D01*
G01X-1037590Y446126D01*
G01X-1038860Y444703D01*
G01X-1040028Y443179D01*
G01X-1041044Y441503D01*
G01X-1041857Y439776D01*
G01X-1042518Y437947D01*
G01X-1043026Y436016D01*
G01X-1043330Y434035D01*
G01X-1043432Y432003D01*
G01X-1040130D01*
G01X-1040028Y433730D01*
G01X-1039774Y435356D01*
G01X-1039368Y436931D01*
G01X-1038809Y438506D01*
G01X-1038098Y439928D01*
G01X-1037285Y441300D01*
G01X-1036320Y442570D01*
G01X-1035253Y443738D01*
G01X-1034034Y444856D01*
G01X-1032764Y445770D01*
G01X-1031392Y446634D01*
G01X-1029970Y447345D01*
G01X-1028446Y447904D01*
G01X-1026820Y448310D01*
G01X-1025195Y448564D01*
G01X-1023518Y448615D01*
G01X-1021791Y448564D01*
G01X-1020166Y448310D01*
G01X-1018540Y447904D01*
G01X-1017016Y447345D01*
G01X-1015594Y446634D01*
G01X-1014222Y445770D01*
G01X-1012952Y444856D01*
G01X-1011733Y443738D01*
G01X-1010666Y442570D01*
G01X-1009701Y441300D01*
G01X-1008888Y439928D01*
G01X-1008177Y438506D01*
G01X-1007618Y436931D01*
G01X-1007212Y435356D01*
G01X-1006958Y433730D01*
G01X-1006856Y432003D01*
G01X-1006958Y430327D01*
G01X-1007212Y428650D01*
G01X-1007618Y427076D01*
G01X-1008177Y425552D01*
G01X-1008888Y424129D01*
G01X-1009701Y422758D01*
G01X-1010666Y421437D01*
G01X-1011733Y420268D01*
G01X-1012952Y419202D01*
G01X-1014222Y418236D01*
G01X-1015594Y417424D01*
G01X-1017016Y416712D01*
G01X-1018540Y416154D01*
G01X-1020166Y415747D01*
G01X-1021791Y415493D01*
G01X-1023518Y415392D01*
G01X-1025195Y415493D01*
G01X-1026820Y415747D01*
G01X-1028446Y416154D01*
G01X-1029970Y416712D01*
G01X-1031392Y417424D01*
G01X-1032764Y418236D01*
G01X-1034034Y419202D01*
G01X-1035253Y420268D01*
G01X-1036320Y421437D01*
G01X-1037285Y422758D01*
G01X-1038098Y424129D01*
G01X-1038809Y425552D01*
G01X-1039368Y427076D01*
G01X-1039774Y428650D01*
G01X-1040028Y430327D01*
G01X-1040130Y432003D01*
G01X-1043432D01*
G01X-1043330Y429971D01*
G01X-1043026Y427990D01*
G01X-1042518Y426110D01*
G01X-1041857Y424282D01*
G01X-1041044Y422504D01*
G01X-1040028Y420878D01*
G01X-1038860Y419354D01*
G01X-1037590Y417932D01*
G01X-1036168Y416611D01*
G01X-1034644Y415493D01*
G01X-1033018Y414477D01*
G01X-1031240Y413664D01*
G01X-1029411Y412953D01*
G01X-1027532Y412496D01*
G01X-1025550Y412191D01*
G01X-1023518Y412090D01*
G01X-1021436Y412191D01*
G01X-1019454Y412496D01*
G01X-1017575Y412953D01*
G01X-1015746Y413664D01*
G01X-1013968Y414477D01*
G01X-1012342Y415493D01*
G01X-1010818Y416611D01*
G01X-1009396Y417932D01*
G01X-1008126Y419354D01*
G01X-1006958Y420878D01*
G01X-1005942Y422504D01*
G01X-1005129Y424282D01*
G01X-1004468Y426110D01*
G01X-1003960Y427990D01*
G01X-1003656Y429971D01*
G01X-1003554Y432003D01*
G01X-1003656Y434035D01*
G01X-1003960Y436016D01*
G01X-1004468Y437947D01*
G01X-1005129Y439776D01*
G01X-1005942Y441503D01*
G01X-1006958Y443179D01*
G01X-1008126Y444703D01*
G01X-1009396Y446126D01*
G01X-1010818Y447396D01*
G01X-1012342Y448564D01*
G01X-1013968Y449529D01*
G01X-1015746Y450393D01*
G01X-1017575Y451053D01*
G01X-1019454Y451561D01*
G01X-1021436Y451866D01*
G37*
G36*
G01X1453032Y-617728D02*
G01X1454963Y-621081D01*
G01X1458824D01*
G01X1487170D01*
G01X1480109Y-633324D01*
G01X1472997Y-645617D01*
G01X1465885Y-633324D01*
G01X1458824Y-621081D01*
G01X1454963D01*
G01X1463040Y-635000D01*
G01X1472997Y-652272D01*
G01X1492910Y-617728D01*
G37*
G36*
G01X1453032Y-363728D02*
G01X1454963Y-367081D01*
G01X1458824D01*
G01X1487170D01*
G01X1480109Y-379324D01*
G01X1472997Y-391617D01*
G01X1465885Y-379324D01*
G01X1458824Y-367081D01*
G01X1454963D01*
G01X1463040Y-381000D01*
G01X1472997Y-398272D01*
G01X1492910Y-363728D01*
G37*
G36*
G01X1453032Y-109728D02*
G01X1454963Y-113081D01*
G01X1458824D01*
G01X1487170D01*
G01X1480109Y-125324D01*
G01X1472997Y-137617D01*
G01X1465885Y-125324D01*
G01X1458824Y-113081D01*
G01X1454963D01*
G01X1463040Y-127000D01*
G01X1472997Y-144272D01*
G01X1492910Y-109728D01*
G37*
G36*
G01X1453032Y144272D02*
G01X1454963Y140919D01*
G01X1458824D01*
G01X1487170D01*
G01X1480109Y128676D01*
G01X1472997Y116383D01*
G01X1465885Y128676D01*
G01X1458824Y140919D01*
G01X1454963D01*
G01X1463040Y127000D01*
G01X1472997Y109728D01*
G01X1492910Y144272D01*
G37*
G36*
G01X1453032Y398272D02*
G01X1454963Y394919D01*
G01X1458824D01*
G01X1487170D01*
G01X1480109Y382676D01*
G01X1472997Y370383D01*
G01X1465885Y382676D01*
G01X1458824Y394919D01*
G01X1454963D01*
G01X1463040Y381000D01*
G01X1472997Y363728D01*
G01X1492910Y398272D01*
G37*
G36*
G01X1453032Y652272D02*
G01X1454963Y648919D01*
G01X1458824D01*
G01X1487170D01*
G01X1480109Y636676D01*
G01X1472997Y624383D01*
G01X1465885Y636676D01*
G01X1458824Y648919D01*
G01X1454963D01*
G01X1463040Y635000D01*
G01X1472997Y617728D01*
G01X1492910Y652272D01*
G37*
G36*
G01X1707083Y-617728D02*
G01X1709014Y-621081D01*
G01X1712824D01*
G01X1741170D01*
G01X1734109Y-633324D01*
G01X1726997Y-645617D01*
G01X1719885Y-633324D01*
G01X1712824Y-621081D01*
G01X1709014D01*
G01X1726997Y-652272D01*
G01X1736954Y-635000D01*
G01X1746961Y-617728D01*
G37*
G36*
G01X1707083Y-363728D02*
G01X1709014Y-367081D01*
G01X1712824D01*
G01X1741170D01*
G01X1734109Y-379324D01*
G01X1726997Y-391617D01*
G01X1719885Y-379324D01*
G01X1712824Y-367081D01*
G01X1709014D01*
G01X1726997Y-398272D01*
G01X1736954Y-381000D01*
G01X1746961Y-363728D01*
G37*
G36*
G01X1707083Y-109728D02*
G01X1709014Y-113081D01*
G01X1712824D01*
G01X1741170D01*
G01X1734109Y-125324D01*
G01X1726997Y-137617D01*
G01X1719885Y-125324D01*
G01X1712824Y-113081D01*
G01X1709014D01*
G01X1726997Y-144272D01*
G01X1746910Y-109728D01*
G37*
G36*
G01X1707083Y144272D02*
G01X1709014Y140919D01*
G01X1712824D01*
G01X1741170D01*
G01X1734109Y128676D01*
G01X1726997Y116383D01*
G01X1719885Y128676D01*
G01X1712824Y140919D01*
G01X1709014D01*
G01X1726997Y109728D01*
G01X1746910Y144272D01*
G37*
G36*
G01X1707083Y398272D02*
G01X1709014Y394919D01*
G01X1712824D01*
G01X1741170D01*
G01X1734109Y382676D01*
G01X1726997Y370383D01*
G01X1719885Y382676D01*
G01X1712824Y394919D01*
G01X1709014D01*
G01X1726997Y363728D01*
G01X1746910Y398272D01*
G37*
G36*
G01X1707083Y652272D02*
G01X1709014Y648919D01*
G01X1712824D01*
G01X1741170D01*
G01X1734109Y636676D01*
G01X1726997Y624383D01*
G01X1719885Y636676D01*
G01X1712824Y648919D01*
G01X1709014D01*
G01X1726997Y617728D01*
G01X1746910Y652272D01*
G37*
G36*
G01X-599999Y-876960D02*
G01X-605739Y-890016D01*
G01X-619963Y-888492D01*
G01X-611530Y-900024D01*
G01X-616864Y-907288D01*
G01X-612597D01*
G01X-608736Y-902005D01*
G01X-607263Y-900024D01*
G01X-608736Y-897992D01*
G01X-612597Y-892708D01*
G01X-606146Y-893420D01*
G01X-603656Y-893674D01*
G01X-599999Y-885444D01*
G01X-596341Y-893674D01*
G01X-593903Y-893420D01*
G01X-587400Y-892708D01*
G01X-591261Y-897992D01*
G01X-592734Y-900024D01*
G01X-591261Y-902005D01*
G01X-587400Y-907288D01*
G01X-593852Y-906577D01*
G01X-596341Y-906323D01*
G01X-599999Y-914552D01*
G01X-603656Y-906323D01*
G01X-606146Y-906577D01*
G01X-612597Y-907288D01*
G01X-616864D01*
G01X-619963Y-911504D01*
G01X-605739Y-909980D01*
G01X-599999Y-923036D01*
G01X-594258Y-909980D01*
G01X-580085Y-911504D01*
G01X-588467Y-900024D01*
G01X-580085Y-888492D01*
G01X-594258Y-890016D01*
G37*
G36*
G01X-700024Y-626974D02*
G01X-705764Y-640029D01*
G01X-719938Y-638505D01*
G01X-711505Y-649986D01*
G01X-716839Y-657301D01*
G01X-712622D01*
G01X-708762Y-652018D01*
G01X-707288Y-649986D01*
G01X-708762Y-648005D01*
G01X-712622Y-642722D01*
G01X-706120Y-643433D01*
G01X-703631Y-643687D01*
G01X-702615Y-641401D01*
G01X-700024Y-635457D01*
G01X-696366Y-643687D01*
G01X-693877Y-643433D01*
G01X-687375Y-642722D01*
G01X-691236Y-648005D01*
G01X-692709Y-649986D01*
G01X-691236Y-652018D01*
G01X-687375Y-657301D01*
G01X-693877Y-656590D01*
G01X-696366Y-656285D01*
G01X-697382Y-658571D01*
G01X-700024Y-664566D01*
G01X-702615Y-658571D01*
G01X-703631Y-656285D01*
G01X-706120Y-656590D01*
G01X-712622Y-657301D01*
G01X-716839D01*
G01X-719938Y-661518D01*
G01X-705764Y-659994D01*
G01X-700024Y-672998D01*
G01X-694233Y-659994D01*
G01X-680060Y-661518D01*
G01X-688492Y-649986D01*
G01X-680060Y-638505D01*
G01X-694233Y-640029D01*
G37*
G36*
G01X-412496Y-589483D02*
G01X-418236Y-602539D01*
G01X-432460Y-601015D01*
G01X-424028Y-612496D01*
G01X-429362Y-619811D01*
G01X-425094D01*
G01X-421284Y-614528D01*
G01X-419811Y-612496D01*
G01X-421284Y-610514D01*
G01X-425094Y-605231D01*
G01X-418643Y-605942D01*
G01X-416154Y-606196D01*
G01X-415138Y-603910D01*
G01X-412496Y-597916D01*
G01X-409854Y-603910D01*
G01X-408889Y-606196D01*
G01X-406400Y-605942D01*
G01X-399898Y-605231D01*
G01X-403758Y-610514D01*
G01X-405232Y-612496D01*
G01X-403758Y-614528D01*
G01X-399898Y-619811D01*
G01X-406400Y-619100D01*
G01X-408838Y-618795D01*
G01X-409854Y-621081D01*
G01X-412496Y-627075D01*
G01X-415138Y-621081D01*
G01X-416154Y-618795D01*
G01X-418643Y-619100D01*
G01X-425094Y-619811D01*
G01X-429362D01*
G01X-432460Y-624027D01*
G01X-418236Y-622452D01*
G01X-412496Y-635508D01*
G01X-406756Y-622452D01*
G01X-392582Y-624027D01*
G01X-401015Y-612496D01*
G01X-392582Y-601015D01*
G01X-406756Y-602539D01*
G37*
G36*
G01X500024Y-451968D02*
G01X494233Y-465023D01*
G01X480060Y-463499D01*
G01X488493Y-474980D01*
G01X483159Y-482295D01*
G01X487375D01*
G01X491236Y-477012D01*
G01X492709Y-474980D01*
G01X491236Y-472999D01*
G01X487375Y-467716D01*
G01X493878Y-468427D01*
G01X496367Y-468681D01*
G01X500024Y-460451D01*
G01X502615Y-466395D01*
G01X503631Y-468681D01*
G01X506120Y-468427D01*
G01X512623Y-467716D01*
G01X508762Y-472999D01*
G01X507289Y-474980D01*
G01X508762Y-477012D01*
G01X512623Y-482295D01*
G01X506120Y-481584D01*
G01X503631Y-481330D01*
G01X502615Y-483616D01*
G01X500024Y-489560D01*
G01X496367Y-481330D01*
G01X493878Y-481584D01*
G01X487375Y-482295D01*
G01X483159D01*
G01X480060Y-486512D01*
G01X494233Y-484988D01*
G01X500024Y-498043D01*
G01X505765Y-484988D01*
G01X519938Y-486512D01*
G01X511505Y-474980D01*
G01X519938Y-463499D01*
G01X505765Y-465023D01*
G37*
G36*
G01X550012Y-376987D02*
G01X544271Y-390042D01*
G01X530047Y-388468D01*
G01X538480Y-399999D01*
G01X533146Y-407264D01*
G01X537362D01*
G01X541223Y-402031D01*
G01X542696Y-399999D01*
G01X541223Y-397967D01*
G01X537362Y-392735D01*
G01X543865Y-393446D01*
G01X546354Y-393700D01*
G01X547370Y-391414D01*
G01X550012Y-385420D01*
G01X552653Y-391414D01*
G01X553618Y-393700D01*
G01X556108Y-393446D01*
G01X562610Y-392735D01*
G01X558749Y-397967D01*
G01X557276Y-399999D01*
G01X558749Y-402031D01*
G01X562610Y-407264D01*
G01X556108Y-406603D01*
G01X553618Y-406298D01*
G01X552653Y-408584D01*
G01X550012Y-414579D01*
G01X547370Y-408584D01*
G01X546354Y-406298D01*
G01X543865Y-406603D01*
G01X537362Y-407264D01*
G01X533146D01*
G01X530047Y-411531D01*
G01X544220Y-409956D01*
G01X550012Y-423012D01*
G01X555752Y-409956D01*
G01X569925Y-411531D01*
G01X561492Y-399999D01*
G01X569925Y-388468D01*
G01X555752Y-390042D01*
G37*
G36*
G01X775005Y173025D02*
G01X769264Y159969D01*
G01X755040Y161493D01*
G01X763473Y150012D01*
G01X758139Y142697D01*
G01X762406D01*
G01X766216Y147980D01*
G01X767690Y150012D01*
G01X766216Y151994D01*
G01X762406Y157277D01*
G01X768858Y156566D01*
G01X771347Y156312D01*
G01X772363Y158598D01*
G01X775005Y164592D01*
G01X777646Y158598D01*
G01X778662Y156312D01*
G01X781101Y156566D01*
G01X787603Y157277D01*
G01X783742Y151994D01*
G01X782269Y150012D01*
G01X783742Y147980D01*
G01X787603Y142697D01*
G01X781101Y143408D01*
G01X778662Y143713D01*
G01X777646Y141427D01*
G01X775005Y135433D01*
G01X772363Y141427D01*
G01X771347Y143713D01*
G01X768858Y143408D01*
G01X762406Y142697D01*
G01X758139D01*
G01X755040Y138481D01*
G01X769264Y140056D01*
G01X775005Y127000D01*
G01X780745Y140056D01*
G01X794918Y138481D01*
G01X786486Y150012D01*
G01X794918Y161493D01*
G01X780745Y159969D01*
G37*
G36*
G01X700024Y923036D02*
G01X694233Y909980D01*
G01X680060Y911504D01*
G01X688492Y900024D01*
G01X683158Y892708D01*
G01X687375D01*
G01X691236Y897992D01*
G01X692709Y900024D01*
G01X691236Y902005D01*
G01X687375Y907288D01*
G01X693877Y906577D01*
G01X696366Y906323D01*
G01X700024Y914552D01*
G01X702615Y908609D01*
G01X703631Y906323D01*
G01X706120Y906577D01*
G01X712622Y907288D01*
G01X708762Y902005D01*
G01X707288Y900024D01*
G01X708762Y897992D01*
G01X712622Y892708D01*
G01X706120Y893420D01*
G01X703631Y893674D01*
G01X702615Y891388D01*
G01X700024Y885444D01*
G01X696366Y893674D01*
G01X693877Y893420D01*
G01X687375Y892708D01*
G01X683158D01*
G01X680060Y888492D01*
G01X694233Y890016D01*
G01X700024Y876960D01*
G01X705764Y890016D01*
G01X719938Y888492D01*
G01X711505Y900024D01*
G01X719938Y911504D01*
G01X705764Y909980D01*
G37*
G36*
G01X-412496Y773024D02*
G01X-418236Y759968D01*
G01X-432460Y761492D01*
G01X-424028Y750011D01*
G01X-429362Y742696D01*
G01X-425094D01*
G01X-421284Y747979D01*
G01X-419811Y750011D01*
G01X-421284Y752043D01*
G01X-425094Y757276D01*
G01X-418643Y756564D01*
G01X-416154Y756310D01*
G01X-415138Y758596D01*
G01X-412496Y764591D01*
G01X-409854Y758596D01*
G01X-408889Y756310D01*
G01X-406400Y756564D01*
G01X-399898Y757276D01*
G01X-403758Y752043D01*
G01X-405232Y750011D01*
G01X-403758Y747979D01*
G01X-399898Y742696D01*
G01X-406400Y743407D01*
G01X-408838Y743712D01*
G01X-409854Y741426D01*
G01X-412496Y735432D01*
G01X-415138Y741426D01*
G01X-416154Y743712D01*
G01X-418643Y743407D01*
G01X-425094Y742696D01*
G01X-429362D01*
G01X-432460Y738480D01*
G01X-418236Y740054D01*
G01X-412496Y726999D01*
G01X-406756Y740054D01*
G01X-392582Y738480D01*
G01X-401015Y750011D01*
G01X-392582Y761492D01*
G01X-406756Y759968D01*
G37*
G36*
G01X249987Y-476961D02*
G01X244246Y-490017D01*
G01X230073Y-488493D01*
G01X238506Y-500024D01*
G01X233172Y-507289D01*
G01X237388D01*
G01X241249Y-502006D01*
G01X242722Y-500024D01*
G01X241249Y-497992D01*
G01X237388Y-492709D01*
G01X243891Y-493420D01*
G01X246380Y-493674D01*
G01X247345Y-491388D01*
G01X249987Y-485445D01*
G01X253644Y-493674D01*
G01X256134Y-493420D01*
G01X262636Y-492709D01*
G01X258775Y-497992D01*
G01X257302Y-500024D01*
G01X258775Y-502006D01*
G01X262636Y-507289D01*
G01X256134Y-506578D01*
G01X253644Y-506324D01*
G01X249987Y-514553D01*
G01X247345Y-508610D01*
G01X246380Y-506324D01*
G01X243891Y-506578D01*
G01X237388Y-507289D01*
G01X233172D01*
G01X230073Y-511505D01*
G01X244246Y-509981D01*
G01X249987Y-523037D01*
G01X255778Y-509981D01*
G01X269951Y-511505D01*
G01X261518Y-500024D01*
G01X269951Y-488493D01*
G01X255778Y-490017D01*
G37*
G36*
G01X-99974Y-526999D02*
G01X-105766Y-540055D01*
G01X-119939Y-538480D01*
G01X-111506Y-550012D01*
G01X-116840Y-557276D01*
G01X-112624D01*
G01X-108763Y-551993D01*
G01X-107290Y-550012D01*
G01X-108763Y-547980D01*
G01X-112624Y-542696D01*
G01X-106121Y-543408D01*
G01X-103632Y-543712D01*
G01X-102616Y-541426D01*
G01X-99974Y-535432D01*
G01X-97384Y-541426D01*
G01X-96368Y-543712D01*
G01X-93878Y-543408D01*
G01X-87376Y-542696D01*
G01X-91237Y-547980D01*
G01X-92710Y-550012D01*
G01X-91237Y-551993D01*
G01X-87376Y-557276D01*
G01X-93878Y-556565D01*
G01X-96368Y-556311D01*
G01X-97384Y-558597D01*
G01X-99974Y-564591D01*
G01X-102616Y-558597D01*
G01X-103632Y-556311D01*
G01X-106121Y-556565D01*
G01X-112624Y-557276D01*
G01X-116840D01*
G01X-119939Y-561492D01*
G01X-105766Y-559968D01*
G01X-99974Y-573024D01*
G01X-94234Y-559968D01*
G01X-80061Y-561492D01*
G01X-88494Y-550012D01*
G01X-80061Y-538480D01*
G01X-94234Y-540055D01*
G37*
G36*
G01X-799998Y-127000D02*
G01X-805739Y-140056D01*
G01X-819912Y-138481D01*
G01X-811530Y-150012D01*
G01X-816813Y-157277D01*
G01X-812597D01*
G01X-808736Y-152044D01*
G01X-807263Y-150012D01*
G01X-808736Y-147980D01*
G01X-812597Y-142748D01*
G01X-806145Y-143408D01*
G01X-803656Y-143713D01*
G01X-802640Y-141427D01*
G01X-799998Y-135433D01*
G01X-797357Y-141427D01*
G01X-796341Y-143713D01*
G01X-793852Y-143459D01*
G01X-787400Y-142748D01*
G01X-791261Y-147980D01*
G01X-792734Y-150012D01*
G01X-791261Y-152044D01*
G01X-787400Y-157277D01*
G01X-793852Y-156616D01*
G01X-796341Y-156312D01*
G01X-797357Y-158598D01*
G01X-799998Y-164592D01*
G01X-802640Y-158598D01*
G01X-803656Y-156312D01*
G01X-806145Y-156616D01*
G01X-812597Y-157277D01*
G01X-816813D01*
G01X-819912Y-161544D01*
G01X-805739Y-159969D01*
G01X-799998Y-173025D01*
G01X-794258Y-159969D01*
G01X-780034Y-161544D01*
G01X-788467Y-150012D01*
G01X-780034Y-138481D01*
G01X-794258Y-140056D01*
G37*
G36*
G01X-750011Y573024D02*
G01X-755752Y559968D01*
G01X-769925Y561492D01*
G01X-761492Y550012D01*
G01X-766826Y542696D01*
G01X-762610D01*
G01X-758749Y547980D01*
G01X-757276Y550012D01*
G01X-758749Y551993D01*
G01X-762610Y557276D01*
G01X-756107Y556565D01*
G01X-753618Y556311D01*
G01X-752653Y558597D01*
G01X-750011Y564591D01*
G01X-747370Y558597D01*
G01X-746354Y556311D01*
G01X-743864Y556565D01*
G01X-737362Y557276D01*
G01X-741223Y551993D01*
G01X-742696Y550012D01*
G01X-741223Y547980D01*
G01X-737362Y542696D01*
G01X-743864Y543408D01*
G01X-746354Y543712D01*
G01X-747370Y541426D01*
G01X-750011Y535432D01*
G01X-752653Y541426D01*
G01X-753618Y543712D01*
G01X-756107Y543408D01*
G01X-762610Y542696D01*
G01X-766826D01*
G01X-769925Y538480D01*
G01X-755752Y540055D01*
G01X-750011Y526999D01*
G01X-744220Y540055D01*
G01X-730047Y538480D01*
G01X-738480Y550012D01*
G01X-730047Y561492D01*
G01X-744220Y559968D01*
G37*
G36*
G01X775005Y648005D02*
G01X769264Y634949D01*
G01X755040Y636524D01*
G01X763473Y624992D01*
G01X758139Y617728D01*
G01X762406D01*
G01X766216Y622960D01*
G01X767690Y624992D01*
G01X766216Y627024D01*
G01X762406Y632308D01*
G01X768858Y631596D01*
G01X771347Y631292D01*
G01X772363Y633578D01*
G01X775005Y639572D01*
G01X777646Y633578D01*
G01X778662Y631292D01*
G01X781101Y631596D01*
G01X787603Y632257D01*
G01X783742Y627024D01*
G01X782269Y624992D01*
G01X783742Y622960D01*
G01X787603Y617728D01*
G01X781101Y618439D01*
G01X778662Y618693D01*
G01X777646Y616407D01*
G01X775005Y610413D01*
G01X772363Y616407D01*
G01X771347Y618693D01*
G01X768858Y618439D01*
G01X762406Y617728D01*
G01X758139D01*
G01X755040Y613512D01*
G01X769264Y615036D01*
G01X775005Y601980D01*
G01X780745Y615036D01*
G01X794918Y613512D01*
G01X786486Y624992D01*
G01X794918Y636524D01*
G01X780745Y634949D01*
G37*
G36*
G01X500024Y98044D02*
G01X494233Y84988D01*
G01X480060Y86512D01*
G01X488493Y74981D01*
G01X483159Y67716D01*
G01X487375D01*
G01X491236Y73000D01*
G01X492709Y74981D01*
G01X491236Y77013D01*
G01X487375Y82296D01*
G01X493878Y81585D01*
G01X496367Y81331D01*
G01X500024Y89560D01*
G01X502615Y83617D01*
G01X503631Y81331D01*
G01X506120Y81585D01*
G01X512623Y82296D01*
G01X508762Y77013D01*
G01X507289Y74981D01*
G01X508762Y73000D01*
G01X512623Y67716D01*
G01X506120Y68428D01*
G01X503631Y68682D01*
G01X502615Y66396D01*
G01X500024Y60452D01*
G01X496367Y68682D01*
G01X493878Y68428D01*
G01X487375Y67716D01*
G01X483159D01*
G01X480060Y63500D01*
G01X494233Y65024D01*
G01X500024Y51968D01*
G01X505765Y65024D01*
G01X519938Y63500D01*
G01X511505Y74981D01*
G01X519938Y86512D01*
G01X505765Y84988D01*
G37*
G36*
G01X537515Y-839470D02*
G01X531774Y-852526D01*
G01X517550Y-851002D01*
G01X525983Y-862482D01*
G01X520649Y-869798D01*
G01X524866D01*
G01X528726Y-864514D01*
G01X530200Y-862482D01*
G01X528726Y-860501D01*
G01X524866Y-855218D01*
G01X531368Y-855929D01*
G01X533857Y-856183D01*
G01X537515Y-847954D01*
G01X540156Y-853897D01*
G01X541122Y-856183D01*
G01X543611Y-855929D01*
G01X550113Y-855218D01*
G01X546252Y-860501D01*
G01X544779Y-862482D01*
G01X546252Y-864514D01*
G01X550113Y-869798D01*
G01X543611Y-869086D01*
G01X541172Y-868832D01*
G01X537515Y-877062D01*
G01X533857Y-868832D01*
G01X531368Y-869086D01*
G01X524866Y-869798D01*
G01X520649D01*
G01X517550Y-874014D01*
G01X531724Y-872490D01*
G01X537515Y-885546D01*
G01X543255Y-872490D01*
G01X557428Y-874014D01*
G01X548996Y-862482D01*
G01X557428Y-851002D01*
G01X543255Y-852526D01*
G37*
G36*
G01X210007Y-6960D02*
G01X204267Y-20015D01*
G01X190043Y-18491D01*
G01X198476Y-30023D01*
G01X193142Y-37287D01*
G01X197409D01*
G01X201219Y-32004D01*
G01X202692Y-30023D01*
G01X201219Y-27991D01*
G01X197409Y-22708D01*
G01X203860Y-23419D01*
G01X206350Y-23673D01*
G01X210007Y-15443D01*
G01X212649Y-21387D01*
G01X213614Y-23673D01*
G01X216103Y-23419D01*
G01X222606Y-22708D01*
G01X218745Y-27991D01*
G01X217272Y-30023D01*
G01X218745Y-32004D01*
G01X222606Y-37287D01*
G01X216103Y-36576D01*
G01X213665Y-36322D01*
G01X210007Y-44552D01*
G01X206350Y-36322D01*
G01X203860Y-36576D01*
G01X197409Y-37287D01*
G01X193142D01*
G01X190043Y-41504D01*
G01X204267Y-39980D01*
G01X210007Y-53035D01*
G01X215748Y-39980D01*
G01X229921Y-41504D01*
G01X221488Y-30023D01*
G01X229921Y-18491D01*
G01X215748Y-20015D01*
G37*
G36*
G01X-550012Y672998D02*
G01X-555752Y659994D01*
G01X-569925Y661518D01*
G01X-561492Y649986D01*
G01X-566826Y642722D01*
G01X-562610D01*
G01X-558749Y648005D01*
G01X-557276Y649986D01*
G01X-558749Y652018D01*
G01X-562610Y657301D01*
G01X-556108Y656590D01*
G01X-553618Y656285D01*
G01X-552653Y658571D01*
G01X-550012Y664566D01*
G01X-547370Y658571D01*
G01X-546354Y656285D01*
G01X-543865Y656590D01*
G01X-537362Y657301D01*
G01X-541223Y652018D01*
G01X-542696Y649986D01*
G01X-541223Y648005D01*
G01X-537362Y642722D01*
G01X-543865Y643433D01*
G01X-546354Y643687D01*
G01X-550012Y635457D01*
G01X-552653Y641401D01*
G01X-553618Y643687D01*
G01X-556108Y643433D01*
G01X-562610Y642722D01*
G01X-566826D01*
G01X-569925Y638505D01*
G01X-555752Y640029D01*
G01X-550012Y626974D01*
G01X-544220Y640029D01*
G01X-530047Y638505D01*
G01X-538480Y649986D01*
G01X-530047Y661518D01*
G01X-544220Y659994D01*
G37*
G36*
G01X270002Y-216967D02*
G01X264262Y-230022D01*
G01X250038Y-228498D01*
G01X258470Y-239979D01*
G01X253136Y-247294D01*
G01X257404D01*
G01X261264Y-242011D01*
G01X262738Y-239979D01*
G01X261264Y-237998D01*
G01X257404Y-232715D01*
G01X263855Y-233426D01*
G01X266344Y-233680D01*
G01X270002Y-225450D01*
G01X273660Y-233680D01*
G01X276098Y-233426D01*
G01X282600Y-232715D01*
G01X278740Y-237998D01*
G01X277266Y-239979D01*
G01X278740Y-242011D01*
G01X282600Y-247294D01*
G01X276149Y-246583D01*
G01X273660Y-246329D01*
G01X270002Y-254559D01*
G01X266344Y-246329D01*
G01X263855Y-246583D01*
G01X257404Y-247294D01*
G01X253136D01*
G01X250038Y-251511D01*
G01X264262Y-249987D01*
G01X270002Y-263042D01*
G01X275742Y-249987D01*
G01X289916Y-251511D01*
G01X281534Y-239979D01*
G01X289916Y-228498D01*
G01X275742Y-230022D01*
G37*
G36*
G01X24994Y-902005D02*
G01X19253Y-915060D01*
G01X5080Y-913486D01*
G01X13513Y-925017D01*
G01X8179Y-932282D01*
G01X12395D01*
G01X16256Y-926998D01*
G01X17729Y-925017D01*
G01X16256Y-922985D01*
G01X12395Y-917702D01*
G01X18898Y-918413D01*
G01X21336Y-918718D01*
G01X22352Y-916432D01*
G01X24994Y-910438D01*
G01X27635Y-916432D01*
G01X28651Y-918718D01*
G01X31140Y-918413D01*
G01X37592Y-917702D01*
G01X33731Y-922985D01*
G01X32309Y-925017D01*
G01X33782Y-926998D01*
G01X37592Y-932282D01*
G01X31140Y-931570D01*
G01X28651Y-931316D01*
G01X27635Y-933602D01*
G01X24994Y-939597D01*
G01X22352Y-933602D01*
G01X21336Y-931316D01*
G01X18898Y-931570D01*
G01X12395Y-932282D01*
G01X8179D01*
G01X5080Y-936498D01*
G01X19253Y-934974D01*
G01X24994Y-948030D01*
G01X30734Y-934974D01*
G01X44958Y-936498D01*
G01X36525Y-925017D01*
G01X44958Y-913486D01*
G01X30734Y-915060D01*
G37*
G36*
G01X-575005Y398018D02*
G01X-580746Y384962D01*
G01X-594919Y386486D01*
G01X-586486Y375006D01*
G01X-591820Y367690D01*
G01X-587604D01*
G01X-583743Y372974D01*
G01X-582270Y375006D01*
G01X-583743Y377038D01*
G01X-587604Y382270D01*
G01X-581101Y381559D01*
G01X-578663Y381305D01*
G01X-577647Y383591D01*
G01X-575005Y389585D01*
G01X-572364Y383591D01*
G01X-571348Y381305D01*
G01X-568858Y381559D01*
G01X-562407Y382270D01*
G01X-566268Y376987D01*
G01X-567690Y375006D01*
G01X-566217Y372974D01*
G01X-562407Y367690D01*
G01X-568858Y368402D01*
G01X-571348Y368706D01*
G01X-572364Y366420D01*
G01X-575005Y360426D01*
G01X-577647Y366420D01*
G01X-578663Y368706D01*
G01X-581101Y368402D01*
G01X-587604Y367690D01*
G01X-591820D01*
G01X-594919Y363474D01*
G01X-580746Y365049D01*
G01X-575005Y351993D01*
G01X-569265Y365049D01*
G01X-555041Y363474D01*
G01X-563474Y375006D01*
G01X-555041Y386486D01*
G01X-569265Y384962D01*
G37*
G36*
G01X30023Y23012D02*
G01X24232Y9957D01*
G01X10058Y11532D01*
G01X18491Y0D01*
G01X13157Y-7264D01*
G01X17374D01*
G01X21234Y-2032D01*
G01X22708Y0D01*
G01X21234Y2032D01*
G01X17374Y7264D01*
G01X23876Y6604D01*
G01X26365Y6299D01*
G01X27381Y8585D01*
G01X30023Y14580D01*
G01X32614Y8585D01*
G01X33630Y6299D01*
G01X36119Y6553D01*
G01X42621Y7264D01*
G01X38760Y2032D01*
G01X37287Y0D01*
G01X38760Y-2032D01*
G01X42621Y-7264D01*
G01X36119Y-6604D01*
G01X33630Y-6299D01*
G01X32614Y-8585D01*
G01X30023Y-14580D01*
G01X27381Y-8585D01*
G01X26365Y-6299D01*
G01X23876Y-6604D01*
G01X17374Y-7264D01*
G01X13157D01*
G01X10058Y-11532D01*
G01X24232Y-9957D01*
G01X30023Y-23012D01*
G01X35763Y-9957D01*
G01X49936Y-11532D01*
G01X41504Y0D01*
G01X49936Y11532D01*
G01X35763Y9957D01*
G37*
G36*
G01X1500022Y823011D02*
G01X1494231Y809955D01*
G01X1480058Y811530D01*
G01X1488491Y799998D01*
G01X1483157Y792734D01*
G01X1487373D01*
G01X1491234Y797966D01*
G01X1492707Y799998D01*
G01X1491234Y802030D01*
G01X1487373Y807263D01*
G01X1493876Y806602D01*
G01X1496365Y806298D01*
G01X1497381Y808584D01*
G01X1500022Y814578D01*
G01X1502613Y808584D01*
G01X1503629Y806298D01*
G01X1506118Y806552D01*
G01X1512621Y807263D01*
G01X1508760Y802030D01*
G01X1507287Y799998D01*
G01X1508760Y797966D01*
G01X1512621Y792734D01*
G01X1506118Y793445D01*
G01X1503629Y793699D01*
G01X1502613Y791413D01*
G01X1500022Y785419D01*
G01X1497381Y791413D01*
G01X1496365Y793699D01*
G01X1493876Y793445D01*
G01X1487373Y792734D01*
G01X1483157D01*
G01X1480058Y788467D01*
G01X1494231Y790042D01*
G01X1500022Y776986D01*
G01X1505763Y790042D01*
G01X1519936Y788467D01*
G01X1511503Y799998D01*
G01X1519936Y811530D01*
G01X1505763Y809955D01*
G37*
G36*
G01X612496Y635508D02*
G01X606755Y622452D01*
G01X592582Y624027D01*
G01X601015Y612496D01*
G01X595681Y605231D01*
G01X599897D01*
G01X603758Y610514D01*
G01X605231Y612496D01*
G01X603758Y614528D01*
G01X599897Y619811D01*
G01X606400Y619100D01*
G01X608838Y618795D01*
G01X609854Y621081D01*
G01X612496Y627075D01*
G01X615137Y621081D01*
G01X616153Y618795D01*
G01X618642Y619100D01*
G01X625094Y619811D01*
G01X621284Y614528D01*
G01X619811Y612496D01*
G01X621284Y610514D01*
G01X625145Y605231D01*
G01X618642Y605942D01*
G01X616153Y606196D01*
G01X615137Y603910D01*
G01X612496Y597916D01*
G01X609854Y603910D01*
G01X608838Y606196D01*
G01X606400Y605942D01*
G01X599897Y605231D01*
G01X595681D01*
G01X592582Y601015D01*
G01X606755Y602539D01*
G01X612496Y589483D01*
G01X618287Y602539D01*
G01X632460Y601015D01*
G01X624027Y612496D01*
G01X632460Y624027D01*
G01X618287Y622452D01*
G37*
G36*
G01X420014Y323037D02*
G01X414223Y309982D01*
G01X400050Y311506D01*
G01X408483Y300025D01*
G01X403149Y292710D01*
G01X407365D01*
G01X411226Y297993D01*
G01X412699Y300025D01*
G01X411226Y302006D01*
G01X407365Y307289D01*
G01X413868Y306578D01*
G01X416357Y306324D01*
G01X420014Y314554D01*
G01X422656Y308610D01*
G01X423621Y306324D01*
G01X426110Y306578D01*
G01X432613Y307289D01*
G01X428752Y302006D01*
G01X427279Y300025D01*
G01X428752Y297993D01*
G01X432613Y292710D01*
G01X426110Y293421D01*
G01X423621Y293675D01*
G01X422656Y291389D01*
G01X420014Y285445D01*
G01X416357Y293675D01*
G01X413868Y293421D01*
G01X407365Y292710D01*
G01X403149D01*
G01X400050Y288493D01*
G01X414223Y290017D01*
G01X420014Y276962D01*
G01X425755Y290017D01*
G01X439928Y288493D01*
G01X431495Y300025D01*
G01X439928Y311506D01*
G01X425755Y309982D01*
G37*
G36*
G01X725018Y-776986D02*
G01X719277Y-790042D01*
G01X705053Y-788518D01*
G01X713486Y-799998D01*
G01X708152Y-807314D01*
G01X712368D01*
G01X716229Y-802030D01*
G01X717702Y-799998D01*
G01X716229Y-797966D01*
G01X712368Y-792734D01*
G01X718871Y-793445D01*
G01X721360Y-793699D01*
G01X722376Y-791413D01*
G01X725018Y-785419D01*
G01X727659Y-791413D01*
G01X728624Y-793699D01*
G01X731114Y-793445D01*
G01X737616Y-792734D01*
G01X733755Y-798017D01*
G01X732282Y-799998D01*
G01X733755Y-802030D01*
G01X737616Y-807314D01*
G01X731114Y-806602D01*
G01X728624Y-806298D01*
G01X727659Y-808584D01*
G01X725018Y-814578D01*
G01X722376Y-808584D01*
G01X721360Y-806298D01*
G01X718871Y-806602D01*
G01X712368Y-807314D01*
G01X708152D01*
G01X705053Y-811530D01*
G01X719226Y-809955D01*
G01X725018Y-823011D01*
G01X730758Y-809955D01*
G01X744931Y-811530D01*
G01X736498Y-799998D01*
G01X744931Y-788518D01*
G01X730758Y-790042D01*
G37*
G36*
G01X0Y-327000D02*
G01X-5740Y-340055D01*
G01X-19914Y-338480D01*
G01X-11532Y-350012D01*
G01X-16815Y-357276D01*
G01X-12598D01*
G01X-8738Y-351993D01*
G01X-7264Y-350012D01*
G01X-8738Y-347980D01*
G01X-12598Y-342697D01*
G01X-6147Y-343408D01*
G01X-3658Y-343713D01*
G01X-2642Y-341427D01*
G01X0Y-335432D01*
G01X2642Y-341427D01*
G01X3658Y-343713D01*
G01X6147Y-343408D01*
G01X12598Y-342697D01*
G01X8738Y-347980D01*
G01X7264Y-350012D01*
G01X8738Y-351993D01*
G01X12598Y-357276D01*
G01X6147Y-356565D01*
G01X3658Y-356311D01*
G01X2642Y-358597D01*
G01X0Y-364592D01*
G01X-2642Y-358597D01*
G01X-3658Y-356311D01*
G01X-6147Y-356565D01*
G01X-12598Y-357276D01*
G01X-16815D01*
G01X-19914Y-361493D01*
G01X-5740Y-359969D01*
G01X0Y-373024D01*
G01X5740Y-359969D01*
G01X19914Y-361493D01*
G01X11532Y-350012D01*
G01X19914Y-338480D01*
G01X5740Y-340055D01*
G37*
G36*
G01X-562508Y-289458D02*
G01X-568249Y-302514D01*
G01X-582422Y-300990D01*
G01X-574040Y-312522D01*
G01X-579323Y-319786D01*
G01X-575107D01*
G01X-571246Y-314503D01*
G01X-569773Y-312522D01*
G01X-571246Y-310490D01*
G01X-575107Y-305206D01*
G01X-568655Y-305918D01*
G01X-566166Y-306172D01*
G01X-562508Y-297942D01*
G01X-558851Y-306172D01*
G01X-556362Y-305918D01*
G01X-549910Y-305206D01*
G01X-553771Y-310490D01*
G01X-555244Y-312522D01*
G01X-553771Y-314503D01*
G01X-549910Y-319786D01*
G01X-556362Y-319075D01*
G01X-558851Y-318821D01*
G01X-562508Y-327050D01*
G01X-566166Y-318821D01*
G01X-568655Y-319075D01*
G01X-575107Y-319786D01*
G01X-579323D01*
G01X-582422Y-324002D01*
G01X-568249Y-322478D01*
G01X-562508Y-335534D01*
G01X-556768Y-322478D01*
G01X-542544Y-324002D01*
G01X-550977Y-312522D01*
G01X-542544Y-300990D01*
G01X-556768Y-302514D01*
G37*
G36*
G01X950011Y373024D02*
G01X944220Y359969D01*
G01X930046Y361493D01*
G01X938479Y350012D01*
G01X933145Y342697D01*
G01X937362D01*
G01X941222Y347980D01*
G01X942696Y350012D01*
G01X941222Y351993D01*
G01X937362Y357276D01*
G01X943864Y356565D01*
G01X946353Y356311D01*
G01X947369Y358597D01*
G01X950011Y364592D01*
G01X952652Y358597D01*
G01X953618Y356311D01*
G01X956107Y356565D01*
G01X962609Y357276D01*
G01X958748Y351993D01*
G01X957275Y350012D01*
G01X958748Y347980D01*
G01X962609Y342697D01*
G01X956107Y343408D01*
G01X953618Y343713D01*
G01X952652Y341427D01*
G01X950011Y335432D01*
G01X947369Y341427D01*
G01X946353Y343713D01*
G01X943864Y343408D01*
G01X937362Y342697D01*
G01X933145D01*
G01X930046Y338480D01*
G01X944220Y340004D01*
G01X950011Y327000D01*
G01X955751Y340004D01*
G01X969924Y338480D01*
G01X961492Y350012D01*
G01X969924Y361493D01*
G01X955751Y359969D01*
G37*
G36*
G01X-200000Y-576986D02*
G01X-205740Y-590042D01*
G01X-219964Y-588467D01*
G01X-211531Y-599999D01*
G01X-216865Y-607263D01*
G01X-212598D01*
G01X-208737Y-602031D01*
G01X-207264Y-599999D01*
G01X-208737Y-597967D01*
G01X-212598Y-592734D01*
G01X-206146Y-593446D01*
G01X-203657Y-593700D01*
G01X-202641Y-591414D01*
G01X-200000Y-585419D01*
G01X-197358Y-591414D01*
G01X-196342Y-593700D01*
G01X-193853Y-593446D01*
G01X-187401Y-592734D01*
G01X-191262Y-597967D01*
G01X-192735Y-599999D01*
G01X-191262Y-602031D01*
G01X-187401Y-607263D01*
G01X-193853Y-606603D01*
G01X-196342Y-606298D01*
G01X-197358Y-608584D01*
G01X-200000Y-614578D01*
G01X-202641Y-608584D01*
G01X-203657Y-606298D01*
G01X-206146Y-606603D01*
G01X-212598Y-607263D01*
G01X-216865D01*
G01X-219964Y-611530D01*
G01X-205740Y-609956D01*
G01X-200000Y-623011D01*
G01X-194259Y-609956D01*
G01X-180086Y-611530D01*
G01X-188468Y-599999D01*
G01X-180086Y-588467D01*
G01X-194259Y-590042D01*
G37*
G36*
G01X24994Y248006D02*
G01X19253Y234950D01*
G01X5080Y236525D01*
G01X13513Y224993D01*
G01X8179Y217729D01*
G01X12395D01*
G01X16256Y222961D01*
G01X17729Y224993D01*
G01X16256Y227025D01*
G01X12395Y232308D01*
G01X18898Y231597D01*
G01X21336Y231292D01*
G01X22352Y233578D01*
G01X24994Y239573D01*
G01X27635Y233578D01*
G01X28651Y231292D01*
G01X31140Y231597D01*
G01X37592Y232258D01*
G01X33731Y227025D01*
G01X32309Y224993D01*
G01X33782Y222961D01*
G01X37592Y217729D01*
G01X31140Y218440D01*
G01X28651Y218694D01*
G01X27635Y216408D01*
G01X24994Y210414D01*
G01X22352Y216408D01*
G01X21336Y218694D01*
G01X18898Y218440D01*
G01X12395Y217729D01*
G01X8179D01*
G01X5080Y213512D01*
G01X19253Y215036D01*
G01X24994Y201981D01*
G01X30734Y215036D01*
G01X44958Y213512D01*
G01X36525Y224993D01*
G01X44958Y236525D01*
G01X30734Y234950D01*
G37*
G36*
G01X49987Y-176987D02*
G01X44247Y-190043D01*
G01X30074Y-188468D01*
G01X38506Y-200000D01*
G01X33172Y-207264D01*
G01X37389D01*
G01X41250Y-202032D01*
G01X42723Y-200000D01*
G01X41250Y-197968D01*
G01X37389Y-192735D01*
G01X43891Y-193396D01*
G01X46380Y-193700D01*
G01X47346Y-191414D01*
G01X49987Y-185420D01*
G01X52629Y-191414D01*
G01X53645Y-193700D01*
G01X56134Y-193446D01*
G01X62636Y-192735D01*
G01X58776Y-197968D01*
G01X57302Y-200000D01*
G01X58776Y-202032D01*
G01X62636Y-207264D01*
G01X56134Y-206604D01*
G01X53645Y-206299D01*
G01X52629Y-208585D01*
G01X49987Y-214579D01*
G01X47346Y-208585D01*
G01X46380Y-206299D01*
G01X43891Y-206604D01*
G01X37389Y-207264D01*
G01X33172D01*
G01X30074Y-211531D01*
G01X44247Y-209956D01*
G01X49987Y-223012D01*
G01X55778Y-209956D01*
G01X69952Y-211531D01*
G01X61519Y-200000D01*
G01X69952Y-188468D01*
G01X55778Y-190043D01*
G37*
G36*
G01X1012495Y-714502D02*
G01X1006754Y-727558D01*
G01X992581Y-725983D01*
G01X1001014Y-737514D01*
G01X995680Y-744779D01*
G01X999896D01*
G01X1003757Y-739546D01*
G01X1005230Y-737514D01*
G01X1003757Y-735482D01*
G01X999896Y-730199D01*
G01X1006399Y-730910D01*
G01X1008888Y-731215D01*
G01X1009853Y-728929D01*
G01X1012495Y-722935D01*
G01X1015136Y-728929D01*
G01X1016152Y-731215D01*
G01X1018642Y-730910D01*
G01X1025144Y-730199D01*
G01X1021283Y-735482D01*
G01X1019810Y-737514D01*
G01X1021283Y-739546D01*
G01X1025144Y-744779D01*
G01X1018642Y-744068D01*
G01X1016152Y-743814D01*
G01X1015136Y-746100D01*
G01X1012495Y-752094D01*
G01X1009853Y-746100D01*
G01X1008888Y-743814D01*
G01X1006399Y-744068D01*
G01X999896Y-744779D01*
G01X995680D01*
G01X992581Y-748995D01*
G01X1006754Y-747471D01*
G01X1012495Y-760527D01*
G01X1018286Y-747471D01*
G01X1032459Y-748995D01*
G01X1024026Y-737514D01*
G01X1032459Y-725983D01*
G01X1018286Y-727558D01*
G37*
G36*
G01X1150010Y323037D02*
G01X1144270Y309982D01*
G01X1130046Y311506D01*
G01X1138479Y300025D01*
G01X1133145Y292710D01*
G01X1137361D01*
G01X1141222Y297993D01*
G01X1142695Y300025D01*
G01X1141222Y302006D01*
G01X1137361Y307289D01*
G01X1143864Y306578D01*
G01X1146353Y306324D01*
G01X1150010Y314554D01*
G01X1152652Y308610D01*
G01X1153617Y306324D01*
G01X1156106Y306578D01*
G01X1162609Y307289D01*
G01X1158748Y302006D01*
G01X1157275Y300025D01*
G01X1158748Y297993D01*
G01X1162609Y292710D01*
G01X1156106Y293421D01*
G01X1153668Y293675D01*
G01X1150010Y285445D01*
G01X1146353Y293675D01*
G01X1143864Y293421D01*
G01X1137361Y292710D01*
G01X1133145D01*
G01X1130046Y288493D01*
G01X1144219Y290017D01*
G01X1150010Y276962D01*
G01X1155751Y290017D01*
G01X1169924Y288493D01*
G01X1161491Y300025D01*
G01X1169924Y311506D01*
G01X1155751Y309982D01*
G37*
G36*
G01X700024Y-76962D02*
G01X694233Y-90018D01*
G01X680060Y-88494D01*
G01X688492Y-100025D01*
G01X683158Y-107290D01*
G01X687375D01*
G01X691236Y-102006D01*
G01X692709Y-100025D01*
G01X691236Y-97993D01*
G01X687375Y-92710D01*
G01X693877Y-93421D01*
G01X696366Y-93675D01*
G01X700024Y-85446D01*
G01X702615Y-91389D01*
G01X703631Y-93675D01*
G01X706120Y-93421D01*
G01X712622Y-92710D01*
G01X708762Y-97993D01*
G01X707288Y-100025D01*
G01X708762Y-102006D01*
G01X712622Y-107290D01*
G01X706120Y-106578D01*
G01X703631Y-106324D01*
G01X702615Y-108610D01*
G01X700024Y-114554D01*
G01X696366Y-106324D01*
G01X693877Y-106578D01*
G01X687375Y-107290D01*
G01X683158D01*
G01X680060Y-111506D01*
G01X694233Y-109982D01*
G01X700024Y-123038D01*
G01X705764Y-109982D01*
G01X719938Y-111506D01*
G01X711505Y-100025D01*
G01X719938Y-88494D01*
G01X705764Y-90018D01*
G37*
G36*
G01X150012Y923036D02*
G01X144221Y909980D01*
G01X130048Y911504D01*
G01X138481Y900024D01*
G01X133147Y892708D01*
G01X137363D01*
G01X141224Y897992D01*
G01X142697Y900024D01*
G01X141224Y902005D01*
G01X137363Y907288D01*
G01X143866Y906577D01*
G01X146355Y906323D01*
G01X150012Y914552D01*
G01X152654Y908609D01*
G01X153619Y906323D01*
G01X156108Y906577D01*
G01X162611Y907288D01*
G01X158750Y902005D01*
G01X157277Y900024D01*
G01X158750Y897992D01*
G01X162611Y892708D01*
G01X156108Y893420D01*
G01X153619Y893674D01*
G01X152654Y891388D01*
G01X150012Y885444D01*
G01X146355Y893674D01*
G01X143866Y893420D01*
G01X137363Y892708D01*
G01X133147D01*
G01X130048Y888492D01*
G01X144221Y890016D01*
G01X150012Y876960D01*
G01X155753Y890016D01*
G01X169926Y888492D01*
G01X161493Y900024D01*
G01X169926Y911504D01*
G01X155753Y909980D01*
G37*
G36*
G01X1500022Y923036D02*
G01X1494231Y909980D01*
G01X1480058Y911504D01*
G01X1488491Y900024D01*
G01X1483157Y892708D01*
G01X1487373D01*
G01X1491234Y897992D01*
G01X1492707Y900024D01*
G01X1491234Y902005D01*
G01X1487373Y907288D01*
G01X1493876Y906577D01*
G01X1496365Y906323D01*
G01X1500022Y914552D01*
G01X1502613Y908609D01*
G01X1503629Y906323D01*
G01X1506118Y906577D01*
G01X1512621Y907288D01*
G01X1508760Y902005D01*
G01X1507287Y900024D01*
G01X1508760Y897992D01*
G01X1512621Y892708D01*
G01X1506118Y893420D01*
G01X1503629Y893674D01*
G01X1502613Y891388D01*
G01X1500022Y885444D01*
G01X1496365Y893674D01*
G01X1493876Y893420D01*
G01X1487373Y892708D01*
G01X1483157D01*
G01X1480058Y888492D01*
G01X1494231Y890016D01*
G01X1500022Y876960D01*
G01X1505763Y890016D01*
G01X1519936Y888492D01*
G01X1511503Y900024D01*
G01X1519936Y911504D01*
G01X1505763Y909980D01*
G37*
G04 Image End*
G54D10*

M02*
