;TYPE=PLATED
;Layer: PTH_Through
;EasyEDA Pro v2.1.51.8c9149c1.e57db4, 2024-03-20 17:40:01
;Gerber Generator version 0.3
M48
METRIC,LZ,000.00000
;Hole size 1 = 0.30000 METRIC
T01C0.30000
;Hole size 2 = 0.30002 METRIC
T02C0.30002
;Hole size 3 = 0.70002 METRIC
T03C0.70002
;Hole size 4 = 1.14300 METRIC
T04C1.14300
%
G05
G90
T01
X00700000Y00900000
X-00412503Y00750006
X00774998Y00624999
X00499999Y00075000
X00537504Y-00862507
X00210000Y-00030000
X-00550000Y00650000
X00270000Y-00240000
X00025000Y-00925008
X-00574999Y00374999
X00030000Y00000000
X01500000Y00800000
X00612505Y00612505
X00420000Y00300000
X00725006Y-00800007
X00000000Y-00350000
X-00562505Y-00312503
X00949998Y00349999
X-00200000Y-00600000
X00025000Y00225000
X00050000Y-00200000
X01050009Y-00700006
X01150000Y00300000
X00700000Y-00100000
X00150000Y00900000
X01500000Y00900000
T02
X-00600000Y-00900000
X-00700000Y-00650000
X-00412503Y-00612505
X00499999Y-00474999
X00550000Y-00400000
X00774998Y00150000
X00250000Y-00500000
X-00100000Y-00549999
X-00799998Y-00150012
X-00750000Y00550000
T03
X-01406504Y00432011G85X-01476501Y00432011
X-01406494Y-00431996G85X-01476491Y-00431996
X-00973486Y-00431987G85X-01073484Y-00431987
X-00973496Y00432020G85X-01073494Y00432020
T04
X01472997Y-00635000
X01472997Y-00381000
X01472997Y-00127000
X01472997Y00127000
X01472997Y00381000
X01472997Y00635000
X01726997Y-00635000
X01726997Y-00381000
X01726997Y-00127000
X01726997Y00127000
X01726997Y00381000
X01726997Y00635000
M30