G04 Layer: BottomLayer*
G04 EasyEDA Pro v2.1.51.8c9149c1.e57db4, 2024-03-20 17:40:01*
G04 Gerber Generator version 0.3*
G04 Scale: 100 percent, Rotated: No, Reflected: No*
G04 Dimensions in millimeters*
G04 Leading zeros omitted, absolute positions, 3 integers and 5 decimals*
%FSLAX35Y35*%
%MOMM*%
%AMPolygonMacro1*4,1,4,-0.46562,0.5,0.46562,0.5,0.46562,-0.5,0.10839,-0.5,-0.46562,0.5,0*%
%AMPolygonMacro2*4,1,4,0.46562,-0.5,-0.46562,-0.5,-0.46562,0.5,-0.10839,0.5,0.46562,-0.5,0*%
%ADD8191C,0.2032*%
%ADD10O,1.8X1.2*%
%ADD11O,2.0X1.2*%
%ADD12R,1.778X1.778*%
%ADD13C,1.778*%
%ADD14PolygonMacro1*%
%ADD15PolygonMacro2*%
%ADD16C,0.6*%
%ADD17C,0.5*%
%ADD18C,0.3054*%
%ADD19C,0.3*%
%ADD20C,0.15001*%
%ADD21C,0.25*%
G75*


G04 Copper Start*
G36*
G01X1969586Y969578D02*
G01X1969586Y-969586D01*
G01X-1569583D01*
G01Y968689D01*
G01X1969586Y969578D01*
G37*
%LPC*%
G36*
G01X482090Y-862507D02*
G03X537504Y-917921I55414J0D01*
G03X577917Y-900422I0J55414D01*
G01X1787493D01*
G03X1814303Y-889317I0J37915D01*
G01X1926810Y-776810D01*
G03X1937915Y-750000I-26810J26810D01*
G01Y-300003D01*
G03X1926810Y-273194I-37915J0D01*
G01X1833801Y-180185D01*
G03X1846311Y-127000I-106804J53185D01*
G03X1726997Y-7686I-119314J0D01*
G03X1607683Y-127000I0J-119314D01*
G03X1726997Y-246314I119314J0D01*
G03X1780182Y-233804I0J119314D01*
G01X1862085Y-315708D01*
G01Y-734295D01*
G01X1771788Y-824592D01*
G01X774667D01*
G03X780420Y-800007I-49661J24586D01*
G03X725006Y-744593I-55414J0D01*
G03X689947Y-757093I0J-55414D01*
G01X-207228D01*
G01X-352090Y-612231D01*
G03X-357089Y-588440I-60413J-274D01*
G01Y-564431D01*
G01X121928Y-85414D01*
G01X210000D01*
G01X594897D01*
G03X634081Y-69183I0J55414D01*
G01X796998Y93734D01*
G03X831199Y127833I-22000J56266D01*
G01X989191Y285825D01*
G03X1005422Y325009I-39184J39184D01*
G01Y325956D01*
G03X1010412Y349999I-55424J24043D01*
G03X1005422Y374042I-60414J0D01*
G01Y570408D01*
G03X1016209Y575335I-7000J29597D01*
G03X1033996Y569591I17787J24670D01*
G01X1069719D01*
G03X1092259Y579586I0J30414D01*
G01X1367332D01*
G03X1472997Y515686I105665J55414D01*
G03X1578662Y579586I0J119314D01*
G01X1621332D01*
G03X1726997Y515686I105665J55414D01*
G03X1846311Y635000I0J119314D01*
G03X1726997Y754314I-119314J0D01*
G03X1621332Y690414I0J-119314D01*
G01X1578662D01*
G03X1472997Y754314I-105665J-55414D01*
G03X1367332Y690414I0J-119314D01*
G01X1100133D01*
G01Y700005D01*
G03X1069719Y730419I-30414J0D01*
G01X976595D01*
G03X958807Y724675I0J-30414D01*
G03X941020Y730419I-17787J-24670D01*
G01X905297D01*
G03X874883Y700005I0J-30414D01*
G01Y600005D01*
G03X894594Y571537I30414J0D01*
G01Y374087D01*
G03X889584Y349999I55404J-24087D01*
G03X889954Y343323I60414J0D01*
G01X752832Y206200D01*
G03X718865Y172335I22167J-56200D01*
G01X571944Y25414D01*
G01X534511D01*
G03X560412Y74724I-34512J49586D01*
G01X805343Y319655D01*
G03X817912Y349999I-30345J30345D01*
G01Y582475D01*
G03X835412Y624999I-42914J42523D01*
G03X774998Y685413I-60414J0D01*
G03X714585Y624999I0J-60414D01*
G03X732085Y582475I60414J0D01*
G01Y367775D01*
G01X499723Y135413D01*
G03X439585Y75000I276J-60413D01*
G03X465487Y25414I60414J0D01*
G01X252914D01*
G01Y72225D01*
G01X420276Y239587D01*
G03X480414Y300000I-276J60413D01*
G03X420000Y360414I-60414J0D01*
G03X359587Y300276I0J-60414D01*
G01X179655Y120345D01*
G03X167086Y90000I30345J-30345D01*
G01Y25414D01*
G01X98975D01*
G03X59791Y9184I0J-55414D01*
G01X-357140Y-407748D01*
G01Y725824D01*
G03X-352217Y746090I-55363J24182D01*
G01X-243719Y854588D01*
G01X118244D01*
G03X150000Y844586I31756J45412D01*
G03X181756Y854588I0J55414D01*
G01X660156D01*
G03X700000Y839586I39844J45412D01*
G03X742523Y857086I0J60414D01*
G01X1464942D01*
G03X1500000Y844586I35058J42914D01*
G03X1555414Y900000I0J55414D01*
G03X1500000Y955414I-55414J0D01*
G03X1464942Y942914I0J-55414D01*
G01X742523D01*
G03X700000Y960414I-42523J-42914D01*
G03X660160Y945416I0J-60414D01*
G01X181751D01*
G03X150000Y955414I-31751J-45416D01*
G03X118249Y945416I0J-55414D01*
G01X-262530D01*
G03X-294642Y932114I0J-45414D01*
G01X-416467Y810290D01*
G03X-472917Y750006I3963J-60284D01*
G03X-467968Y726058I60414J0D01*
G01Y-588557D01*
G03X-472917Y-612505I55465J-23948D01*
G03X-447693Y-661613I60414J0D01*
G03X-439314Y-674305I35188J14118D01*
G01X-436809Y-676809D01*
G03X-410000Y-687914I26810J26810D01*
G03X-399321Y-686379I0J37915D01*
G01X-255349Y-830351D01*
G03X-225004Y-842920I30345J30345D01*
G01X485667D01*
G03X482090Y-862507I51837J-19587D01*
G37*
G36*
G01X1726997Y-754314D02*
G03X1846311Y-635000I0J119314D01*
G03X1726997Y-515686I-119314J0D01*
G03X1673812Y-528196I0J-119314D01*
G01X1618806Y-473190D01*
G03X1591997Y-462085I-26810J-26810D01*
G01X1560524D01*
G03X1592311Y-381000I-87527J81085D01*
G03X1547635Y-287915I-119314J0D01*
G01X1580292D01*
G01X1620192Y-327815D01*
G03X1607683Y-381000I106804J-53185D01*
G03X1726997Y-500314I119314J0D01*
G03X1846311Y-381000I0J119314D01*
G03X1726997Y-261686I-119314J0D01*
G03X1673812Y-274196I0J-119314D01*
G01X1622806Y-223190D01*
G03X1595997Y-212085I-26810J-26810D01*
G01X1556641D01*
G03X1592311Y-127000I-83644J85085D01*
G03X1472997Y-7686I-119314J0D01*
G03X1353683Y-127000I0J-119314D01*
G03X1355840Y-149587I119314J0D01*
G01X412499D01*
G03X385689Y-160692I0J-37915D01*
G01X34296Y-512084D01*
G01X-52964D01*
G03X-100000Y-489585I-47035J-37915D01*
G03X-160414Y-549999I0J-60414D01*
G03X-100000Y-610413I60414J0D01*
G03X-52964Y-587913I0J60414D01*
G01X50001D01*
G03X76811Y-576809I0J37915D01*
G01X428203Y-225416D01*
G01X470965D01*
G01X256449Y-439931D01*
G03X250000Y-439586I-6449J-60069D01*
G03X189586Y-500000I0J-60414D01*
G03X250000Y-560414I60414J0D01*
G03X310414Y-500000I0J60414D01*
G03X310069Y-493551I-60414J0D01*
G01X515705Y-287915D01*
G01X1398358D01*
G03X1353683Y-381000I74639J-93085D01*
G03X1385470Y-462085I119314J0D01*
G01X665705D01*
G01X610069Y-406449D01*
G03X610414Y-400000I-60069J6449D01*
G03X550000Y-339586I-60414J0D01*
G03X489586Y-400000I0J-60414D01*
G03X491525Y-415182I60414J0D01*
G03X439585Y-474999I8474J-59817D01*
G03X499999Y-535413I60414J0D01*
G03X506448Y-535068I0J60414D01*
G01X633190Y-661810D01*
G03X660000Y-672915I26810J26810D01*
G01X1353683D01*
G01Y-723900D01*
G03X1384097Y-754314I30414J0D01*
G01X1561897D01*
G03X1592311Y-723900I0J30414D01*
G01Y-553933D01*
G01X1620192Y-581815D01*
G03X1607683Y-635000I106804J-53185D01*
G03X1726997Y-754314I119314J0D01*
G37*
G36*
G01X-799998Y-210426D02*
G03X-739584Y-150012I0J60414D01*
G03X-739930Y-143552I-60414J0D01*
G01X-723203Y-126824D01*
G03X-712098Y-100015I-26810J26810D01*
G01Y502954D01*
G03X-689586Y550000I-37902J47046D01*
G03X-750000Y610414I-60414J0D01*
G03X-810414Y550000I0J-60414D01*
G03X-787927Y502975I60414J0D01*
G01Y-84310D01*
G01X-793560Y-89942D01*
G03X-799998Y-89598I-6438J-60070D01*
G03X-860412Y-150012I0J-60414D01*
G03X-799998Y-210426I60414J0D01*
G37*
G36*
G01X-600000Y-960414D02*
G03X-539586Y-900000I0J60414D01*
G03X-554586Y-860158I-60414J0D01*
G01Y-750011D01*
G03X-567888Y-717899I-45414J0D01*
G01X-639714Y-646072D01*
G03X-700000Y-589586I-60286J-3928D01*
G03X-760414Y-650000I0J-60414D01*
G03X-703952Y-710284I60414J0D01*
G01X-645414Y-768822D01*
G01Y-860158D01*
G03X-660414Y-900000I45414J-39842D01*
G03X-600000Y-960414I60414J0D01*
G37*
G36*
G01X-1435426Y-800007D02*
G03X-1300011Y-935422I135415J0D01*
G03X-1164596Y-800007I0J135415D01*
G03X-1300011Y-664592I-135415J0D01*
G03X-1435426Y-800007I0J-135415D01*
G37*
G36*
G01X-1435412Y799997D02*
G03X-1299997Y664582I135415J0D01*
G03X-1164582Y799997I0J135415D01*
G03X-1299997Y935412I-135415J0D01*
G03X-1435412Y799997I0J-135415D01*
G37*
G36*
G01X1726997Y7686D02*
G03X1846311Y127000I0J119314D01*
G03X1726997Y246314I-119314J0D01*
G03X1607683Y127000I0J-119314D01*
G03X1726997Y7686I119314J0D01*
G37*
G36*
G01X1353683Y127000D02*
G03X1472997Y7686I119314J0D01*
G03X1592311Y127000I0J119314D01*
G03X1472997Y246314I-119314J0D01*
G03X1353683Y127000I0J-119314D01*
G37*
G36*
G01X-1141917Y289001D02*
G03X-1076502Y223586I65415J0D01*
G03X-1011087Y289001I0J65415D01*
G03X-1076502Y354416I-65415J0D01*
G03X-1141917Y289001I0J-65415D01*
G37*
G36*
G01X-1076502Y-354416D02*
G03X-1011087Y-289001I0J65415D01*
G03X-1076502Y-223586I-65415J0D01*
G03X-1141917Y-289001I0J-65415D01*
G03X-1076502Y-354416I65415J0D01*
G37*
%LPD*%
G54D8191*
G01X1969586Y969578D02*
G01X1969586Y-969586D01*
G01X-1569583D01*
G01Y968689D01*
G01X1969586Y969578D01*
G01X482090Y-862507D02*
G03X537504Y-917921I55414J0D01*
G03X577917Y-900422I0J55414D01*
G01X1787493D01*
G03X1814303Y-889317I0J37915D01*
G01X1926810Y-776810D01*
G03X1937915Y-750000I-26810J26810D01*
G01Y-300003D01*
G03X1926810Y-273194I-37915J0D01*
G01X1833801Y-180185D01*
G03X1846311Y-127000I-106804J53185D01*
G03X1726997Y-7686I-119314J0D01*
G03X1607683Y-127000I0J-119314D01*
G03X1726997Y-246314I119314J0D01*
G03X1780182Y-233804I0J119314D01*
G01X1862085Y-315708D01*
G01Y-734295D01*
G01X1771788Y-824592D01*
G01X774667D01*
G03X780420Y-800007I-49661J24586D01*
G03X725006Y-744593I-55414J0D01*
G03X689947Y-757093I0J-55414D01*
G01X-207228D01*
G01X-352090Y-612231D01*
G03X-357089Y-588440I-60413J-274D01*
G01Y-564431D01*
G01X121928Y-85414D01*
G01X210000D01*
G01X594897D01*
G03X634081Y-69183I0J55414D01*
G01X796998Y93734D01*
G03X831199Y127833I-22000J56266D01*
G01X989191Y285825D01*
G03X1005422Y325009I-39184J39184D01*
G01Y325956D01*
G03X1010412Y349999I-55424J24043D01*
G03X1005422Y374042I-60414J0D01*
G01Y570408D01*
G03X1016209Y575335I-7000J29597D01*
G03X1033996Y569591I17787J24670D01*
G01X1069719D01*
G03X1092259Y579586I0J30414D01*
G01X1367332D01*
G03X1472997Y515686I105665J55414D01*
G03X1578662Y579586I0J119314D01*
G01X1621332D01*
G03X1726997Y515686I105665J55414D01*
G03X1846311Y635000I0J119314D01*
G03X1726997Y754314I-119314J0D01*
G03X1621332Y690414I0J-119314D01*
G01X1578662D01*
G03X1472997Y754314I-105665J-55414D01*
G03X1367332Y690414I0J-119314D01*
G01X1100133D01*
G01Y700005D01*
G03X1069719Y730419I-30414J0D01*
G01X976595D01*
G03X958807Y724675I0J-30414D01*
G03X941020Y730419I-17787J-24670D01*
G01X905297D01*
G03X874883Y700005I0J-30414D01*
G01Y600005D01*
G03X894594Y571537I30414J0D01*
G01Y374087D01*
G03X889584Y349999I55404J-24087D01*
G03X889954Y343323I60414J0D01*
G01X752832Y206200D01*
G03X718865Y172335I22167J-56200D01*
G01X571944Y25414D01*
G01X534511D01*
G03X560412Y74724I-34512J49586D01*
G01X805343Y319655D01*
G03X817912Y349999I-30345J30345D01*
G01Y582475D01*
G03X835412Y624999I-42914J42523D01*
G03X774998Y685413I-60414J0D01*
G03X714585Y624999I0J-60414D01*
G03X732085Y582475I60414J0D01*
G01Y367775D01*
G01X499723Y135413D01*
G03X439585Y75000I276J-60413D01*
G03X465487Y25414I60414J0D01*
G01X252914D01*
G01Y72225D01*
G01X420276Y239587D01*
G03X480414Y300000I-276J60413D01*
G03X420000Y360414I-60414J0D01*
G03X359587Y300276I0J-60414D01*
G01X179655Y120345D01*
G03X167086Y90000I30345J-30345D01*
G01Y25414D01*
G01X98975D01*
G03X59791Y9184I0J-55414D01*
G01X-357140Y-407748D01*
G01Y725824D01*
G03X-352217Y746090I-55363J24182D01*
G01X-243719Y854588D01*
G01X118244D01*
G03X150000Y844586I31756J45412D01*
G03X181756Y854588I0J55414D01*
G01X660156D01*
G03X700000Y839586I39844J45412D01*
G03X742523Y857086I0J60414D01*
G01X1464942D01*
G03X1500000Y844586I35058J42914D01*
G03X1555414Y900000I0J55414D01*
G03X1500000Y955414I-55414J0D01*
G03X1464942Y942914I0J-55414D01*
G01X742523D01*
G03X700000Y960414I-42523J-42914D01*
G03X660160Y945416I0J-60414D01*
G01X181751D01*
G03X150000Y955414I-31751J-45416D01*
G03X118249Y945416I0J-55414D01*
G01X-262530D01*
G03X-294642Y932114I0J-45414D01*
G01X-416467Y810290D01*
G03X-472917Y750006I3963J-60284D01*
G03X-467968Y726058I60414J0D01*
G01Y-588557D01*
G03X-472917Y-612505I55465J-23948D01*
G03X-447693Y-661613I60414J0D01*
G03X-439314Y-674305I35188J14118D01*
G01X-436809Y-676809D01*
G03X-410000Y-687914I26810J26810D01*
G03X-399321Y-686379I0J37915D01*
G01X-255349Y-830351D01*
G03X-225004Y-842920I30345J30345D01*
G01X485667D01*
G03X482090Y-862507I51837J-19587D01*
G01X1726997Y-754314D02*
G03X1846311Y-635000I0J119314D01*
G03X1726997Y-515686I-119314J0D01*
G03X1673812Y-528196I0J-119314D01*
G01X1618806Y-473190D01*
G03X1591997Y-462085I-26810J-26810D01*
G01X1560524D01*
G03X1592311Y-381000I-87527J81085D01*
G03X1547635Y-287915I-119314J0D01*
G01X1580292D01*
G01X1620192Y-327815D01*
G03X1607683Y-381000I106804J-53185D01*
G03X1726997Y-500314I119314J0D01*
G03X1846311Y-381000I0J119314D01*
G03X1726997Y-261686I-119314J0D01*
G03X1673812Y-274196I0J-119314D01*
G01X1622806Y-223190D01*
G03X1595997Y-212085I-26810J-26810D01*
G01X1556641D01*
G03X1592311Y-127000I-83644J85085D01*
G03X1472997Y-7686I-119314J0D01*
G03X1353683Y-127000I0J-119314D01*
G03X1355840Y-149587I119314J0D01*
G01X412499D01*
G03X385689Y-160692I0J-37915D01*
G01X34296Y-512084D01*
G01X-52964D01*
G03X-100000Y-489585I-47035J-37915D01*
G03X-160414Y-549999I0J-60414D01*
G03X-100000Y-610413I60414J0D01*
G03X-52964Y-587913I0J60414D01*
G01X50001D01*
G03X76811Y-576809I0J37915D01*
G01X428203Y-225416D01*
G01X470965D01*
G01X256449Y-439931D01*
G03X250000Y-439586I-6449J-60069D01*
G03X189586Y-500000I0J-60414D01*
G03X250000Y-560414I60414J0D01*
G03X310414Y-500000I0J60414D01*
G03X310069Y-493551I-60414J0D01*
G01X515705Y-287915D01*
G01X1398358D01*
G03X1353683Y-381000I74639J-93085D01*
G03X1385470Y-462085I119314J0D01*
G01X665705D01*
G01X610069Y-406449D01*
G03X610414Y-400000I-60069J6449D01*
G03X550000Y-339586I-60414J0D01*
G03X489586Y-400000I0J-60414D01*
G03X491525Y-415182I60414J0D01*
G03X439585Y-474999I8474J-59817D01*
G03X499999Y-535413I60414J0D01*
G03X506448Y-535068I0J60414D01*
G01X633190Y-661810D01*
G03X660000Y-672915I26810J26810D01*
G01X1353683D01*
G01Y-723900D01*
G03X1384097Y-754314I30414J0D01*
G01X1561897D01*
G03X1592311Y-723900I0J30414D01*
G01Y-553933D01*
G01X1620192Y-581815D01*
G03X1607683Y-635000I106804J-53185D01*
G03X1726997Y-754314I119314J0D01*
G01X-799998Y-210426D02*
G03X-739584Y-150012I0J60414D01*
G03X-739930Y-143552I-60414J0D01*
G01X-723203Y-126824D01*
G03X-712098Y-100015I-26810J26810D01*
G01Y502954D01*
G03X-689586Y550000I-37902J47046D01*
G03X-750000Y610414I-60414J0D01*
G03X-810414Y550000I0J-60414D01*
G03X-787927Y502975I60414J0D01*
G01Y-84310D01*
G01X-793560Y-89942D01*
G03X-799998Y-89598I-6438J-60070D01*
G03X-860412Y-150012I0J-60414D01*
G03X-799998Y-210426I60414J0D01*
G01X-600000Y-960414D02*
G03X-539586Y-900000I0J60414D01*
G03X-554586Y-860158I-60414J0D01*
G01Y-750011D01*
G03X-567888Y-717899I-45414J0D01*
G01X-639714Y-646072D01*
G03X-700000Y-589586I-60286J-3928D01*
G03X-760414Y-650000I0J-60414D01*
G03X-703952Y-710284I60414J0D01*
G01X-645414Y-768822D01*
G01Y-860158D01*
G03X-660414Y-900000I45414J-39842D01*
G03X-600000Y-960414I60414J0D01*
G01X-1435426Y-800007D02*
G03X-1300011Y-935422I135415J0D01*
G03X-1164596Y-800007I0J135415D01*
G03X-1300011Y-664592I-135415J0D01*
G03X-1435426Y-800007I0J-135415D01*
G01X-1435412Y799997D02*
G03X-1299997Y664582I135415J0D01*
G03X-1164582Y799997I0J135415D01*
G03X-1299997Y935412I-135415J0D01*
G03X-1435412Y799997I0J-135415D01*
G01X1726997Y7686D02*
G03X1846311Y127000I0J119314D01*
G03X1726997Y246314I-119314J0D01*
G03X1607683Y127000I0J-119314D01*
G03X1726997Y7686I119314J0D01*
G01X1353683Y127000D02*
G03X1472997Y7686I119314J0D01*
G03X1592311Y127000I0J119314D01*
G03X1472997Y246314I-119314J0D01*
G03X1353683Y127000I0J-119314D01*
G01X-1141917Y289001D02*
G03X-1076502Y223586I65415J0D01*
G03X-1011087Y289001I0J65415D01*
G03X-1076502Y354416I-65415J0D01*
G03X-1141917Y289001I0J-65415D01*
G01X-1076502Y-354416D02*
G03X-1011087Y-289001I0J65415D01*
G03X-1076502Y-223586I-65415J0D01*
G03X-1141917Y-289001I0J-65415D01*
G03X-1076502Y-354416I65415J0D01*
G04 Copper End*

G04 Pad Start*
G54D10*
G01X-1441500Y432003D03*
G01X-1441500Y-432003D03*
G54D11*
G01X-1023492Y-432003D03*
G01X-1023492Y432003D03*
G54D12*
G01X1472997Y-635000D03*
G54D13*
G01X1472997Y-381000D03*
G01X1472997Y-127000D03*
G01X1472997Y127000D03*
G01X1472997Y381000D03*
G01X1472997Y635000D03*
G01X1726997Y-635000D03*
G01X1726997Y-381000D03*
G01X1726997Y-127000D03*
G01X1726997Y127000D03*
G01X1726997Y381000D03*
G01X1726997Y635000D03*
G54D14*
G01X1023157Y650005D03*
G54D15*
G01X951859Y650005D03*
G04 Pad End*

G04 Via Start*
G54D16*
G01X-600000Y-900000D03*
G01X-700000Y-650000D03*
G01X-412503Y-612505D03*
G01X499999Y-474999D03*
G01X550000Y-400000D03*
G01X774998Y150000D03*
G01X700000Y900000D03*
G01X-412503Y750006D03*
G01X250000Y-500000D03*
G01X-100000Y-549999D03*
G01X-799998Y-150012D03*
G01X-750000Y550000D03*
G01X774998Y624999D03*
G01X499999Y75000D03*
G54D17*
G01X537504Y-862507D03*
G01X210000Y-30000D03*
G54D16*
G01X-550000Y650000D03*
G01X270000Y-240000D03*
G01X25000Y-925008D03*
G01X-574999Y374999D03*
G01X30000Y0D03*
G01X1500000Y800000D03*
G01X612505Y612505D03*
G01X420000Y300000D03*
G54D17*
G01X725006Y-800007D03*
G54D16*
G01X0Y-350000D03*
G01X-562505Y-312503D03*
G01X949998Y349999D03*
G01X-200000Y-600000D03*
G01X25000Y225000D03*
G01X50000Y-200000D03*
G01X1050009Y-700006D03*
G01X1150000Y300000D03*
G01X700000Y-100000D03*
G54D17*
G01X150000Y900000D03*
G01X1500000Y900000D03*
G04 Via End*

G04 Track Start*
G54D19*
G01X-412425Y750106D02*
G01X-262530Y900002D01*
G01X-600000Y-750011D02*
G01X-600000Y-900000D01*
G54D20*
G01X-750013Y-100015D02*
G01X-799998Y-150000D01*
G01X-750013Y550013D02*
G01X-750013Y-100015D01*
G54D17*
G01X-412554Y749977D02*
G01X-412554Y-612454D01*
G54D21*
G01X774998Y349999D02*
G01X499999Y75000D01*
G01X774998Y624999D02*
G01X774998Y349999D01*
G01X420000Y300000D02*
G01X210000Y90000D01*
G01Y-30000D01*
G54D20*
G01X1900000Y-300003D02*
G01X1726997Y-127000D01*
G01X1591997Y-500000D02*
G01X1726997Y-635000D01*
G01X-412504Y-612506D02*
G01X-412504Y-647495D01*
G54D17*
G01X774897Y150000D02*
G01X594897Y-30000D01*
G01X210000D01*
G54D21*
G01X-412504Y-612506D02*
G01X-225004Y-800007D01*
G01X725006D01*
G54D17*
G01X210000Y-30000D02*
G01X98975Y-30000D01*
G01X-412503Y-541478D02*
G01X98975Y-30000D01*
G01X-412503Y-612505D02*
G01X-412503Y-541478D01*
G54D20*
G01X499999Y-474999D02*
G01X660000Y-635000D01*
G01X1472997D01*
G01X550000Y-400000D02*
G01X650000Y-500000D01*
G01X1591997Y-500000D02*
G01X650000Y-500000D01*
G01X1726997Y-381000D02*
G01X1595997Y-250000D01*
G01X500000Y-250000D02*
G01X1595997Y-250000D01*
G01X250000Y-500000D02*
G01X500000Y-250000D01*
G01X50001Y-549999D02*
G01X-100000Y-549999D01*
G01X1472997Y-127000D02*
G01X1412495Y-187502D01*
G01X412499D01*
G01X50001Y-549999D01*
G01X1900000Y-750000D02*
G01X1900000Y-300003D01*
G54D21*
G01X700000Y900000D02*
G01X1500000Y900000D01*
G54D20*
G01X537504Y-862507D02*
G01X1787493Y-862507D01*
G01X1900000Y-750000D01*
G54D19*
G01X-700006Y-650006D02*
G01X-600000Y-750011D01*
G54D20*
G01X-412504Y-647495D02*
G01X-410000Y-650000D01*
G54D19*
G01X150000Y900002D02*
G01X699998Y900002D01*
G01X-262530Y900002D02*
G01X150000Y900002D01*
G54D17*
G01X1472997Y635000D02*
G01X1726997Y635000D01*
G01X1037508Y650005D02*
G01X1052513Y635000D01*
G01X1472997D01*
G01X937508Y631505D02*
G01X950008Y619005D01*
G01Y325009D01*
G01X774998Y150000D01*
G04 Track End*

M02*
