G04 Layer: TopLayer*
G04 EasyEDA Pro v2.1.51.8c9149c1.e57db4, 2024-03-20 17:40:01*
G04 Gerber Generator version 0.3*
G04 Scale: 100 percent, Rotated: No, Reflected: No*
G04 Dimensions in millimeters*
G04 Leading zeros omitted, absolute positions, 3 integers and 5 decimals*
%FSLAX35Y35*%
%MOMM*%
%ADD8191C,0.2032*%
%ADD10R,0.56566X0.54*%
%ADD11R,0.8X0.9*%
%ADD12R,0.56566X0.54*%
%ADD13R,1.55001X1.0*%
%ADD14R,1.1087X0.6223*%
%ADD15R,1.1049X0.6223*%
%ADD16R,0.3X0.505*%
%ADD17R,1.7X0.65001*%
%ADD18R,1.7X0.5*%
%ADD19R,0.54X0.56566*%
%ADD20R,1.3X0.3*%
%ADD21O,1.8X1.2*%
%ADD22O,2.0X1.2*%
%ADD23R,0.54X0.56566*%
%ADD24O,0.28001X1.8*%
%ADD25O,1.8X0.28001*%
%ADD26R,1.778X1.778*%
%ADD27C,1.778*%
%ADD28R,0.9X0.8*%
%ADD29R,0.9X0.8*%
%ADD30C,0.6*%
%ADD31C,0.5*%
%ADD32C,0.15001*%
%ADD33C,0.3*%
%ADD34C,0.25*%
G75*


G04 Copper Start*
G36*
G01X1969586Y969578D02*
G01X1969586Y-969586D01*
G01X-1569583D01*
G01Y968689D01*
G01X1969586Y969578D01*
G37*
%LPC*%
G36*
G01X928989Y-962922D02*
G03X955799Y-951817I0J37915D01*
G01X1353683Y-553933D01*
G01Y-723900D01*
G03X1384097Y-754314I30414J0D01*
G01X1561897D01*
G03X1592311Y-723900I0J30414D01*
G01Y-546100D01*
G03X1561897Y-515686I-30414J0D01*
G01X1391930D01*
G01X1419812Y-487804D01*
G03X1472997Y-500314I53185J106804D01*
G03X1592311Y-381000I0J119314D01*
G03X1472997Y-261686I-119314J0D01*
G03X1353683Y-381000I0J-119314D01*
G03X1366192Y-434185I119314J0D01*
G01X913285Y-887093D01*
G01X587166D01*
G03X592918Y-862507I-49661J24586D01*
G03X562908Y-813259I-55414J0D01*
G01Y-773724D01*
G03X575006Y-775404I12098J42735D01*
G03X600000Y-767704I0J44414D01*
G03X624993Y-775404I24994J36715D01*
G03X649999Y-767695I0J44414D01*
G03X675006Y-775404I25006J36706D01*
G01X675354Y-775402D01*
G03X669592Y-800007I49652J-24604D01*
G03X725006Y-855420I55414J0D01*
G03X760064Y-842920I0J55414D01*
G01X817026D01*
G03X847371Y-830351I0J42914D01*
G01X924571Y-753151D01*
G03X931885Y-743384I-30345J30345D01*
G03X952923Y-714451I-9376J28933D01*
G01Y-660451D01*
G03X922509Y-630037I-30414J0D01*
G01X865943D01*
G03X835529Y-660451I0J-30414D01*
G01Y-714451D01*
G03X836088Y-720255I30414J0D01*
G01X818957Y-737386D01*
G03X819420Y-730989I-43951J6397D01*
G01Y-578991D01*
G03X775006Y-534576I-44414J0D01*
G03X749999Y-542285I0J-44414D01*
G03X724993Y-534576I-25006J-36706D01*
G03X699999Y-542276I0J-44414D01*
G03X675006Y-534576I-24994J-36715D01*
G03X667907Y-535147I0J-44414D01*
G01Y-278597D01*
G01X694661Y-305351D01*
G03X725006Y-317920I30345J30345D01*
G01X835143D01*
G03X834576Y-324993I43848J-7073D01*
G03X878991Y-369408I44414J0D01*
G01X1030989D01*
G03X1075404Y-324993I0J44414D01*
G03X1073731Y-312921I-44414J0D01*
G01X1117595D01*
G01Y-335004D01*
G03X1148009Y-365418I30414J0D01*
G01X1202010D01*
G03X1232424Y-335004I0J30414D01*
G01Y-278438D01*
G03X1202010Y-248024I-30414J0D01*
G01X1169931D01*
G03X1143294Y-237091I-26637J-26982D01*
G01X1136527D01*
G01X1335704Y-37915D01*
G01X1393627D01*
G03X1353683Y-127000I79370J-89085D01*
G03X1472997Y-246314I119314J0D01*
G03X1592311Y-127000I0J119314D01*
G03X1552367Y-37915I-119314J0D01*
G01X1599997D01*
G03X1626806Y-26810I0J37915D01*
G01X1673812Y20196D01*
G03X1726997Y7686I53185J106804D01*
G03X1846311Y127000I0J119314D01*
G03X1726997Y246314I-119314J0D01*
G03X1607683Y127000I0J-119314D01*
G03X1620192Y73815I119314J0D01*
G01X1584292Y37915D01*
G01X1552367D01*
G03X1592311Y127000I-79370J89085D01*
G03X1472997Y246314I-119314J0D01*
G03X1359867Y164915I0J-119314D01*
G01X1351998D01*
G03X1325188Y153810I0J-37915D01*
G01X1069135Y-102244D01*
G03X1067704Y-100000I-38145J-22750D01*
G03X1075404Y-75006I-36715J24994D01*
G03X1074833Y-67908I-44414J0D01*
G01X1075006D01*
G03X1105351Y-55339I0J42914D01*
G01X1205354Y44665D01*
G03X1211129Y51836I-30345J30345D01*
G03X1232424Y80851I-9119J29015D01*
G01Y137417D01*
G03X1202010Y167831I-30414J0D01*
G01X1148009D01*
G03X1117595Y137417I0J-30414D01*
G01Y80851D01*
G01X1117696Y78385D01*
G01X1074271Y34960D01*
G03X1067695Y50000I-43282J-9967D01*
G03X1075404Y75006I-36706J25006D01*
G03X1067704Y100000I-44414J0D01*
G03X1075404Y124993I-36715J24994D01*
G03X1067695Y149999I-44414J0D01*
G03X1075404Y175006I-36706J25006D01*
G03X1030989Y219420I-44414J0D01*
G01X878991D01*
G03X834576Y175006I0J-44414D01*
G03X842285Y149999I44414J0D01*
G03X834576Y124993I36706J-25006D01*
G03X842276Y100000I44414J0D01*
G03X834576Y75006I36715J-24994D01*
G03X842285Y50000I44414J0D01*
G03X834590Y26099I36706J-25006D01*
G01X817912Y42777D01*
G01Y107476D01*
G03X835412Y150000I-42914J42523D01*
G03X774998Y210414I-60414J0D01*
G03X714585Y150000I0J-60414D01*
G03X732085Y107476I60414J0D01*
G01Y25001D01*
G03X744654Y-5343I42914J0D01*
G01X794649Y-55339D01*
G03X824994Y-67908I30345J30345D01*
G01X835147D01*
G03X834576Y-75006I43843J-7099D01*
G03X842276Y-100000I44414J0D01*
G03X834576Y-124994I36715J-24994D01*
G03X842285Y-150000I44414J0D01*
G03X834576Y-175006I36706J-25006D01*
G03X842276Y-200000I44414J0D01*
G03X834576Y-224993I36715J-24994D01*
G03X835147Y-232092I44414J0D01*
G01X742781D01*
G01X615428Y-104739D01*
G01Y129739D01*
G01X805350Y319662D01*
G03X817919Y350006I-30345J30345D01*
G01Y367543D01*
G03X819420Y378991I-42914J11447D01*
G01Y409617D01*
G03X849605Y422877I-1927J45373D01*
G01X890365Y463637D01*
G03X888051Y451999I28099J-11638D01*
G01Y397999D01*
G03X896132Y377353I30414J0D01*
G03X889584Y349999I53867J-27354D01*
G03X897895Y319420I60414J0D01*
G01X878991D01*
G03X834576Y275006I0J-44414D01*
G03X878991Y230591I44414J0D01*
G01X1030989D01*
G03X1075404Y275006I0J44414D01*
G03X1030989Y319420I-44414J0D01*
G01X1002101D01*
G03X1010412Y349999I-52103J30579D01*
G03X1001066Y382278I-60414J0D01*
G03X1005444Y397999I-26036J15721D01*
G01Y451999D01*
G03X975030Y482413I-30414J0D01*
G01X918465D01*
G03X906827Y480099I0J-30414D01*
G01X926294Y499566D01*
G01X955142D01*
G03X985556Y529980I0J30414D01*
G01Y609979D01*
G03X955142Y640393I-30414J0D01*
G01X865142D01*
G03X834728Y609979I0J-30414D01*
G01Y536450D01*
G01X819420Y521142D01*
G01Y530989D01*
G03X797855Y569075I-44414J0D01*
G03X835412Y624722I-22856J55923D01*
G01X917782Y707092D01*
G01X998223D01*
G03X1028444Y680092I30222J3414D01*
G01X1085010D01*
G03X1100009Y684047I0J30414D01*
G03X1115008Y680092I14999J26458D01*
G01X1171573D01*
G03X1201987Y710506I0J30414D01*
G01Y764506D01*
G03X1185007Y791793I-30414J0D01*
G03X1179604Y804593I-41716J-10068D01*
G01X1225019D01*
G03X1255433Y835007I0J30414D01*
G01Y857086D01*
G01X1464942D01*
G03X1500000Y844586I35058J42914D01*
G03X1555414Y900000I0J55414D01*
G03X1500000Y955414I-55414J0D01*
G03X1464942Y942914I0J-55414D01*
G01X1237111D01*
G03X1225019Y945421I-12092J-27907D01*
G01X1135019D01*
G03X1104605Y915007I0J-30414D01*
G01Y881100D01*
G01X1095413Y890292D01*
G01Y915007D01*
G03X1064999Y945421I-30414J0D01*
G01X974999D01*
G03X944585Y915007I0J-30414D01*
G01Y835007D01*
G03X974999Y804593I30414J0D01*
G01X1059733D01*
G01X1069406Y794920D01*
G01X1028444D01*
G03X1017597Y792920I0J-30414D01*
G01X900006D01*
G03X869661Y780351I0J-42914D01*
G01X774723Y685412D01*
G03X723730Y656959I276J-60413D01*
G01X698604Y682085D01*
G01X700000D01*
G03X742914Y724999I0J42914D01*
G01Y857477D01*
G03X760414Y900000I-42914J42523D01*
G03X700000Y960414I-60414J0D01*
G03X657477Y942914I0J-60414D01*
G01X637106D01*
G03X625014Y945421I-12092J-27907D01*
G01X535014D01*
G03X504600Y915007I0J-30414D01*
G01Y835007D01*
G03X535014Y804593I30414J0D01*
G01X625014D01*
G03X655428Y835007I0J30414D01*
G01Y857086D01*
G01X657086D01*
G01Y782413D01*
G01X614998D01*
G03X584584Y751999I0J-30414D01*
G01Y697998D01*
G03X600731Y671138I30414J0D01*
G03X612936Y646375I42549J5581D01*
G01X682079Y577231D01*
G01Y542436D01*
G03X680579Y530989I42914J-11447D01*
G01Y378991D01*
G03X704104Y339795I44414J0D01*
G01X574999Y210689D01*
G01X550271Y235418D01*
G03X519926Y247987I-30345J-30345D01*
G01X450732D01*
G03X480414Y300000I-30733J52013D01*
G03X469280Y334947I-60414J0D01*
G03X475006Y334576I5726J44044D01*
G03X500000Y342276I0J44414D01*
G03X524993Y334576I24994J36715D01*
G03X550000Y342285I0J44414D01*
G03X575006Y334576I25006J36706D01*
G03X600000Y342276I0J44414D01*
G03X624993Y334576I24994J36715D01*
G03X669408Y378991I0J44414D01*
G01Y530989D01*
G03X624993Y575404I-44414J0D01*
G03X600000Y567704I0J-44414D01*
G03X575006Y575404I-24994J-36715D01*
G03X567907Y574833I0J-44414D01*
G01Y600004D01*
G03X555338Y630349I-42914J0D01*
G01X499564Y686124D01*
G03X501978Y697998I-28000J11875D01*
G01Y751999D01*
G03X471564Y782413I-30414J0D01*
G01X439466D01*
G01X450339Y793286D01*
G03X458454Y804593I-30345J30345D01*
G01X464994D01*
G03X495408Y835007I0J30414D01*
G01Y915007D01*
G03X464994Y945421I-30414J0D01*
G01X374994D01*
G03X344580Y915007I0J-30414D01*
G01Y835007D01*
G03X351440Y815766I30414J0D01*
G01X326373Y790699D01*
G03X319059Y780932I30345J-30345D01*
G03X298021Y751999I9376J-28933D01*
G01Y697998D01*
G03X328435Y667584I30414J0D01*
G01X385000D01*
G01X385001D01*
G03X399999Y671540I0J30414D01*
G01X401837Y670579D01*
G03X412936Y651372I41443J11138D01*
G01X421394Y642914D01*
G01X317775D01*
G01X292914Y667776D01*
G01Y750000D01*
G03X280345Y780345I-42914J0D01*
G01X242838Y817851D01*
G03X212494Y830420I-30345J-30345D01*
G01X55076D01*
G03X55424Y835007I-30066J4587D01*
G01Y857058D01*
G01X55453Y857088D01*
G01X114939D01*
G03X150000Y844586I35061J42912D01*
G03X205414Y900000I0J55414D01*
G03X150000Y955414I-55414J0D01*
G03X114944Y942916I0J-55414D01*
G01X37678D01*
G01X37107Y942912D01*
G03X25010Y945421I-12097J-27905D01*
G01X-64990D01*
G03X-95404Y915007I0J-30414D01*
G01Y835007D01*
G03X-95056Y830420I30414J0D01*
G01X-104944D01*
G03X-104596Y835007I-30066J4587D01*
G01Y915007D01*
G03X-135010Y945421I-30414J0D01*
G01X-225010D01*
G03X-255424Y915007I0J-30414D01*
G01Y836646D01*
G01X-273625Y818445D01*
G03X-286194Y788100I30345J-30345D01*
G01Y782338D01*
G03X-314480Y751999I2128J-30339D01*
G01Y697998D01*
G03X-312760Y687915I30414J0D01*
G01X-334295D01*
G01X-362493Y716112D01*
G03X-352089Y750006I-50010J33894D01*
G03X-412227Y810419I-60414J0D01*
G01X-507160Y905352D01*
G03X-537504Y917921I-30345J-30345D01*
G01X-544716D01*
G03X-574990Y945421I-30274J-2914D01*
G01X-664990D01*
G03X-695404Y915007I0J-30414D01*
G01Y835007D01*
G03X-664990Y804593I30414J0D01*
G01X-574990D01*
G03X-546794Y823607I0J30414D01*
G01X-472917Y749730D01*
G03X-448864Y701759I60413J276D01*
G03X-439313Y685694I36360J10744D01*
G01X-376810Y623190D01*
G03X-350000Y612085I26810J26810D01*
G01X-100000D01*
G03X-73190Y623190I0J37915D01*
G01X-17301Y679080D01*
G03X-14883Y674999I27295J13417D01*
G03X-20420Y657501I24876J-17498D01*
G01Y607000D01*
G03X9994Y576586I30414J0D01*
G01X37092D01*
G01Y573724D01*
G03X24994Y575404I-12098J-42735D01*
G03X-19348Y533527I0J-44414D01*
G03X-50220Y545635I-30873J-33306D01*
G01X-79231D01*
G03X-103437Y557635I-24206J-18414D01*
G01X-160003D01*
G03X-190417Y527221I0J-30414D01*
G01Y473221D01*
G03X-160003Y442807I30414J0D01*
G01X-103437D01*
G03X-79231Y454807I0J30414D01*
G01X-69032D01*
G01X-37102Y422878D01*
G03X-19420Y411930I32113J32112D01*
G01Y378991D01*
G03X-17920Y367543I44414J0D01*
G01Y335005D01*
G03X-5350Y304661I42914J0D01*
G01X124582Y174728D01*
G03X154927Y162159I30345J30345D01*
G01X262159D01*
G01Y-11289D01*
G03X215554Y25135I-52159J-18711D01*
G01X85351Y155338D01*
G03X55007Y167907I-30345J-30345D01*
G01X-35147D01*
G03X-34576Y175006I-43843J7099D01*
G03X-42276Y199999I-44414J0D01*
G03X-34576Y224993I-36715J24994D01*
G03X-78991Y269407I-44414J0D01*
G01X-230989D01*
G03X-239887Y268507I0J-44414D01*
G01X-262085Y290705D01*
G01Y450000D01*
G03X-273190Y476810I-37915J0D01*
G01X-318179Y521799D01*
G03X-321151Y524472I-26810J-26810D01*
G01Y527489D01*
G03X-351565Y557903I-30414J0D01*
G01X-521565D01*
G03X-551979Y527489I0J-30414D01*
G01Y462488D01*
G03X-521565Y432074I30414J0D01*
G01X-351565D01*
G03X-338597Y434978I0J30414D01*
G01X-337914Y434295D01*
G01Y314689D01*
G03X-351565Y317924I-13650J-27179D01*
G01X-521565D01*
G03X-551979Y287510I0J-30414D01*
G01Y222509D01*
G03X-521565Y192095I30414J0D01*
G01X-370714D01*
G01X-346526Y167907D01*
G01X-352513D01*
G03X-378436Y182414I-25922J-15907D01*
G01X-435001D01*
G03X-465415Y152000I0J-30414D01*
G01Y98000D01*
G03X-435001Y67586I30414J0D01*
G01X-378436D01*
G03X-352521Y82079I0J30414D01*
G01X-242437D01*
G03X-230989Y80579I11447J42914D01*
G01X-78991D01*
G03X-67544Y82079I0J44414D01*
G01X37231D01*
G01X152845Y-33535D01*
G01X99302Y-87079D01*
G01X-36249D01*
G03X-34576Y-75006I-42742J12073D01*
G03X-42285Y-50000I-44414J0D01*
G03X-34576Y-24994I-36706J25006D01*
G03X-42276Y-0I-44414J0D01*
G03X-34576Y24993I-36715J24994D01*
G03X-78991Y69408I-44414J0D01*
G01X-230989D01*
G03X-254122Y62908I0J-44414D01*
G01X-375007D01*
G03X-394664Y57414I0J-37915D01*
G01X-435000D01*
G03X-465414Y27000I0J-30414D01*
G01Y-27000D01*
G03X-435000Y-57414I30414J0D01*
G01X-378435D01*
G03X-355642Y-47138I0J30414D01*
G01Y-77862D01*
G03X-378435Y-67586I-22792J-20138D01*
G01X-435000D01*
G03X-449999Y-71541I0J-30414D01*
G03X-464998Y-67586I-14999J-26458D01*
G01X-521564D01*
G03X-551978Y-98000I0J-30414D01*
G01Y-129286D01*
G01X-579602D01*
G01X-710703Y1816D01*
G03X-737513Y12920I-26809J-26809D01*
G01X-812093D01*
G01Y60006D01*
G03X-823198Y86815I-37914J0D01*
G01X-823489Y87107D01*
G03X-798195Y98181I-1515J37884D01*
G01X-753790Y142586D01*
G01X-714999D01*
G03X-684585Y173000I0J30414D01*
G01Y227000D01*
G03X-714999Y257414I-30414J0D01*
G01X-746633D01*
G01X-736463Y267585D01*
G01X-714997D01*
G03X-684583Y297999I0J30414D01*
G01Y352000D01*
G03X-714997Y382414I-30414J0D01*
G01X-771563D01*
G03X-801977Y352000I0J-30414D01*
G01Y330521D01*
G01X-832091Y300407D01*
G01X-958496D01*
G01X-958977Y300405D01*
G01X-1012089D01*
G03X-1076502Y354416I-64414J-11403D01*
G03X-1141917Y289001I0J-65415D01*
G03X-1107748Y231531I65415J0D01*
G01X-1157053Y182226D01*
G03X-1170354Y150114I32112J-32112D01*
G01Y-137414D01*
G03X-1157099Y-169480I45414J0D01*
G01X-1099125Y-227622D01*
G03X-1141917Y-289001I22623J-61379D01*
G03X-1076502Y-354416I65415J0D01*
G03X-1012093Y-300430I0J65415D01*
G01X-958519D01*
G01X-893519D01*
G01X-838697D01*
G01X-807913Y-331214D01*
G01Y-375016D01*
G03X-777499Y-405430I30414J0D01*
G01X-622498D01*
G03X-592084Y-375016I0J30414D01*
G01Y-275016D01*
G03X-614351Y-245714I-30414J0D01*
G01X-551979D01*
G01Y-277000D01*
G03X-521565Y-307414I30414J0D01*
G01X-464999D01*
G03X-450000Y-303459I0J30414D01*
G03X-435001Y-307414I14999J26458D01*
G01X-378436D01*
G03X-348022Y-277000I0J30414D01*
G01Y-244922D01*
G01X-260914Y-157814D01*
G03X-230989Y-169408I29925J32820D01*
G01X-78991D01*
G03X-55858Y-162908I0J44414D01*
G01X115006D01*
G03X141816Y-151803I0J37915D01*
G01X208233Y-85386D01*
G01X210000Y-85414D01*
G03X214044Y-85266I0J55414D01*
G01X67218Y-232092D01*
G01X-67544D01*
G03X-78991Y-230592I-11447J-42914D01*
G01X-230989D01*
G03X-242437Y-232092I0J-44414D01*
G01X-250006D01*
G03X-280351Y-244661I0J-42914D01*
G01X-359717Y-324028D01*
G03X-378436Y-317585I-18718J-23971D01*
G01X-435001D01*
G03X-465415Y-347999I0J-30414D01*
G01Y-401999D01*
G03X-435001Y-432413I30414J0D01*
G01X-378436D01*
G03X-364950Y-429260I0J30414D01*
G01X-378276Y-442586D01*
G01X-378436D01*
G01X-435001D01*
G03X-450000Y-446541I0J-30414D01*
G03X-464999Y-442586I-14999J-26458D01*
G01X-521565D01*
G03X-551979Y-473000I0J-30414D01*
G01Y-527000D01*
G03X-521565Y-557414I30414J0D01*
G01X-521168D01*
G01X-520091Y-558536D01*
G01X-472572Y-606055D01*
G03X-472917Y-612505I60069J-6450D01*
G03X-465701Y-641138I60414J0D01*
G01Y-658268D01*
G03X-495951Y-688682I164J-30414D01*
G01Y-750912D01*
G03X-465537Y-781326I30414J0D01*
G01X-355047D01*
G03X-337008Y-775398I0J30414D01*
G01X-318500D01*
G03X-289977Y-795258I28524J10554D01*
G01X-209977D01*
G03X-181453Y-775398I0J30414D01*
G01X-168499D01*
G03X-139975Y-795258I28524J10554D01*
G01X-68967D01*
G01X17725Y-881950D01*
G03X49838Y-895251I32112J32112D01*
G01X129103D01*
G03X153437Y-907421I24334J18244D01*
G01X210003D01*
G03X240417Y-877007I0J30414D01*
G01Y-823007D01*
G03X217921Y-793641I-30414J0D01*
G01Y-774837D01*
G03X224994Y-775404I7073J43848D01*
G03X250000Y-767695I0J44414D01*
G03X275007Y-775404I25006J36706D01*
G03X300000Y-767704I0J44414D01*
G03X324994Y-775404I24994J36715D01*
G03X350000Y-767695I0J44414D01*
G03X375006Y-775404I25006J36706D01*
G03X419421Y-730989I0J44414D01*
G01Y-578991D01*
G03X375006Y-534576I-44414J0D01*
G03X350000Y-542285I0J-44414D01*
G03X324994Y-534576I-25006J-36706D01*
G03X300000Y-542276I0J-44414D01*
G03X295594Y-539636I-24994J-36715D01*
G03X310414Y-500000I-45594J39636D01*
G03X305187Y-475418I-60414J0D01*
G01X439587D01*
G03X499999Y-535413I60412J419D01*
G03X560413Y-474999I0J60414D01*
G03X558474Y-459817I-60414J0D01*
G03X582079Y-451193I-8474J59817D01*
G01Y-535143D01*
G03X575006Y-534576I-7073J-43848D01*
G03X550000Y-542285I0J-44414D01*
G03X524993Y-534576I-25006J-36706D01*
G03X500000Y-542276I0J-44414D01*
G03X475006Y-534576I-24994J-36715D01*
G03X430592Y-578991I0J-44414D01*
G01Y-730989D01*
G03X437092Y-754122I44414J0D01*
G01Y-887510D01*
G03X448197Y-914319I37915J0D01*
G01X485695Y-951817D01*
G03X512504Y-962922I26810J26810D01*
G01X928989D01*
G37*
G36*
G01X-935264Y-764844D02*
G03X-904850Y-795258I30414J0D01*
G01X-824850D01*
G03X-794436Y-764844I0J30414D01*
G01Y-762671D01*
G01X-771780D01*
G03X-744937Y-778786I26843J14299D01*
G01X-634447D01*
G03X-604033Y-748372I0J30414D01*
G01Y-686142D01*
G03X-634447Y-655728I-30414J0D01*
G01X-639858D01*
G03X-639586Y-650000I-60142J5728D01*
G03X-654586Y-610158I-60414J0D01*
G01Y-605430D01*
G01X-622498D01*
G03X-592084Y-575016I0J30414D01*
G01Y-475016D01*
G03X-622498Y-444602I-30414J0D01*
G01X-777499D01*
G03X-807913Y-475016I0J-30414D01*
G01Y-575016D01*
G03X-777499Y-605430I30414J0D01*
G01X-745414D01*
G01Y-610158D01*
G03X-760414Y-650000I45414J-39842D01*
G03X-759658Y-659528I60414J0D01*
G03X-771780Y-671843I14721J-26614D01*
G01X-794584D01*
G03X-824850Y-644430I-30265J-3002D01*
G01X-904850D01*
G03X-935264Y-674844I0J-30414D01*
G01Y-764844D01*
G37*
G36*
G01X1472997Y515686D02*
G03X1578662Y579586I0J119314D01*
G01X1621332D01*
G03X1726997Y515686I105665J55414D01*
G03X1846311Y635000I0J119314D01*
G03X1726997Y754314I-119314J0D01*
G03X1621332Y690414I0J-119314D01*
G01X1578662D01*
G03X1472997Y754314I-105665J-55414D01*
G03X1353683Y635000I0J-119314D01*
G03X1472997Y515686I119314J0D01*
G37*
G36*
G01X-1300011Y-935422D02*
G03X-1164596Y-800007I0J135415D01*
G03X-1300011Y-664592I-135415J0D01*
G03X-1435426Y-800007I0J-135415D01*
G03X-1300011Y-935422I135415J0D01*
G37*
G36*
G01X-1299997Y664582D02*
G03X-1164582Y799997I0J135415D01*
G03X-1299997Y935412I-135415J0D01*
G03X-1435412Y799997I0J-135415D01*
G03X-1299997Y664582I135415J0D01*
G37*
G36*
G01X1726997Y-754314D02*
G03X1846311Y-635000I0J119314D01*
G03X1726997Y-515686I-119314J0D01*
G03X1607683Y-635000I0J-119314D01*
G03X1726997Y-754314I119314J0D01*
G37*
G36*
G01X1726997Y-500314D02*
G03X1846311Y-381000I0J119314D01*
G03X1726997Y-261686I-119314J0D01*
G03X1607683Y-381000I0J-119314D01*
G03X1726997Y-500314I119314J0D01*
G37*
G36*
G01X1607683Y-127000D02*
G03X1726997Y-246314I119314J0D01*
G03X1846311Y-127000I0J119314D01*
G03X1726997Y-7686I-119314J0D01*
G03X1607683Y-127000I0J-119314D01*
G37*
G36*
G01X-801977Y698006D02*
G03X-771563Y667592I30414J0D01*
G01X-714997D01*
G03X-684583Y698006I0J30414D01*
G01Y752006D01*
G03X-714997Y782420I-30414J0D01*
G01X-737096D01*
G01Y804593D01*
G01X-735010D01*
G03X-704596Y835007I0J30414D01*
G01Y915007D01*
G03X-735010Y945421I-30414J0D01*
G01X-825010D01*
G03X-855424Y915007I0J-30414D01*
G01Y835007D01*
G03X-825010Y804593I30414J0D01*
G01X-822924D01*
G01Y761736D01*
G03X-810355Y731391I42914J0D01*
G01X-801977Y723013D01*
G01Y698006D01*
G37*
G36*
G01X834576Y-475006D02*
G03X878991Y-519420I44414J0D01*
G01X1030989D01*
G03X1075404Y-475006I0J44414D01*
G03X1067695Y-449999I-44414J0D01*
G03X1075404Y-424993I-36706J25006D01*
G03X1030989Y-380579I-44414J0D01*
G01X878991D01*
G03X834576Y-424993I0J-44414D01*
G03X842285Y-449999I44414J0D01*
G03X834576Y-475006I36706J-25006D01*
G37*
G36*
G01X-775351Y-938872D02*
G03X-744937Y-969286I30414J0D01*
G01X-634447D01*
G03X-611859Y-959238I0J30414D01*
G03X-600000Y-960414I11859J59239D01*
G03X-539586Y-900000I0J60414D01*
G03X-600000Y-839586I-60414J0D01*
G03X-628614Y-846792I0J-60414D01*
G03X-634447Y-846228I-5833J-29849D01*
G01X-744937D01*
G03X-775351Y-876642I0J-30414D01*
G01Y-938872D01*
G37*
G36*
G01X-801979Y423000D02*
G03X-771565Y392586I30414J0D01*
G01X-714999D01*
G03X-684585Y423000I0J30414D01*
G01Y477000D01*
G03X-707980Y506593I-30414J0D01*
G03X-689586Y550000I-42020J43407D01*
G03X-750000Y610414I-60414J0D01*
G03X-810414Y550000I0J-60414D01*
G03X-787927Y502975I60414J0D01*
G01Y502638D01*
G03X-801979Y477000I16363J-25637D01*
G01Y423000D01*
G37*
G36*
G01X-355047Y-969286D02*
G03X-324633Y-938872I0J30414D01*
G01Y-876642D01*
G03X-355047Y-846228I-30414J0D01*
G01X-465537D01*
G03X-495951Y-876642I0J-30414D01*
G01Y-938872D01*
G03X-465537Y-969286I30414J0D01*
G01X-355047D01*
G37*
%LPD*%
G36*
G01X-741170Y-244603D02*
G01X-779082Y-206690D01*
G03X-739584Y-150012I-20916J56678D01*
G03X-740833Y-137792I-60414J0D01*
G01X-644016Y-234609D01*
G03X-626319Y-244603I26809J26809D01*
G01X-741170D01*
G37*
G36*
G01X-19420Y-716355D02*
G01X-29562Y-706213D01*
G01Y-674844D01*
G03X-59975Y-644430I-30414J0D01*
G01X-139975D01*
G03X-168602Y-664571I0J-30414D01*
G01X-181350D01*
G03X-209977Y-644430I-28626J-10274D01*
G01X-289977D01*
G03X-318603Y-664571I0J-30414D01*
G01X-336508D01*
G03X-354873Y-658268I-18538J-24111D01*
G01Y-630633D01*
G03X-352089Y-612505I-57630J18128D01*
G03X-387707Y-557414I-60414J0D01*
G01X-378436D01*
G03X-348843Y-534021I0J30414D01*
G03X-344656Y-530345I-26157J34021D01*
G01X-271807Y-457496D01*
G03X-275404Y-475006I40817J-17510D01*
G03X-230989Y-519420I44414J0D01*
G01X-152103D01*
G03X-160414Y-549999I52104J-30579D01*
G03X-100000Y-610413I60414J0D01*
G03X-39586Y-549999I0J60414D01*
G03X-53528Y-511396I-60414J0D01*
G03X-34576Y-475006I-25463J36391D01*
G03X-78991Y-430591I-44414J0D01*
G01X-230989D01*
G03X-248499Y-434188I0J-44414D01*
G01X-233651Y-419340D01*
G03X-230989Y-419420I2662J44335D01*
G01X-78991D01*
G03X-34576Y-375006I0J44414D01*
G03X-78991Y-330591I-44414J0D01*
G01X-230989D01*
G03X-242437Y-332092I0J-44414D01*
G01X-246403D01*
G01X-233651Y-319341D01*
G03X-230989Y-319420I2662J44335D01*
G01X-78991D01*
G03X-67544Y-317920I0J44414D01*
G01X84994D01*
G03X115339Y-305351I0J42914D01*
G01X335418Y-85271D01*
G03X347987Y-54927I-30345J30345D01*
G01Y162159D01*
G01X502151D01*
G01X529600Y134710D01*
G01Y127665D01*
G03X499999Y135414I-29601J-52665D01*
G03X439585Y75000I0J-60414D01*
G03X457085Y32477I60414J0D01*
G01Y-149999D01*
G03X469654Y-180344I42914J0D01*
G01X582079Y-292769D01*
G01Y-348807D01*
G03X550000Y-339586I-32079J-51193D01*
G03X520849Y-347084I0J-60414D01*
G01X115001D01*
G03X88192Y-358189I0J-37915D01*
G01X-1815Y-448196D01*
G03X-12920Y-475006I26810J-26810D01*
G01Y-555858D01*
G03X-19420Y-578991I37915J-23133D01*
G01Y-716355D01*
G37*
G54D8191*
G01X1969586Y969578D02*
G01X1969586Y-969586D01*
G01X-1569583D01*
G01Y968689D01*
G01X1969586Y969578D01*
G01X928989Y-962922D02*
G03X955799Y-951817I0J37915D01*
G01X1353683Y-553933D01*
G01Y-723900D01*
G03X1384097Y-754314I30414J0D01*
G01X1561897D01*
G03X1592311Y-723900I0J30414D01*
G01Y-546100D01*
G03X1561897Y-515686I-30414J0D01*
G01X1391930D01*
G01X1419812Y-487804D01*
G03X1472997Y-500314I53185J106804D01*
G03X1592311Y-381000I0J119314D01*
G03X1472997Y-261686I-119314J0D01*
G03X1353683Y-381000I0J-119314D01*
G03X1366192Y-434185I119314J0D01*
G01X913285Y-887093D01*
G01X587166D01*
G03X592918Y-862507I-49661J24586D01*
G03X562908Y-813259I-55414J0D01*
G01Y-773724D01*
G03X575006Y-775404I12098J42735D01*
G03X600000Y-767704I0J44414D01*
G03X624993Y-775404I24994J36715D01*
G03X649999Y-767695I0J44414D01*
G03X675006Y-775404I25006J36706D01*
G01X675354Y-775402D01*
G03X669592Y-800007I49652J-24604D01*
G03X725006Y-855420I55414J0D01*
G03X760064Y-842920I0J55414D01*
G01X817026D01*
G03X847371Y-830351I0J42914D01*
G01X924571Y-753151D01*
G03X931885Y-743384I-30345J30345D01*
G03X952923Y-714451I-9376J28933D01*
G01Y-660451D01*
G03X922509Y-630037I-30414J0D01*
G01X865943D01*
G03X835529Y-660451I0J-30414D01*
G01Y-714451D01*
G03X836088Y-720255I30414J0D01*
G01X818957Y-737386D01*
G03X819420Y-730989I-43951J6397D01*
G01Y-578991D01*
G03X775006Y-534576I-44414J0D01*
G03X749999Y-542285I0J-44414D01*
G03X724993Y-534576I-25006J-36706D01*
G03X699999Y-542276I0J-44414D01*
G03X675006Y-534576I-24994J-36715D01*
G03X667907Y-535147I0J-44414D01*
G01Y-278597D01*
G01X694661Y-305351D01*
G03X725006Y-317920I30345J30345D01*
G01X835143D01*
G03X834576Y-324993I43848J-7073D01*
G03X878991Y-369408I44414J0D01*
G01X1030989D01*
G03X1075404Y-324993I0J44414D01*
G03X1073731Y-312921I-44414J0D01*
G01X1117595D01*
G01Y-335004D01*
G03X1148009Y-365418I30414J0D01*
G01X1202010D01*
G03X1232424Y-335004I0J30414D01*
G01Y-278438D01*
G03X1202010Y-248024I-30414J0D01*
G01X1169931D01*
G03X1143294Y-237091I-26637J-26982D01*
G01X1136527D01*
G01X1335704Y-37915D01*
G01X1393627D01*
G03X1353683Y-127000I79370J-89085D01*
G03X1472997Y-246314I119314J0D01*
G03X1592311Y-127000I0J119314D01*
G03X1552367Y-37915I-119314J0D01*
G01X1599997D01*
G03X1626806Y-26810I0J37915D01*
G01X1673812Y20196D01*
G03X1726997Y7686I53185J106804D01*
G03X1846311Y127000I0J119314D01*
G03X1726997Y246314I-119314J0D01*
G03X1607683Y127000I0J-119314D01*
G03X1620192Y73815I119314J0D01*
G01X1584292Y37915D01*
G01X1552367D01*
G03X1592311Y127000I-79370J89085D01*
G03X1472997Y246314I-119314J0D01*
G03X1359867Y164915I0J-119314D01*
G01X1351998D01*
G03X1325188Y153810I0J-37915D01*
G01X1069135Y-102244D01*
G03X1067704Y-100000I-38145J-22750D01*
G03X1075404Y-75006I-36715J24994D01*
G03X1074833Y-67908I-44414J0D01*
G01X1075006D01*
G03X1105351Y-55339I0J42914D01*
G01X1205354Y44665D01*
G03X1211129Y51836I-30345J30345D01*
G03X1232424Y80851I-9119J29015D01*
G01Y137417D01*
G03X1202010Y167831I-30414J0D01*
G01X1148009D01*
G03X1117595Y137417I0J-30414D01*
G01Y80851D01*
G01X1117696Y78385D01*
G01X1074271Y34960D01*
G03X1067695Y50000I-43282J-9967D01*
G03X1075404Y75006I-36706J25006D01*
G03X1067704Y100000I-44414J0D01*
G03X1075404Y124993I-36715J24994D01*
G03X1067695Y149999I-44414J0D01*
G03X1075404Y175006I-36706J25006D01*
G03X1030989Y219420I-44414J0D01*
G01X878991D01*
G03X834576Y175006I0J-44414D01*
G03X842285Y149999I44414J0D01*
G03X834576Y124993I36706J-25006D01*
G03X842276Y100000I44414J0D01*
G03X834576Y75006I36715J-24994D01*
G03X842285Y50000I44414J0D01*
G03X834590Y26099I36706J-25006D01*
G01X817912Y42777D01*
G01Y107476D01*
G03X835412Y150000I-42914J42523D01*
G03X774998Y210414I-60414J0D01*
G03X714585Y150000I0J-60414D01*
G03X732085Y107476I60414J0D01*
G01Y25001D01*
G03X744654Y-5343I42914J0D01*
G01X794649Y-55339D01*
G03X824994Y-67908I30345J30345D01*
G01X835147D01*
G03X834576Y-75006I43843J-7099D01*
G03X842276Y-100000I44414J0D01*
G03X834576Y-124994I36715J-24994D01*
G03X842285Y-150000I44414J0D01*
G03X834576Y-175006I36706J-25006D01*
G03X842276Y-200000I44414J0D01*
G03X834576Y-224993I36715J-24994D01*
G03X835147Y-232092I44414J0D01*
G01X742781D01*
G01X615428Y-104739D01*
G01Y129739D01*
G01X805350Y319662D01*
G03X817919Y350006I-30345J30345D01*
G01Y367543D01*
G03X819420Y378991I-42914J11447D01*
G01Y409617D01*
G03X849605Y422877I-1927J45373D01*
G01X890365Y463637D01*
G03X888051Y451999I28099J-11638D01*
G01Y397999D01*
G03X896132Y377353I30414J0D01*
G03X889584Y349999I53867J-27354D01*
G03X897895Y319420I60414J0D01*
G01X878991D01*
G03X834576Y275006I0J-44414D01*
G03X878991Y230591I44414J0D01*
G01X1030989D01*
G03X1075404Y275006I0J44414D01*
G03X1030989Y319420I-44414J0D01*
G01X1002101D01*
G03X1010412Y349999I-52103J30579D01*
G03X1001066Y382278I-60414J0D01*
G03X1005444Y397999I-26036J15721D01*
G01Y451999D01*
G03X975030Y482413I-30414J0D01*
G01X918465D01*
G03X906827Y480099I0J-30414D01*
G01X926294Y499566D01*
G01X955142D01*
G03X985556Y529980I0J30414D01*
G01Y609979D01*
G03X955142Y640393I-30414J0D01*
G01X865142D01*
G03X834728Y609979I0J-30414D01*
G01Y536450D01*
G01X819420Y521142D01*
G01Y530989D01*
G03X797855Y569075I-44414J0D01*
G03X835412Y624722I-22856J55923D01*
G01X917782Y707092D01*
G01X998223D01*
G03X1028444Y680092I30222J3414D01*
G01X1085010D01*
G03X1100009Y684047I0J30414D01*
G03X1115008Y680092I14999J26458D01*
G01X1171573D01*
G03X1201987Y710506I0J30414D01*
G01Y764506D01*
G03X1185007Y791793I-30414J0D01*
G03X1179604Y804593I-41716J-10068D01*
G01X1225019D01*
G03X1255433Y835007I0J30414D01*
G01Y857086D01*
G01X1464942D01*
G03X1500000Y844586I35058J42914D01*
G03X1555414Y900000I0J55414D01*
G03X1500000Y955414I-55414J0D01*
G03X1464942Y942914I0J-55414D01*
G01X1237111D01*
G03X1225019Y945421I-12092J-27907D01*
G01X1135019D01*
G03X1104605Y915007I0J-30414D01*
G01Y881100D01*
G01X1095413Y890292D01*
G01Y915007D01*
G03X1064999Y945421I-30414J0D01*
G01X974999D01*
G03X944585Y915007I0J-30414D01*
G01Y835007D01*
G03X974999Y804593I30414J0D01*
G01X1059733D01*
G01X1069406Y794920D01*
G01X1028444D01*
G03X1017597Y792920I0J-30414D01*
G01X900006D01*
G03X869661Y780351I0J-42914D01*
G01X774723Y685412D01*
G03X723730Y656959I276J-60413D01*
G01X698604Y682085D01*
G01X700000D01*
G03X742914Y724999I0J42914D01*
G01Y857477D01*
G03X760414Y900000I-42914J42523D01*
G03X700000Y960414I-60414J0D01*
G03X657477Y942914I0J-60414D01*
G01X637106D01*
G03X625014Y945421I-12092J-27907D01*
G01X535014D01*
G03X504600Y915007I0J-30414D01*
G01Y835007D01*
G03X535014Y804593I30414J0D01*
G01X625014D01*
G03X655428Y835007I0J30414D01*
G01Y857086D01*
G01X657086D01*
G01Y782413D01*
G01X614998D01*
G03X584584Y751999I0J-30414D01*
G01Y697998D01*
G03X600731Y671138I30414J0D01*
G03X612936Y646375I42549J5581D01*
G01X682079Y577231D01*
G01Y542436D01*
G03X680579Y530989I42914J-11447D01*
G01Y378991D01*
G03X704104Y339795I44414J0D01*
G01X574999Y210689D01*
G01X550271Y235418D01*
G03X519926Y247987I-30345J-30345D01*
G01X450732D01*
G03X480414Y300000I-30733J52013D01*
G03X469280Y334947I-60414J0D01*
G03X475006Y334576I5726J44044D01*
G03X500000Y342276I0J44414D01*
G03X524993Y334576I24994J36715D01*
G03X550000Y342285I0J44414D01*
G03X575006Y334576I25006J36706D01*
G03X600000Y342276I0J44414D01*
G03X624993Y334576I24994J36715D01*
G03X669408Y378991I0J44414D01*
G01Y530989D01*
G03X624993Y575404I-44414J0D01*
G03X600000Y567704I0J-44414D01*
G03X575006Y575404I-24994J-36715D01*
G03X567907Y574833I0J-44414D01*
G01Y600004D01*
G03X555338Y630349I-42914J0D01*
G01X499564Y686124D01*
G03X501978Y697998I-28000J11875D01*
G01Y751999D01*
G03X471564Y782413I-30414J0D01*
G01X439466D01*
G01X450339Y793286D01*
G03X458454Y804593I-30345J30345D01*
G01X464994D01*
G03X495408Y835007I0J30414D01*
G01Y915007D01*
G03X464994Y945421I-30414J0D01*
G01X374994D01*
G03X344580Y915007I0J-30414D01*
G01Y835007D01*
G03X351440Y815766I30414J0D01*
G01X326373Y790699D01*
G03X319059Y780932I30345J-30345D01*
G03X298021Y751999I9376J-28933D01*
G01Y697998D01*
G03X328435Y667584I30414J0D01*
G01X385000D01*
G01X385001D01*
G03X399999Y671540I0J30414D01*
G01X401837Y670579D01*
G03X412936Y651372I41443J11138D01*
G01X421394Y642914D01*
G01X317775D01*
G01X292914Y667776D01*
G01Y750000D01*
G03X280345Y780345I-42914J0D01*
G01X242838Y817851D01*
G03X212494Y830420I-30345J-30345D01*
G01X55076D01*
G03X55424Y835007I-30066J4587D01*
G01Y857058D01*
G01X55453Y857088D01*
G01X114939D01*
G03X150000Y844586I35061J42912D01*
G03X205414Y900000I0J55414D01*
G03X150000Y955414I-55414J0D01*
G03X114944Y942916I0J-55414D01*
G01X37678D01*
G01X37107Y942912D01*
G03X25010Y945421I-12097J-27905D01*
G01X-64990D01*
G03X-95404Y915007I0J-30414D01*
G01Y835007D01*
G03X-95056Y830420I30414J0D01*
G01X-104944D01*
G03X-104596Y835007I-30066J4587D01*
G01Y915007D01*
G03X-135010Y945421I-30414J0D01*
G01X-225010D01*
G03X-255424Y915007I0J-30414D01*
G01Y836646D01*
G01X-273625Y818445D01*
G03X-286194Y788100I30345J-30345D01*
G01Y782338D01*
G03X-314480Y751999I2128J-30339D01*
G01Y697998D01*
G03X-312760Y687915I30414J0D01*
G01X-334295D01*
G01X-362493Y716112D01*
G03X-352089Y750006I-50010J33894D01*
G03X-412227Y810419I-60414J0D01*
G01X-507160Y905352D01*
G03X-537504Y917921I-30345J-30345D01*
G01X-544716D01*
G03X-574990Y945421I-30274J-2914D01*
G01X-664990D01*
G03X-695404Y915007I0J-30414D01*
G01Y835007D01*
G03X-664990Y804593I30414J0D01*
G01X-574990D01*
G03X-546794Y823607I0J30414D01*
G01X-472917Y749730D01*
G03X-448864Y701759I60413J276D01*
G03X-439313Y685694I36360J10744D01*
G01X-376810Y623190D01*
G03X-350000Y612085I26810J26810D01*
G01X-100000D01*
G03X-73190Y623190I0J37915D01*
G01X-17301Y679080D01*
G03X-14883Y674999I27295J13417D01*
G03X-20420Y657501I24876J-17498D01*
G01Y607000D01*
G03X9994Y576586I30414J0D01*
G01X37092D01*
G01Y573724D01*
G03X24994Y575404I-12098J-42735D01*
G03X-19348Y533527I0J-44414D01*
G03X-50220Y545635I-30873J-33306D01*
G01X-79231D01*
G03X-103437Y557635I-24206J-18414D01*
G01X-160003D01*
G03X-190417Y527221I0J-30414D01*
G01Y473221D01*
G03X-160003Y442807I30414J0D01*
G01X-103437D01*
G03X-79231Y454807I0J30414D01*
G01X-69032D01*
G01X-37102Y422878D01*
G03X-19420Y411930I32113J32112D01*
G01Y378991D01*
G03X-17920Y367543I44414J0D01*
G01Y335005D01*
G03X-5350Y304661I42914J0D01*
G01X124582Y174728D01*
G03X154927Y162159I30345J30345D01*
G01X262159D01*
G01Y-11289D01*
G03X215554Y25135I-52159J-18711D01*
G01X85351Y155338D01*
G03X55007Y167907I-30345J-30345D01*
G01X-35147D01*
G03X-34576Y175006I-43843J7099D01*
G03X-42276Y199999I-44414J0D01*
G03X-34576Y224993I-36715J24994D01*
G03X-78991Y269407I-44414J0D01*
G01X-230989D01*
G03X-239887Y268507I0J-44414D01*
G01X-262085Y290705D01*
G01Y450000D01*
G03X-273190Y476810I-37915J0D01*
G01X-318179Y521799D01*
G03X-321151Y524472I-26810J-26810D01*
G01Y527489D01*
G03X-351565Y557903I-30414J0D01*
G01X-521565D01*
G03X-551979Y527489I0J-30414D01*
G01Y462488D01*
G03X-521565Y432074I30414J0D01*
G01X-351565D01*
G03X-338597Y434978I0J30414D01*
G01X-337914Y434295D01*
G01Y314689D01*
G03X-351565Y317924I-13650J-27179D01*
G01X-521565D01*
G03X-551979Y287510I0J-30414D01*
G01Y222509D01*
G03X-521565Y192095I30414J0D01*
G01X-370714D01*
G01X-346526Y167907D01*
G01X-352513D01*
G03X-378436Y182414I-25922J-15907D01*
G01X-435001D01*
G03X-465415Y152000I0J-30414D01*
G01Y98000D01*
G03X-435001Y67586I30414J0D01*
G01X-378436D01*
G03X-352521Y82079I0J30414D01*
G01X-242437D01*
G03X-230989Y80579I11447J42914D01*
G01X-78991D01*
G03X-67544Y82079I0J44414D01*
G01X37231D01*
G01X152845Y-33535D01*
G01X99302Y-87079D01*
G01X-36249D01*
G03X-34576Y-75006I-42742J12073D01*
G03X-42285Y-50000I-44414J0D01*
G03X-34576Y-24994I-36706J25006D01*
G03X-42276Y-0I-44414J0D01*
G03X-34576Y24993I-36715J24994D01*
G03X-78991Y69408I-44414J0D01*
G01X-230989D01*
G03X-254122Y62908I0J-44414D01*
G01X-375007D01*
G03X-394664Y57414I0J-37915D01*
G01X-435000D01*
G03X-465414Y27000I0J-30414D01*
G01Y-27000D01*
G03X-435000Y-57414I30414J0D01*
G01X-378435D01*
G03X-355642Y-47138I0J30414D01*
G01Y-77862D01*
G03X-378435Y-67586I-22792J-20138D01*
G01X-435000D01*
G03X-449999Y-71541I0J-30414D01*
G03X-464998Y-67586I-14999J-26458D01*
G01X-521564D01*
G03X-551978Y-98000I0J-30414D01*
G01Y-129286D01*
G01X-579602D01*
G01X-710703Y1816D01*
G03X-737513Y12920I-26809J-26809D01*
G01X-812093D01*
G01Y60006D01*
G03X-823198Y86815I-37914J0D01*
G01X-823489Y87107D01*
G03X-798195Y98181I-1515J37884D01*
G01X-753790Y142586D01*
G01X-714999D01*
G03X-684585Y173000I0J30414D01*
G01Y227000D01*
G03X-714999Y257414I-30414J0D01*
G01X-746633D01*
G01X-736463Y267585D01*
G01X-714997D01*
G03X-684583Y297999I0J30414D01*
G01Y352000D01*
G03X-714997Y382414I-30414J0D01*
G01X-771563D01*
G03X-801977Y352000I0J-30414D01*
G01Y330521D01*
G01X-832091Y300407D01*
G01X-958496D01*
G01X-958977Y300405D01*
G01X-1012089D01*
G03X-1076502Y354416I-64414J-11403D01*
G03X-1141917Y289001I0J-65415D01*
G03X-1107748Y231531I65415J0D01*
G01X-1157053Y182226D01*
G03X-1170354Y150114I32112J-32112D01*
G01Y-137414D01*
G03X-1157099Y-169480I45414J0D01*
G01X-1099125Y-227622D01*
G03X-1141917Y-289001I22623J-61379D01*
G03X-1076502Y-354416I65415J0D01*
G03X-1012093Y-300430I0J65415D01*
G01X-958519D01*
G01X-893519D01*
G01X-838697D01*
G01X-807913Y-331214D01*
G01Y-375016D01*
G03X-777499Y-405430I30414J0D01*
G01X-622498D01*
G03X-592084Y-375016I0J30414D01*
G01Y-275016D01*
G03X-614351Y-245714I-30414J0D01*
G01X-551979D01*
G01Y-277000D01*
G03X-521565Y-307414I30414J0D01*
G01X-464999D01*
G03X-450000Y-303459I0J30414D01*
G03X-435001Y-307414I14999J26458D01*
G01X-378436D01*
G03X-348022Y-277000I0J30414D01*
G01Y-244922D01*
G01X-260914Y-157814D01*
G03X-230989Y-169408I29925J32820D01*
G01X-78991D01*
G03X-55858Y-162908I0J44414D01*
G01X115006D01*
G03X141816Y-151803I0J37915D01*
G01X208233Y-85386D01*
G01X210000Y-85414D01*
G03X214044Y-85266I0J55414D01*
G01X67218Y-232092D01*
G01X-67544D01*
G03X-78991Y-230592I-11447J-42914D01*
G01X-230989D01*
G03X-242437Y-232092I0J-44414D01*
G01X-250006D01*
G03X-280351Y-244661I0J-42914D01*
G01X-359717Y-324028D01*
G03X-378436Y-317585I-18718J-23971D01*
G01X-435001D01*
G03X-465415Y-347999I0J-30414D01*
G01Y-401999D01*
G03X-435001Y-432413I30414J0D01*
G01X-378436D01*
G03X-364950Y-429260I0J30414D01*
G01X-378276Y-442586D01*
G01X-378436D01*
G01X-435001D01*
G03X-450000Y-446541I0J-30414D01*
G03X-464999Y-442586I-14999J-26458D01*
G01X-521565D01*
G03X-551979Y-473000I0J-30414D01*
G01Y-527000D01*
G03X-521565Y-557414I30414J0D01*
G01X-521168D01*
G01X-520091Y-558536D01*
G01X-472572Y-606055D01*
G03X-472917Y-612505I60069J-6450D01*
G03X-465701Y-641138I60414J0D01*
G01Y-658268D01*
G03X-495951Y-688682I164J-30414D01*
G01Y-750912D01*
G03X-465537Y-781326I30414J0D01*
G01X-355047D01*
G03X-337008Y-775398I0J30414D01*
G01X-318500D01*
G03X-289977Y-795258I28524J10554D01*
G01X-209977D01*
G03X-181453Y-775398I0J30414D01*
G01X-168499D01*
G03X-139975Y-795258I28524J10554D01*
G01X-68967D01*
G01X17725Y-881950D01*
G03X49838Y-895251I32112J32112D01*
G01X129103D01*
G03X153437Y-907421I24334J18244D01*
G01X210003D01*
G03X240417Y-877007I0J30414D01*
G01Y-823007D01*
G03X217921Y-793641I-30414J0D01*
G01Y-774837D01*
G03X224994Y-775404I7073J43848D01*
G03X250000Y-767695I0J44414D01*
G03X275007Y-775404I25006J36706D01*
G03X300000Y-767704I0J44414D01*
G03X324994Y-775404I24994J36715D01*
G03X350000Y-767695I0J44414D01*
G03X375006Y-775404I25006J36706D01*
G03X419421Y-730989I0J44414D01*
G01Y-578991D01*
G03X375006Y-534576I-44414J0D01*
G03X350000Y-542285I0J-44414D01*
G03X324994Y-534576I-25006J-36706D01*
G03X300000Y-542276I0J-44414D01*
G03X295594Y-539636I-24994J-36715D01*
G03X310414Y-500000I-45594J39636D01*
G03X305187Y-475418I-60414J0D01*
G01X439587D01*
G03X499999Y-535413I60412J419D01*
G03X560413Y-474999I0J60414D01*
G03X558474Y-459817I-60414J0D01*
G03X582079Y-451193I-8474J59817D01*
G01Y-535143D01*
G03X575006Y-534576I-7073J-43848D01*
G03X550000Y-542285I0J-44414D01*
G03X524993Y-534576I-25006J-36706D01*
G03X500000Y-542276I0J-44414D01*
G03X475006Y-534576I-24994J-36715D01*
G03X430592Y-578991I0J-44414D01*
G01Y-730989D01*
G03X437092Y-754122I44414J0D01*
G01Y-887510D01*
G03X448197Y-914319I37915J0D01*
G01X485695Y-951817D01*
G03X512504Y-962922I26810J26810D01*
G01X928989D01*
G01X-935264Y-764844D02*
G03X-904850Y-795258I30414J0D01*
G01X-824850D01*
G03X-794436Y-764844I0J30414D01*
G01Y-762671D01*
G01X-771780D01*
G03X-744937Y-778786I26843J14299D01*
G01X-634447D01*
G03X-604033Y-748372I0J30414D01*
G01Y-686142D01*
G03X-634447Y-655728I-30414J0D01*
G01X-639858D01*
G03X-639586Y-650000I-60142J5728D01*
G03X-654586Y-610158I-60414J0D01*
G01Y-605430D01*
G01X-622498D01*
G03X-592084Y-575016I0J30414D01*
G01Y-475016D01*
G03X-622498Y-444602I-30414J0D01*
G01X-777499D01*
G03X-807913Y-475016I0J-30414D01*
G01Y-575016D01*
G03X-777499Y-605430I30414J0D01*
G01X-745414D01*
G01Y-610158D01*
G03X-760414Y-650000I45414J-39842D01*
G03X-759658Y-659528I60414J0D01*
G03X-771780Y-671843I14721J-26614D01*
G01X-794584D01*
G03X-824850Y-644430I-30265J-3002D01*
G01X-904850D01*
G03X-935264Y-674844I0J-30414D01*
G01Y-764844D01*
G01X1472997Y515686D02*
G03X1578662Y579586I0J119314D01*
G01X1621332D01*
G03X1726997Y515686I105665J55414D01*
G03X1846311Y635000I0J119314D01*
G03X1726997Y754314I-119314J0D01*
G03X1621332Y690414I0J-119314D01*
G01X1578662D01*
G03X1472997Y754314I-105665J-55414D01*
G03X1353683Y635000I0J-119314D01*
G03X1472997Y515686I119314J0D01*
G01X-1300011Y-935422D02*
G03X-1164596Y-800007I0J135415D01*
G03X-1300011Y-664592I-135415J0D01*
G03X-1435426Y-800007I0J-135415D01*
G03X-1300011Y-935422I135415J0D01*
G01X-1299997Y664582D02*
G03X-1164582Y799997I0J135415D01*
G03X-1299997Y935412I-135415J0D01*
G03X-1435412Y799997I0J-135415D01*
G03X-1299997Y664582I135415J0D01*
G01X1726997Y-754314D02*
G03X1846311Y-635000I0J119314D01*
G03X1726997Y-515686I-119314J0D01*
G03X1607683Y-635000I0J-119314D01*
G03X1726997Y-754314I119314J0D01*
G01X1726997Y-500314D02*
G03X1846311Y-381000I0J119314D01*
G03X1726997Y-261686I-119314J0D01*
G03X1607683Y-381000I0J-119314D01*
G03X1726997Y-500314I119314J0D01*
G01X1607683Y-127000D02*
G03X1726997Y-246314I119314J0D01*
G03X1846311Y-127000I0J119314D01*
G03X1726997Y-7686I-119314J0D01*
G03X1607683Y-127000I0J-119314D01*
G01X-801977Y698006D02*
G03X-771563Y667592I30414J0D01*
G01X-714997D01*
G03X-684583Y698006I0J30414D01*
G01Y752006D01*
G03X-714997Y782420I-30414J0D01*
G01X-737096D01*
G01Y804593D01*
G01X-735010D01*
G03X-704596Y835007I0J30414D01*
G01Y915007D01*
G03X-735010Y945421I-30414J0D01*
G01X-825010D01*
G03X-855424Y915007I0J-30414D01*
G01Y835007D01*
G03X-825010Y804593I30414J0D01*
G01X-822924D01*
G01Y761736D01*
G03X-810355Y731391I42914J0D01*
G01X-801977Y723013D01*
G01Y698006D01*
G01X834576Y-475006D02*
G03X878991Y-519420I44414J0D01*
G01X1030989D01*
G03X1075404Y-475006I0J44414D01*
G03X1067695Y-449999I-44414J0D01*
G03X1075404Y-424993I-36706J25006D01*
G03X1030989Y-380579I-44414J0D01*
G01X878991D01*
G03X834576Y-424993I0J-44414D01*
G03X842285Y-449999I44414J0D01*
G03X834576Y-475006I36706J-25006D01*
G01X-775351Y-938872D02*
G03X-744937Y-969286I30414J0D01*
G01X-634447D01*
G03X-611859Y-959238I0J30414D01*
G03X-600000Y-960414I11859J59239D01*
G03X-539586Y-900000I0J60414D01*
G03X-600000Y-839586I-60414J0D01*
G03X-628614Y-846792I0J-60414D01*
G03X-634447Y-846228I-5833J-29849D01*
G01X-744937D01*
G03X-775351Y-876642I0J-30414D01*
G01Y-938872D01*
G01X-801979Y423000D02*
G03X-771565Y392586I30414J0D01*
G01X-714999D01*
G03X-684585Y423000I0J30414D01*
G01Y477000D01*
G03X-707980Y506593I-30414J0D01*
G03X-689586Y550000I-42020J43407D01*
G03X-750000Y610414I-60414J0D01*
G03X-810414Y550000I0J-60414D01*
G03X-787927Y502975I60414J0D01*
G01Y502638D01*
G03X-801979Y477000I16363J-25637D01*
G01Y423000D01*
G01X-355047Y-969286D02*
G03X-324633Y-938872I0J30414D01*
G01Y-876642D01*
G03X-355047Y-846228I-30414J0D01*
G01X-465537D01*
G03X-495951Y-876642I0J-30414D01*
G01Y-938872D01*
G03X-465537Y-969286I30414J0D01*
G01X-355047D01*
G01X-741170Y-244603D02*
G01X-779082Y-206690D01*
G03X-739584Y-150012I-20916J56678D01*
G03X-740833Y-137792I-60414J0D01*
G01X-644016Y-234609D01*
G03X-626319Y-244603I26809J26809D01*
G01X-741170D01*
G01X-19420Y-716355D02*
G01X-29562Y-706213D01*
G01Y-674844D01*
G03X-59975Y-644430I-30414J0D01*
G01X-139975D01*
G03X-168602Y-664571I0J-30414D01*
G01X-181350D01*
G03X-209977Y-644430I-28626J-10274D01*
G01X-289977D01*
G03X-318603Y-664571I0J-30414D01*
G01X-336508D01*
G03X-354873Y-658268I-18538J-24111D01*
G01Y-630633D01*
G03X-352089Y-612505I-57630J18128D01*
G03X-387707Y-557414I-60414J0D01*
G01X-378436D01*
G03X-348843Y-534021I0J30414D01*
G03X-344656Y-530345I-26157J34021D01*
G01X-271807Y-457496D01*
G03X-275404Y-475006I40817J-17510D01*
G03X-230989Y-519420I44414J0D01*
G01X-152103D01*
G03X-160414Y-549999I52104J-30579D01*
G03X-100000Y-610413I60414J0D01*
G03X-39586Y-549999I0J60414D01*
G03X-53528Y-511396I-60414J0D01*
G03X-34576Y-475006I-25463J36391D01*
G03X-78991Y-430591I-44414J0D01*
G01X-230989D01*
G03X-248499Y-434188I0J-44414D01*
G01X-233651Y-419340D01*
G03X-230989Y-419420I2662J44335D01*
G01X-78991D01*
G03X-34576Y-375006I0J44414D01*
G03X-78991Y-330591I-44414J0D01*
G01X-230989D01*
G03X-242437Y-332092I0J-44414D01*
G01X-246403D01*
G01X-233651Y-319341D01*
G03X-230989Y-319420I2662J44335D01*
G01X-78991D01*
G03X-67544Y-317920I0J44414D01*
G01X84994D01*
G03X115339Y-305351I0J42914D01*
G01X335418Y-85271D01*
G03X347987Y-54927I-30345J30345D01*
G01Y162159D01*
G01X502151D01*
G01X529600Y134710D01*
G01Y127665D01*
G03X499999Y135414I-29601J-52665D01*
G03X439585Y75000I0J-60414D01*
G03X457085Y32477I60414J0D01*
G01Y-149999D01*
G03X469654Y-180344I42914J0D01*
G01X582079Y-292769D01*
G01Y-348807D01*
G03X550000Y-339586I-32079J-51193D01*
G03X520849Y-347084I0J-60414D01*
G01X115001D01*
G03X88192Y-358189I0J-37915D01*
G01X-1815Y-448196D01*
G03X-12920Y-475006I26810J-26810D01*
G01Y-555858D01*
G03X-19420Y-578991I37915J-23133D01*
G01Y-716355D01*
G04 Copper End*

G04 Pad Start*
G54D10*
G01X-406719Y-250000D03*
G01X-493282Y-250000D03*
G01X-406717Y-125000D03*
G01X-493281Y-125000D03*
G54D11*
G01X-99975Y-879864D03*
G01X-99975Y-719844D03*
G54D12*
G01X1033311Y424999D03*
G01X946747Y424999D03*
G54D10*
G01X-493282Y125000D03*
G01X-406719Y125000D03*
G54D12*
G01X-656717Y324999D03*
G01X-743280Y324999D03*
G54D10*
G01X-656719Y200000D03*
G01X-743282Y200000D03*
G54D13*
G01X-699999Y-525016D03*
G01X-699999Y-325016D03*
G54D10*
G01X-656719Y450000D03*
G01X-743282Y450000D03*
G54D11*
G01X-864850Y-879864D03*
G01X-864850Y-719844D03*
G01X-249977Y-879864D03*
G01X-249977Y-719844D03*
G54D15*
G01X-689692Y-907757D03*
G01X-689692Y-813777D03*
G01X-689692Y-717257D03*
G01X-410292Y-719797D03*
G01X-410292Y-907757D03*
G54D16*
G01X175006Y632250D03*
G01X124993Y632250D03*
G01X75006Y632250D03*
G01X24994Y632250D03*
G01X175006Y717747D03*
G01X124993Y717747D03*
G01X75006Y717747D03*
G01X24994Y717747D03*
G54D17*
G01X-436565Y255010D03*
G54D18*
G01X-436565Y374999D03*
G54D17*
G01X-436565Y494989D03*
G54D10*
G01X-406717Y0D03*
G01X-493281Y0D03*
G54D12*
G01X-493282Y-500000D03*
G01X-406719Y-500000D03*
G54D10*
G01X556717Y724999D03*
G01X643280Y724999D03*
G54D19*
G01X1175010Y195697D03*
G01X1175010Y109134D03*
G54D12*
G01X268283Y-850007D03*
G01X181720Y-850007D03*
G01X980789Y-687451D03*
G01X894226Y-687451D03*
G01X-743280Y725006D03*
G01X-656717Y725006D03*
G01X356718Y724999D03*
G01X443281Y724999D03*
G01X-255783Y724999D03*
G01X-169220Y724999D03*
G54D10*
G01X1143291Y737506D03*
G01X1056727Y737506D03*
G54D20*
G01X-958494Y335001D03*
G01X-958494Y305003D03*
G01X-958494Y254991D03*
G01X-958494Y224993D03*
G01X-958494Y175006D03*
G01X-958494Y124993D03*
G01X-958494Y75006D03*
G01X-958494Y24994D03*
G01X-958494Y-24994D03*
G01X-958494Y-75006D03*
G01X-958494Y-175006D03*
G01X-958519Y-224993D03*
G01X-958519Y-255016D03*
G01X-958494Y-305003D03*
G01X-958494Y-335001D03*
G01X-958494Y-124968D03*
G54D21*
G01X-1441500Y432003D03*
G01X-1441500Y-432003D03*
G54D22*
G01X-1023492Y-432003D03*
G01X-1023492Y432003D03*
G54D10*
G01X-218283Y500221D03*
G01X-131720Y500221D03*
G54D23*
G01X1175010Y-393284D03*
G01X1175010Y-306721D03*
G54D10*
G01X-493282Y-374999D03*
G01X-406719Y-374999D03*
G54D24*
G01X24994Y454990D03*
G01X75007Y454990D03*
G01X124994Y454990D03*
G01X175007Y454990D03*
G01X224994Y454990D03*
G01X275007Y454990D03*
G01X324994Y454990D03*
G01X375006Y454990D03*
G01X424994Y454990D03*
G01X475006Y454990D03*
G01X524993Y454990D03*
G01X575006Y454990D03*
G01X624993Y454990D03*
G01X675006Y454990D03*
G01X724993Y454990D03*
G01X775006Y454990D03*
G54D25*
G01X954990Y275006D03*
G01X954990Y224993D03*
G01X954990Y175006D03*
G01X954990Y124993D03*
G01X954990Y75006D03*
G01X954990Y24993D03*
G01X954990Y-24994D03*
G01X954990Y-75006D03*
G01X954990Y-124994D03*
G01X954990Y-175006D03*
G01X954990Y-224993D03*
G01X954990Y-275006D03*
G01X954990Y-324993D03*
G01X954990Y-375006D03*
G01X954990Y-424993D03*
G01X954990Y-475006D03*
G54D24*
G01X775006Y-654990D03*
G01X724993Y-654990D03*
G01X675006Y-654990D03*
G01X624993Y-654990D03*
G01X575006Y-654990D03*
G01X524993Y-654990D03*
G01X475006Y-654990D03*
G01X424994Y-654990D03*
G01X375006Y-654990D03*
G01X324994Y-654990D03*
G01X275007Y-654990D03*
G01X224994Y-654990D03*
G01X175007Y-654990D03*
G01X124994Y-654990D03*
G01X75007Y-654990D03*
G01X24994Y-654990D03*
G54D25*
G01X-154990Y-475006D03*
G01X-154990Y-424993D03*
G01X-154990Y-375006D03*
G01X-154990Y-324993D03*
G01X-154990Y-275006D03*
G01X-154990Y-224993D03*
G01X-154990Y-175006D03*
G01X-154990Y-124994D03*
G01X-154990Y-75006D03*
G01X-154990Y-24994D03*
G01X-154990Y24993D03*
G01X-154990Y75006D03*
G01X-154990Y124993D03*
G01X-154990Y175006D03*
G01X-154990Y224993D03*
G01X-154990Y275006D03*
G54D26*
G01X1472997Y-635000D03*
G54D27*
G01X1472997Y-381000D03*
G01X1472997Y-127000D03*
G01X1472997Y127000D03*
G01X1472997Y381000D03*
G01X1472997Y635000D03*
G01X1726997Y-635000D03*
G01X1726997Y-381000D03*
G01X1726997Y-127000D03*
G01X1726997Y127000D03*
G01X1726997Y381000D03*
G01X1726997Y635000D03*
G54D28*
G01X910142Y569980D03*
G01X1070162Y569980D03*
G54D29*
G01X1019999Y875007D03*
G01X1180019Y875007D03*
G01X-780010Y875007D03*
G01X-619990Y875007D03*
G01X419994Y875007D03*
G01X580014Y875007D03*
G01X-180010Y875007D03*
G01X-19990Y875007D03*
G04 Pad End*

G04 Via Start*
G54D30*
G01X-600000Y-900000D03*
G01X-700000Y-650000D03*
G01X-412503Y-612505D03*
G01X499999Y-474999D03*
G01X550000Y-400000D03*
G01X774998Y150000D03*
G01X700000Y900000D03*
G01X-412503Y750006D03*
G01X250000Y-500000D03*
G01X-100000Y-549999D03*
G01X-799998Y-150012D03*
G01X-750000Y550000D03*
G01X774998Y624999D03*
G01X499999Y75000D03*
G54D31*
G01X537504Y-862507D03*
G01X210000Y-30000D03*
G54D30*
G01X-550000Y650000D03*
G01X270000Y-240000D03*
G01X25000Y-925008D03*
G01X-574999Y374999D03*
G01X30000Y0D03*
G01X1500000Y800000D03*
G01X612505Y612505D03*
G01X420000Y300000D03*
G54D31*
G01X725006Y-800007D03*
G54D30*
G01X0Y-350000D03*
G01X-562505Y-312503D03*
G01X949998Y349999D03*
G01X-200000Y-600000D03*
G01X25000Y225000D03*
G01X50000Y-200000D03*
G01X1050009Y-700006D03*
G01X1150000Y300000D03*
G01X700000Y-100000D03*
G54D31*
G01X150000Y900000D03*
G01X1500000Y900000D03*
G04 Via End*

G04 Track Start*
G54D32*
G01X-154990Y24993D02*
G01X-375007Y24993D01*
G01X-400000Y0D01*
G01X124994Y454990D02*
G01X124994Y639497D01*
G01X175007Y454990D02*
G01X175007Y639497D01*
G01X75007Y454990D02*
G01X75007Y639497D01*
G54D33*
G01X-958519Y-255016D02*
G01X-819886Y-255016D01*
G01X-843282Y224991D02*
G01X-813280Y254993D01*
G01X-1124940Y-137414D02*
G01X-1037564Y-225044D01*
G54D32*
G01X-1074996Y0D02*
G01X-1074996Y-50002D01*
G01X-1050002Y24994D02*
G01X-1074996Y0D01*
G01X-1074996Y-50002D02*
G01X-1049997Y-75001D01*
G54D33*
G01X-958570Y225044D02*
G01X-1050010Y225044D01*
G54D32*
G01X-958494Y24994D02*
G01X-1050002Y24994D01*
G01X-1049997Y-75001D02*
G01X-958494Y-75006D01*
G54D33*
G01X-1037564Y-225044D02*
G01X-958570Y-225044D01*
G01X-1124940Y150114D02*
G01X-1124940Y-137414D01*
G01X-1050010Y225044D02*
G01X-1124940Y150114D01*
G54D32*
G01X-825004Y-175006D02*
G01X-799998Y-150000D01*
G01X-750013Y550013D02*
G01X-750013Y456732D01*
G01X-825004Y124991D02*
G01X-749995Y200000D01*
G54D33*
G01X-743280Y324993D02*
G01X-813280Y254993D01*
G01X-819886Y-255016D02*
G01X-724890Y-350012D01*
G01X-825004Y-224993D02*
G01X-699998Y-349999D01*
G01X-958519Y-255016D02*
G01X-958519Y-224993D01*
G01X-958494Y254991D02*
G01X-958494Y224993D01*
G01X-958496Y224991D02*
G01X-843282Y224991D01*
G01X-958519Y-224993D02*
G01X-825004Y-224993D01*
G54D32*
G01X-958496Y124991D02*
G01X-825004Y124991D01*
G01X-958494Y-175006D02*
G01X-825004Y-175006D01*
G54D33*
G01X-813280Y254993D02*
G01X-958496Y254993D01*
G01X-724890Y-350012D02*
G01X-699998Y-350012D01*
G54D32*
G01X-749995Y200000D02*
G01X-743280Y200000D01*
G54D33*
G01X-600000Y-900000D02*
G01X-600000Y-905563D01*
G01X-602194Y-907757D01*
G01X-700000Y-650000D02*
G01X-700000Y-550013D01*
G54D34*
G01X250000Y750000D02*
G01X250000Y650000D01*
G01X300000Y600000D01*
G01X449998D01*
G01X475006Y574992D01*
G01Y454990D01*
G01X443281Y724999D02*
G01X443281Y681717D01*
G01X524993Y600004D01*
G01Y454990D01*
G54D32*
G01X-750013Y456732D02*
G01X-743280Y449999D01*
G01X537504Y-862507D02*
G01X524993Y-849996D01*
G01Y-654990D01*
G54D34*
G01X-154990Y124993D02*
G01X55007Y124993D01*
G01X210000Y-30000D01*
G54D32*
G01X115006Y-124994D01*
G01X-154990D01*
G54D34*
G01X24994Y335005D02*
G01X24994Y454990D01*
G01X725006Y-275006D02*
G01X954990Y-275006D01*
G54D32*
G01X1095006Y-224993D02*
G01X954990Y-224993D01*
G01X1320000Y0D02*
G01X1095006Y-224993D01*
G01X1049991Y-175006D02*
G01X954990Y-175006D01*
G54D34*
G01X-154990Y-275006D02*
G01X84994Y-275006D01*
G54D32*
G01X175006Y717747D02*
G01X124993Y717747D01*
G01X75006D01*
G01X24994D01*
G54D34*
G01X700000Y900000D02*
G01X605007Y900000D01*
G01X643280Y724999D02*
G01X643280Y676719D01*
G01X724993Y595007D01*
G01Y454990D01*
G01X424994Y454990D02*
G01X424994Y304994D01*
G01X420000Y300000D01*
G54D32*
G01X1320000Y0D02*
G01X1599997Y0D01*
G01X1726997Y127000D01*
G01X1351998Y127000D02*
G01X1472997Y127000D01*
G01X1351998Y127000D02*
G01X1049991Y-175006D01*
G54D34*
G01X499999Y75000D02*
G01X499999Y-149999D01*
G01X624993Y-274993D01*
G01Y-654990D01*
G54D33*
G01X24994Y454990D02*
G01X-4990Y454990D01*
G54D34*
G01X-406719Y-374999D02*
G01X-349999Y-374999D01*
G01X-250006Y-275006D01*
G01X-154990D01*
G01X-406719Y-500000D02*
G01X-375000Y-500000D01*
G01X-250006Y-375006D01*
G01X-154990D01*
G01X305073Y-54927D02*
G01X84994Y-275006D01*
G01X305073Y205073D02*
G01X305073Y-54927D01*
G01X305073Y205073D02*
G01X154927Y205073D01*
G01X24994Y335005D01*
G01X775006Y350006D02*
G01X775006Y454990D01*
G01X572514Y147515D02*
G01X572514Y-122514D01*
G01X725006Y-275006D01*
G01X574999Y150000D02*
G01X572514Y147515D01*
G01X775006Y350006D02*
G01X574999Y150000D01*
G01X305073Y205073D02*
G01X519926Y205073D01*
G01X574999Y150000D01*
G01X774998Y150000D02*
G01X774998Y25001D01*
G01X824994Y-24994D01*
G01X954990D01*
G01X1075006Y-24994D02*
G01X954990Y-24994D01*
G54D31*
G01X-410287Y-614721D02*
G01X-412501Y-612508D01*
G54D32*
G01X-493282Y-531727D02*
G01X-493282Y-500000D01*
G01X-412503Y-612505D02*
G01X-493282Y-531727D01*
G01X-436565Y494989D02*
G01X-344989Y494989D01*
G01X-300000Y450000D01*
G01Y275000D01*
G01X-249992Y224993D01*
G01X-154990D01*
G01X-436565Y255010D02*
G01X-380009Y255010D01*
G01X-300005Y175006D01*
G01X-154990D01*
G54D34*
G01X-154990Y124993D02*
G01X-406712Y124993D01*
G01X724993Y-799994D02*
G01X724993Y-654990D01*
G54D32*
G01X949998Y349999D02*
G01X949998Y421748D01*
G01X946747Y424999D01*
G01X-412503Y750006D02*
G01X-412503Y712503D01*
G01X-350000Y650000D01*
G01X-100000D01*
G01X-32253Y717747D01*
G01X24994D01*
G01X-100012Y-549986D02*
G01X-100012Y-475006D01*
G01X-154990D01*
G01X250000Y-500000D02*
G01X150000Y-500000D01*
G01X124994Y-525006D01*
G01Y-654990D01*
G01X75007Y-499998D02*
G01X75007Y-654990D01*
G01X24994Y-475006D02*
G01X24994Y-654990D01*
G01X550000Y-400000D02*
G01X534999Y-384999D01*
G01X115001D01*
G01X24994Y-475006D01*
G01X499999Y-474999D02*
G01X462504Y-437504D01*
G01X137501D01*
G01X75007Y-499998D01*
G01X475006Y-654990D02*
G01X475006Y-887510D01*
G01X512504Y-925008D01*
G01X928989D01*
G01X1472997Y-381000D01*
G54D34*
G01X-156717Y749999D02*
G01X-119209Y787506D01*
G01X212494D01*
G01X250000Y750000D01*
G01X175007Y-654990D02*
G01X175007Y-849838D01*
G54D33*
G01X175176Y-850007D02*
G01X181720Y-850007D01*
G01X910142Y569980D02*
G01X910142Y547639D01*
G01X817493Y454990D01*
G01X775006D01*
G54D32*
G01X-535481Y-167200D02*
G01X-493281Y-125000D01*
G01X-535482Y-207800D02*
G01X-493282Y-250000D01*
G01X-865007Y75006D02*
G01X-958494Y75006D01*
G01X-850007Y60006D02*
G01X-865007Y75006D01*
G01X-850007Y-24994D02*
G01X-850007Y60006D01*
G01X-958494Y-24994D02*
G01X-850007Y-24994D01*
G01X-958492Y-75001D02*
G01X-750006Y-75001D01*
G01X-617207Y-207800D01*
G01X-535482D01*
G01X-850007Y-24994D02*
G01X-737513Y-24994D01*
G01X-595306Y-167200D01*
G01X-535481D01*
G01X-262502Y-75001D02*
G01X-154993Y-75001D01*
G01X-406717Y-125000D02*
G01X-337501Y-125000D01*
G01X-406719Y-250000D02*
G01X-287502Y-130784D01*
G01Y-100001D01*
G01X-262502Y-75001D01*
G01X-337501Y-125000D02*
G01X-317728Y-105227D01*
G01Y-39994D01*
G01X-302728Y-24994D01*
G01X-154990D01*
G54D34*
G01X1500000Y900000D02*
G01X1205012Y900000D01*
G54D33*
G01X49838Y-849838D02*
G01X175007Y-849838D01*
G01X-602194Y-907757D02*
G01X-689692Y-907757D01*
G01X-862262Y-717257D02*
G01X-864850Y-719844D01*
G01X-700000Y-650000D02*
G01X-700000Y-689844D01*
G01X-862262Y-717257D02*
G01X-689692Y-717257D01*
G54D31*
G01X-410287Y-719985D02*
G01X-410287Y-614721D01*
G01X-249977Y-719985D02*
G01X-410287Y-719985D01*
G01X-100000Y-719985D02*
G01X-249977Y-719985D01*
G54D33*
G01X-99975Y-719844D02*
G01X-80156Y-719844D01*
G01X49838Y-849838D01*
G54D34*
G01X1205012Y900000D02*
G01X1180019Y875007D01*
G01X1019999Y875007D02*
G01X1050009Y875007D01*
G01X1143291Y781725D01*
G01Y750006D01*
G01X700000Y900000D02*
G01X700000Y724999D01*
G01X643280D01*
G01X605007Y900000D02*
G01X580014Y875007D01*
G01X356718Y760354D02*
G01X356718Y724999D01*
G01X149998Y900002D02*
G01X37678Y900002D01*
G01X12683Y875007D01*
G01X-159780Y888967D02*
G01X-159780Y871600D01*
G01X-243280Y788100D02*
G01X-243280Y749999D01*
G01X-159780Y871600D02*
G01X-243280Y788100D01*
G01X-537504Y875007D02*
G01X-600303Y875007D01*
G01X-412503Y750006D02*
G01X-537504Y875007D01*
G01X419994Y823630D02*
G01X356718Y760354D01*
G01X419994Y875007D02*
G01X419994Y823630D01*
G01X-743280Y725006D02*
G01X-780010Y761736D01*
G01Y875007D01*
G01X1056727Y750006D02*
G01X900006Y750006D01*
G01X774998Y624998D01*
G54D31*
G01X1472997Y635000D02*
G01X1726997Y635000D01*
G54D32*
G01X1175010Y-306721D02*
G01X1143294Y-275006D01*
G01X954990D01*
G54D34*
G01X1175010Y109134D02*
G01X1175010Y75010D01*
G01X1075006Y-24994D01*
G54D33*
G01X-4990Y454990D02*
G01X-50220Y500221D01*
G01X-131720D01*
G54D34*
G01X725006Y-800007D02*
G01X817026Y-800007D01*
G01X894226Y-722807D01*
G01Y-687451D01*
G04 Track End*

M02*
